<svg xmlns="http://www.w3.org/2000/svg" xmlns:xlink="http://www.w3.org/1999/xlink" width="223" height="118" viewBox="0 0 223 118"><defs><path id="2y4ba" d="M326.399 686.297h46.908v-18.075h-46.908c-18.92 0-34.399 17.623-34.399 39.166 0 21.534 15.48 39.165 34.399 39.165h46.908v-18.075h-46.908c-4.918 0-9.63-2.238-13.076-6.21-3.492-3.942-5.455-9.296-5.455-14.879 0-5.584 1.963-10.937 5.455-14.88 3.446-3.972 8.157-6.211 13.076-6.212z"/><path id="2y4bc" d="M313.677 722.01c-5.21-5.927-6.764-14.818-3.941-22.545 2.823-7.727 9.47-12.777 16.855-12.804h28.767v-17.766H326.59c-18.698 0-33.997 17.321-33.997 38.492 0 21.172 15.299 38.493 33.997 38.493h28.767v-17.766H326.59c-4.85 0-9.5-2.197-12.912-6.103z"/><path id="2y4bd" d="M355.12 745.88v-17.766h17.83v17.766z"/><path id="2y4be" d="M355.12 686.66v-17.765h17.83v17.766z"/><path id="2y4bf" d="M429.578 681.083c-1.98 0-3.155-1.66-3.155-4.307 0-4.576 2.715-7.475 5.28-7.475 2.273 0 3.155 1.744 3.229 4.07-.005 3.734-2.133 7.712-5.36 7.712zm6.968 1.745c6.015 0 8.796-3.656 8.796-8.555 0-8.555-6.088-14.7-13.644-14.7-7.576-.001-13.717 6.952-13.717 15.53s6.141 15.532 13.717 15.532c2.79-.028 5.502-1.033 7.765-2.879.226-.182.379-.46.423-.77a.83.83 0 0 0-.211-.716.794.794 0 0 0-.659-.226.847.847 0 0 0-.594.393c-.5.743-1.99 2-6.4 2.113-6.674.173-12.258-5.844-12.28-13.402-.021-7.497 5.416-13.416 11.956-13.5 6.54-.083 11.809 5.15 11.809 12.458 0 4.651-2.853 6.81-6.307 6.73-1.101.083-1.32-.415-1.175-2.154.121-1.432 1.33-7.402 1.757-9.491a1.273 1.273 0 0 0-.2-1.002.975.975 0 0 0-.827-.425h-.074c-.466.064-.834.48-.889 1.01a9.916 9.916 0 0 0-.062 1.012 4.685 4.685 0 0 0-4.041-2.74c-3.887.083-7.26 4.07-7.408 9.884 0 3.903 1.833 6.145 4.992 6.145 2.202 0 3.804-1.494 4.696-2.907.005.003-.07 2.493 2.577 2.66z"/><path id="2y4bh" d="M429.668 680.822c-1.902 0-3.015-1.588-3.015-4.126 0-4.367 2.594-7.145 5.048-7.145 2.173 0 3.014 1.667 3.09 3.89-.007 3.567-2.049 7.378-5.125 7.378zm6.657 1.666c5.748 0 8.411-3.5 8.411-8.175 0-8.175-5.817-14.048-13.038-14.048-7.24 0-13.109 6.645-13.109 14.842 0 8.198 5.87 14.843 13.11 14.843 2.664-.026 5.256-.986 7.42-2.748.216-.174.363-.438.406-.735a.791.791 0 0 0-.202-.684.758.758 0 0 0-.625-.21.809.809 0 0 0-.564.369c-.476.708-1.902 1.911-6.117 2.019-6.379.164-11.714-5.586-11.735-12.81-.021-7.163 5.176-12.822 11.426-12.9 6.25-.078 11.285 4.92 11.285 11.906 0 4.444-2.734 6.509-6.029 6.428-1.05.078-1.262-.395-1.122-2.064.114-1.37 1.27-7.074 1.681-9.07.072-.335 0-.689-.192-.956a.931.931 0 0 0-.79-.405h-.071c-.446.061-.797.46-.849.966a9.494 9.494 0 0 0-.06.97 4.468 4.468 0 0 0-3.855-2.62c-3.716.078-6.94 3.89-7.08 9.446 0 3.73 1.752 5.873 4.766 5.873 2.104 0 3.645-1.43 4.486-2.778-.007-.002-.076 2.38 2.447 2.541z"/><path id="2y4bi" d="M456.516 655.242c-1.163 0-1.852-.975-1.852-2.536 0-2.692 1.593-4.39 3.09-4.39 1.337 0 1.853 1.023 1.903 2.39.014 2.194-1.24 4.536-3.141 4.536zm4.103 1.023c3.533 0 5.169-2.154 5.169-5.023 0-5.023-3.566-8.633-8.012-8.633-4.448 0-8.055 4.083-8.055 9.12 0 5.037 3.607 9.12 8.055 9.12 1.638-.016 3.23-.607 4.56-1.69a.71.71 0 0 0 .238-.453.486.486 0 0 0-.124-.42.468.468 0 0 0-.387-.133.498.498 0 0 0-.35.23c-.292.436-1.17 1.174-3.759 1.241-1.882.057-3.706-.744-5.062-2.224-1.356-1.48-2.13-3.515-2.148-5.647-.012-4.4 3.18-7.879 7.02-7.927 3.84-.049 6.935 3.023 6.935 7.316 0 2.732-1.68 4-3.704 3.952-.647.048-.775-.245-.69-1.268.072-.84.78-4.347 1.032-5.572a.748.748 0 0 0-.118-.588.572.572 0 0 0-.485-.25h-.043c-.274.038-.489.283-.521.593a5.828 5.828 0 0 0-.036.595c-.48-.982-1.386-1.598-2.377-1.615-2.282.048-4.265 2.39-4.35 5.803 0 2.294 1.076 3.61 2.928 3.61 1.11-.028 2.138-.664 2.758-1.707 0 0-.026 1.473 1.526 1.57z"/><path id="2y4bk" d="M456.59 655.064c-1.103 0-1.76-.926-1.76-2.406 0-2.547 1.512-4.167 2.944-4.167 1.267 0 1.759.972 1.8 2.269.002 2.08-1.185 4.304-2.984 4.304zm3.884.972c3.352 0 4.907-2.038 4.907-4.77 0-4.77-3.395-8.194-7.607-8.194-4.224 0-7.647 3.877-7.647 8.658 0 4.782 3.423 8.659 7.647 8.659 1.556-.019 3.068-.583 4.329-1.616a.67.67 0 0 0 .238-.428.463.463 0 0 0-.117-.398.44.44 0 0 0-.368-.128.469.469 0 0 0-.33.222c-.279.415-1.111 1.115-3.567 1.18-1.788.056-3.52-.703-4.808-2.11-1.288-1.405-2.022-3.338-2.036-5.363-.012-4.178 3.019-7.478 6.656-7.537 3.638-.06 6.59 2.888 6.59 6.963 0 2.593-1.595 3.796-3.516 3.75-.613.046-.737-.231-.653-1.203.066-.808.741-4.127.979-5.29a.71.71 0 0 0-.106-.567.543.543 0 0 0-.467-.24h-.04c-.26.035-.465.268-.495.563a5.53 5.53 0 0 0-.036.565c-.454-.93-1.313-1.512-2.251-1.526-2.168.045-4.041 2.269-4.13 5.51 0 2.175 1.023 3.426 2.782 3.426 1.051-.026 2.026-.628 2.615-1.615 0 0-.04 1.395 1.431 1.489z"/><path id="2y4bl" d="M481.697 674.534c-1.188 0-1.902-1.004-1.902-2.608 0-2.76 1.64-4.517 3.19-4.517 1.375 0 1.903 1.052 1.95 2.457-.002 2.259-1.286 4.668-3.238 4.668zm4.21 1.053c3.633 0 5.319-2.208 5.319-5.169 0-5.168-3.678-8.883-8.243-8.883-4.577-.001-8.287 4.2-8.287 9.383 0 5.182 3.71 9.383 8.287 9.383 1.685-.017 3.324-.625 4.691-1.74a.725.725 0 0 0 .257-.466.5.5 0 0 0-.129-.433.48.48 0 0 0-.397-.135.513.513 0 0 0-.359.237c-.301.447-1.202 1.209-3.867 1.276-1.938.06-3.814-.765-5.21-2.287-1.395-1.523-2.191-3.616-2.21-5.81-.015-4.527 3.27-8.105 7.222-8.156 3.951-.051 7.132 3.112 7.132 7.537 0 2.81-1.728 4.113-3.804 4.065-.665.05-.798-.25-.713-1.306.074-.864.804-4.471 1.063-5.733a.768.768 0 0 0-.121-.606.588.588 0 0 0-.5-.256h-.045c-.282.038-.505.291-.537.611a5.968 5.968 0 0 0-.038.611c-.495-1.003-1.422-1.633-2.437-1.655-2.349.051-4.386 2.457-4.476 5.97 0 2.358 1.107 3.712 3.014 3.712 1.141-.029 2.199-.683 2.836-1.755 0 0-.043 1.508 1.553 1.605z"/><path id="2y4bn" d="M481.797 674.249c-1.103 0-1.76-.926-1.76-2.407 0-2.546 1.513-4.167 2.944-4.167 1.267 0 1.76.972 1.8 2.27.002 2.088-1.184 4.31-2.984 4.31zm3.885.971c3.352 0 4.907-2.037 4.907-4.77 0-4.77-3.395-8.193-7.608-8.193-4.223 0-7.647 3.876-7.647 8.658s3.424 8.658 7.647 8.658c1.556-.018 3.069-.582 4.33-1.615a.67.67 0 0 0 .237-.428.463.463 0 0 0-.116-.398.44.44 0 0 0-.368-.128.469.469 0 0 0-.331.222c-.278.414-1.11 1.114-3.566 1.179-1.788.057-3.521-.703-4.809-2.109-1.288-1.405-2.021-3.339-2.036-5.364-.012-4.177 3.02-7.477 6.657-7.537 3.637-.059 6.583 2.897 6.583 6.98 0 2.592-1.595 3.796-3.516 3.75-.614.046-.737-.232-.654-1.203.066-.808.742-4.127.98-5.29a.71.71 0 0 0-.107-.567.543.543 0 0 0-.467-.24h-.04c-.26.035-.464.268-.495.562a5.531 5.531 0 0 0-.035.566c-.454-.93-1.312-1.513-2.25-1.53-2.167.046-4.04 2.27-4.129 5.51 0 2.176 1.023 3.427 2.782 3.427 1.051-.026 2.026-.628 2.615-1.615 0 0-.036 1.39 1.436 1.475z"/><path id="2y4bo" d="M459.157 702.408c-1.14 0-1.816-.956-1.816-2.488 0-2.63 1.564-4.306 3.04-4.306 1.31 0 1.817 1.004 1.86 2.344.002 2.162-1.225 4.45-3.084 4.45zm4.016 1.012c3.464 0 5.068-2.105 5.068-4.926 0-4.926-3.506-8.466-7.857-8.466-4.363 0-7.9 4.005-7.9 8.945s3.537 8.945 7.9 8.945c1.606-.016 3.169-.596 4.472-1.658a.696.696 0 0 0 .238-.444.478.478 0 0 0-.122-.412.458.458 0 0 0-.375-.125.488.488 0 0 0-.338.222c-.288.428-1.146 1.152-3.687 1.216-1.846.054-3.634-.732-4.964-2.183-1.33-1.452-2.09-3.446-2.109-5.537-.012-4.307 3.12-7.728 6.894-7.774 3.776-.046 6.802 2.961 6.802 7.177 0 2.691-1.647 3.922-3.632 3.873-.635.049-.761-.24-.676-1.243.048-.827.761-4.275.999-5.468a.734.734 0 0 0-.116-.577.561.561 0 0 0-.476-.244h-.043c-.268.037-.48.278-.511.582a5.692 5.692 0 0 0-.036.584c-.47-.957-1.355-1.558-2.322-1.577-2.24.048-4.182 2.344-4.268 5.693 0 2.247 1.056 3.54 2.872 3.54 1.088-.028 2.096-.653 2.703-1.675 0 0-.038 1.435 1.484 1.532z"/><path id="2y4bq" d="M459.198 702.305c-1.103 0-1.76-.926-1.76-2.406 0-2.547 1.512-4.167 2.944-4.167 1.267 0 1.759.972 1.8 2.27.002 2.08-1.185 4.3-2.984 4.3zm3.884.972c3.352 0 4.907-2.038 4.907-4.77 0-4.77-3.395-8.194-7.607-8.194-4.224 0-7.647 3.877-7.647 8.659 0 4.781 3.423 8.658 7.647 8.658 1.556-.019 3.068-.583 4.329-1.615a.67.67 0 0 0 .238-.428.463.463 0 0 0-.117-.399.44.44 0 0 0-.368-.128.469.469 0 0 0-.33.223c-.279.414-1.111 1.114-3.567 1.178-1.788.058-3.52-.702-4.808-2.108-1.288-1.406-2.022-3.339-2.036-5.364-.012-4.178 3.019-7.478 6.656-7.537 3.638-.06 6.598 2.88 6.598 6.964 0 2.592-1.596 3.795-3.517 3.75-.613.045-.737-.232-.653-1.204.066-.807.741-4.126.979-5.29a.71.71 0 0 0-.106-.567.543.543 0 0 0-.467-.24h-.04c-.26.036-.465.268-.495.563a5.53 5.53 0 0 0-.035.565c-.454-.93-1.312-1.513-2.25-1.529-2.168.046-4.041 2.27-4.13 5.51 0 2.175 1.023 3.427 2.783 3.427 1.05-.026 2.026-.628 2.615-1.615 0 0-.05 1.397 1.421 1.491z"/><path id="2y4br" d="M438.03 709.692c-1.19 0-1.903-.996-1.903-2.59 0-2.737 1.627-4.479 3.165-4.479 1.362 0 1.902 1.044 1.935 2.439.012 2.24-1.262 4.627-3.198 4.627zm4.176 1.044c3.605 0 5.276-2.191 5.276-5.114 0-5.115-3.65-8.81-8.178-8.81-4.54 0-8.221 4.167-8.221 9.308 0 5.14 3.68 9.308 8.22 9.308 1.672-.017 3.297-.62 4.653-1.725a.72.72 0 0 0 .254-.46.498.498 0 0 0-.125-.429.476.476 0 0 0-.395-.136.508.508 0 0 0-.357.236c-.3.444-1.188 1.198-3.837 1.265-1.923.061-3.787-.755-5.173-2.265-1.386-1.511-2.178-3.59-2.197-5.767-.012-4.493 3.245-8.04 7.166-8.092 3.92-.051 7.077 3.088 7.077 7.467 0 2.789-1.714 4.08-3.78 4.038-.658.048-.791-.248-.713-1.295.071-.859.796-4.436 1.053-5.688a.762.762 0 0 0-.12-.601.583.583 0 0 0-.496-.255h-.045c-.28.038-.5.289-.532.606a5.917 5.917 0 0 0-.038.608c-.49-.996-1.411-1.622-2.418-1.642-2.33.049-4.353 2.439-4.441 5.922 0 2.34 1.098 3.683 2.988 3.683 1.145-.024 2.207-.682 2.841-1.76 0 0-.045 1.499 1.538 1.598z"/><path id="2y4bt" d="M438.13 709.439c-1.104 0-1.76-.926-1.76-2.407 0-2.546 1.512-4.167 2.943-4.167 1.267 0 1.76.972 1.8 2.27-.01 2.083-1.196 4.304-2.993 4.304zm3.884.971c3.352 0 4.907-2.037 4.907-4.77 0-4.77-3.395-8.193-7.608-8.193-4.223 0-7.647 3.876-7.647 8.658s3.424 8.658 7.647 8.658c1.556-.018 3.069-.582 4.33-1.615a.67.67 0 0 0 .237-.428.463.463 0 0 0-.116-.398.44.44 0 0 0-.368-.128.469.469 0 0 0-.331.222c-.279.414-1.11 1.114-3.567 1.179-1.787.057-3.52-.703-4.808-2.109-1.288-1.405-2.021-3.339-2.036-5.364-.012-4.177 3.02-7.477 6.657-7.537 3.637-.059 6.583 2.87 6.583 6.945 0 2.592-1.596 3.796-3.517 3.75-.613.046-.736-.232-.653-1.203.066-.808.741-4.127.98-5.29a.71.71 0 0 0-.107-.567.543.543 0 0 0-.467-.24h-.04c-.26.035-.465.268-.495.562a5.53 5.53 0 0 0-.035.565c-.454-.929-1.312-1.512-2.25-1.528-2.168.045-4.04 2.269-4.129 5.51 0 2.175 1.022 3.426 2.782 3.426 1.051-.026 2.026-.628 2.615-1.615 0 0-.048 1.419 1.436 1.51z"/><path id="2y4bu" d="M438.03 738.478c-1.19 0-1.903-.996-1.903-2.59 0-2.737 1.627-4.479 3.165-4.479 1.362 0 1.902 1.045 1.935 2.439.012 2.24-1.262 4.63-3.198 4.63zm4.176 1.044c3.605 0 5.276-2.19 5.276-5.114 0-5.115-3.65-8.81-8.178-8.81-4.54 0-8.221 4.167-8.221 9.308 0 5.14 3.68 9.308 8.22 9.308 1.672-.017 3.297-.62 4.653-1.725a.72.72 0 0 0 .254-.46.498.498 0 0 0-.125-.429.476.476 0 0 0-.395-.135.508.508 0 0 0-.357.235c-.3.444-1.188 1.198-3.837 1.265-1.923.062-3.787-.755-5.173-2.265-1.386-1.511-2.178-3.59-2.197-5.767-.012-4.493 3.245-8.04 7.166-8.092 3.92-.051 7.077 3.088 7.077 7.467 0 2.789-1.714 4.081-3.78 4.038-.658.048-.791-.248-.713-1.295.071-.858.796-4.436 1.053-5.688a.762.762 0 0 0-.12-.601.584.584 0 0 0-.496-.255h-.045c-.28.038-.5.289-.532.606a5.915 5.915 0 0 0-.038.608c-.49-.996-1.411-1.621-2.418-1.642-2.33.049-4.353 2.44-4.441 5.922 0 2.34 1.098 3.683 2.988 3.683 1.142-.02 2.204-.671 2.841-1.744 0 0-.045 1.483 1.538 1.582z"/><path id="2y4bw" d="M438.13 738.228c-1.104 0-1.76-.927-1.76-2.407 0-2.546 1.512-4.167 2.943-4.167 1.267 0 1.76.972 1.8 2.27-.01 2.08-1.196 4.304-2.993 4.304zm3.884.971c3.352 0 4.907-2.038 4.907-4.77 0-4.77-3.395-8.193-7.608-8.193-4.223 0-7.647 3.876-7.647 8.658 0 4.781 3.424 8.658 7.647 8.658 1.556-.018 3.069-.583 4.33-1.615a.67.67 0 0 0 .237-.428.463.463 0 0 0-.116-.399.44.44 0 0 0-.368-.128.469.469 0 0 0-.331.223c-.279.414-1.11 1.114-3.567 1.179-1.787.057-3.52-.703-4.808-2.109-1.288-1.405-2.021-3.339-2.036-5.364-.012-4.178 3.02-7.478 6.657-7.537 3.637-.06 6.583 2.87 6.583 6.945 0 2.592-1.596 3.795-3.517 3.75-.613.045-.736-.232-.653-1.204.066-.807.741-4.126.98-5.29a.71.71 0 0 0-.107-.567.543.543 0 0 0-.467-.24h-.04c-.26.036-.465.269-.495.563a5.531 5.531 0 0 0-.035.565c-.463-.918-1.323-1.487-2.256-1.494-2.169.046-4.042 2.27-4.13 5.51 0 2.175 1.022 3.427 2.781 3.427 1.052-.026 2.027-.628 2.616-1.615 0 0-.04 1.38 1.443 1.475z"/><path id="2y4bx" d="M474.095 754.007c-1.19 0-1.902-1.004-1.902-2.608 0-2.76 1.64-4.515 3.19-4.515 1.374 0 1.902 1.053 1.95 2.458-.005 2.256-1.291 4.665-3.24 4.665zm4.208 1.052c3.632 0 5.315-2.207 5.315-5.165 0-5.166-3.677-8.883-8.24-8.883-4.575 0-8.285 4.2-8.285 9.38 0 5.182 3.71 9.382 8.285 9.382 1.685-.017 3.324-.624 4.69-1.74a.724.724 0 0 0 .258-.465.5.5 0 0 0-.129-.433.48.48 0 0 0-.397-.135.512.512 0 0 0-.359.237c-.302.447-1.203 1.209-3.865 1.276-1.935.056-3.809-.768-5.202-2.29-1.393-1.52-2.188-3.61-2.209-5.802-.014-4.527 3.272-8.102 7.223-8.153 3.951-.051 7.132 3.109 7.132 7.537 0 2.81-1.728 4.113-3.804 4.062-.665.051-.796-.25-.713-1.306.074-.864.804-4.47 1.063-5.73a.768.768 0 0 0-.121-.606.588.588 0 0 0-.5-.256h-.045c-.283.038-.505.291-.537.611a6.01 6.01 0 0 0-.038.611c-.495-1.003-1.423-1.633-2.437-1.655-2.349.05-4.387 2.457-4.474 5.97 0 2.358 1.108 3.712 3.012 3.712 1.14-.029 2.198-.683 2.836-1.755 0 0-.055 1.497 1.54 1.596z"/><path id="2y4bz" d="M474.192 753.727c-1.103 0-1.76-.926-1.76-2.407 0-2.546 1.513-4.167 2.944-4.167 1.267 0 1.76.972 1.8 2.27.002 2.083-1.184 4.304-2.984 4.304zm3.885.972c3.352 0 4.907-2.038 4.907-4.77 0-4.77-3.395-8.194-7.608-8.194-4.223 0-7.647 3.876-7.647 8.658s3.424 8.658 7.647 8.658c1.556-.018 3.068-.582 4.33-1.615a.669.669 0 0 0 .237-.428.463.463 0 0 0-.117-.398.44.44 0 0 0-.368-.128.469.469 0 0 0-.33.222c-.279.414-1.11 1.114-3.567 1.179-1.788.057-3.52-.703-4.808-2.108-1.288-1.406-2.022-3.34-2.036-5.364-.012-4.178 3.02-7.478 6.657-7.538 3.637-.059 6.58 2.891 6.58 6.964 0 2.592-1.595 3.796-3.516 3.75-.613.046-.737-.232-.654-1.203.067-.808.742-4.127.98-5.29a.71.71 0 0 0-.107-.567.543.543 0 0 0-.466-.24h-.04c-.26.035-.465.268-.495.562a5.493 5.493 0 0 0-.036.566c-.453-.93-1.311-1.513-2.249-1.53-2.168.046-4.041 2.27-4.13 5.51 0 2.176 1.023 3.427 2.782 3.427 1.052-.026 2.026-.628 2.615-1.615 0 0-.033 1.4 1.439 1.492z"/><path id="2y4bA" d="M461.492 726.94c-.79 0-1.256-.661-1.256-1.72 0-1.819 1.082-2.976 2.104-2.976.906 0 1.256.694 1.287 1.615-.003 1.494-.85 3.082-2.135 3.082zm2.774.695c2.394 0 3.504-1.456 3.504-3.405 0-3.405-2.424-5.855-5.432-5.855-2.918.154-5.213 2.878-5.213 6.185 0 3.307 2.295 6.03 5.213 6.184 1.11-.011 2.19-.412 3.09-1.146a.477.477 0 0 0 .17-.307.33.33 0 0 0-.084-.286.316.316 0 0 0-.262-.09.337.337 0 0 0-.237.158c-.197.296-.792.807-2.549.842-2.612.04-4.76-2.325-4.795-5.284-.035-2.958 2.054-5.389 4.667-5.43 2.599-.031 4.703 2.052 4.703 4.962 0 1.852-1.14 2.71-2.513 2.692-.438.032-.526-.165-.476-.86.048-.57.53-2.947.7-3.768.029-.14 0-.287-.08-.398a.389.389 0 0 0-.33-.17h-.028c-.186.025-.333.191-.355.402a3.981 3.981 0 0 0-.023.403c-.326-.662-.938-1.077-1.607-1.09-1.548.032-2.891 1.615-2.95 3.936 0 1.553.73 2.446 1.984 2.446.752-.019 1.45-.45 1.87-1.157 0 0-.018.969 1.033 1.036z"/><path id="2y4bB" d="M415.423 737.275c-.79 0-1.256-.662-1.256-1.72 0-1.82 1.082-2.978 2.104-2.978.906 0 1.256.695 1.287 1.616-.003 1.494-.85 3.082-2.135 3.082zm2.774.694c2.394 0 3.504-1.456 3.504-3.405 0-3.405-2.425-5.855-5.432-5.855-2.918.154-5.213 2.878-5.213 6.185 0 3.307 2.295 6.03 5.213 6.184 1.11-.011 2.19-.412 3.09-1.147a.477.477 0 0 0 .17-.306.329.329 0 0 0-.084-.286.315.315 0 0 0-.499.068c-.197.296-.792.807-2.549.842-2.613.04-4.76-2.325-4.795-5.284-.035-2.958 2.054-5.39 4.667-5.43 2.599-.032 4.703 2.052 4.703 4.962 0 1.852-1.14 2.71-2.513 2.692-.438.032-.526-.165-.476-.86.048-.57.53-2.947.7-3.768.029-.14 0-.287-.081-.399a.389.389 0 0 0-.329-.169h-.028c-.186.025-.333.191-.355.401a3.966 3.966 0 0 0-.023.404c-.326-.662-.938-1.077-1.607-1.09-1.548.032-2.891 1.615-2.95 3.935 0 1.554.73 2.447 1.984 2.447.752-.019 1.45-.45 1.869-1.157 0 0-.017.969 1.034 1.036z"/><path id="2y4bC" d="M409.774 691.264c-.79 0-1.255-.663-1.255-1.72 0-1.82 1.081-2.978 2.104-2.978.905 0 1.255.695 1.286 1.615-.003 1.494-.851 3.083-2.135 3.083zm2.774.694c2.394 0 3.505-1.456 3.505-3.405 0-3.405-2.425-5.855-5.433-5.855-2.917.154-5.213 2.878-5.213 6.185 0 3.307 2.296 6.03 5.213 6.184 1.11-.011 2.19-.412 3.09-1.147a.477.477 0 0 0 .17-.307.33.33 0 0 0-.083-.285.316.316 0 0 0-.263-.09.337.337 0 0 0-.237.157c-.197.297-.791.808-2.548.843-2.613.04-4.76-2.326-4.796-5.284-.035-2.958 2.054-5.39 4.667-5.43 2.599-.032 4.703 2.052 4.703 4.962 0 1.852-1.139 2.71-2.513 2.691-.438.033-.526-.164-.476-.858.048-.57.53-2.948.7-3.769.03-.14 0-.287-.08-.399a.389.389 0 0 0-.33-.169h-.028c-.186.025-.332.19-.354.401a3.943 3.943 0 0 0-.024.404c-.326-.662-.938-1.077-1.607-1.09-1.548.032-2.891 1.615-2.95 3.935 0 1.554.73 2.447 1.985 2.447.752-.02 1.448-.45 1.868-1.157 0 0-.016.969 1.034 1.036z"/><path id="2y4bD" d="M501.052 692.739c-.79 0-1.255-.663-1.255-1.72 0-1.82 1.081-2.978 2.104-2.978.905 0 1.255.695 1.286 1.616-.012 1.496-.861 3.082-2.145 3.082zm2.774.694c2.394 0 3.504-1.456 3.504-3.405 0-3.405-2.424-5.855-5.432-5.855-2.918.154-5.213 2.878-5.213 6.185 0 3.307 2.295 6.03 5.213 6.184 1.11-.011 2.19-.412 3.09-1.147a.478.478 0 0 0 .17-.306.33.33 0 0 0-.084-.286.316.316 0 0 0-.262-.09.337.337 0 0 0-.237.158c-.197.296-.792.807-2.549.842-2.612.04-4.76-2.326-4.795-5.284-.035-2.958 2.054-5.39 4.667-5.43 2.599-.032 4.703 2.052 4.703 4.962 0 1.852-1.14 2.71-2.513 2.692-.438.032-.526-.165-.476-.86.048-.57.53-2.947.7-3.768.029-.14 0-.287-.08-.398a.388.388 0 0 0-.33-.17h-.028c-.186.025-.333.191-.354.401a3.943 3.943 0 0 0-.024.404c-.326-.662-.938-1.077-1.607-1.09-1.548.032-2.891 1.615-2.95 3.935 0 1.554.73 2.447 1.984 2.447.752-.019 1.45-.45 1.87-1.157 0 0-.027.972 1.033 1.036z"/><path id="2y4bE" d="M415.577 705.226c-.442 0-.713-.371-.713-.964 0-1.017.606-1.666 1.189-1.666.506 0 .713.388.713.907.007.832-.469 1.723-1.187 1.723zm1.555.388c1.34 0 1.964-.808 1.964-1.909 0-1.908-1.358-3.279-3.043-3.279-1.656.053-2.975 1.588-2.975 3.463 0 1.876 1.319 3.411 2.975 3.464a2.779 2.779 0 0 0 1.73-.641.276.276 0 0 0 .096-.172.183.183 0 0 0-.048-.16.178.178 0 0 0-.148-.05.19.19 0 0 0-.133.088c-.111.165-.444.447-1.426.472-.963.043-1.871-.508-2.372-1.44-.5-.934-.514-2.1-.036-3.048.478-.948 1.373-1.527 2.337-1.512 1.455-.02 2.634 1.149 2.634 2.777 0 1.037-.637 1.519-1.408 1.5-.237.019-.294-.092-.261-.482.026-.32.297-1.65.392-2.116a.295.295 0 0 0-.052-.222.227.227 0 0 0-.186-.095h-.016c-.103.018-.182.11-.198.226-.008.075-.013.15-.014.226-.182-.37-.524-.603-.899-.611-.867.019-1.618.907-1.652 2.204 0 .87.41 1.37 1.113 1.37.42-.01.81-.253 1.046-.648 0 .168.064.329.174.442.11.113.258.168.406.153z"/><path id="2y4bF" d="M431.223 719.743c-.442 0-.713-.372-.713-.964 0-1.017.606-1.666 1.188-1.666.507 0 .714.388.714.907.007.832-.466 1.72-1.187 1.72zm1.555.388c1.34 0 1.963-.808 1.963-1.909 0-1.908-1.357-3.279-3.043-3.279-1.656.053-2.974 1.588-2.974 3.463 0 1.876 1.318 3.411 2.974 3.463a2.78 2.78 0 0 0 1.731-.64.276.276 0 0 0 .095-.173.183.183 0 0 0-.047-.158.178.178 0 0 0-.148-.05.19.19 0 0 0-.133.087c-.112.165-.445.447-1.426.471-.964.044-1.872-.507-2.372-1.44-.5-.933-.515-2.1-.037-3.047.479-.948 1.374-1.527 2.337-1.513 1.455-.018 2.635 1.15 2.635 2.778 0 1.037-.638 1.518-1.408 1.5-.238.018-.295-.092-.261-.482.026-.32.297-1.65.392-2.116a.296.296 0 0 0-.053-.223.227.227 0 0 0-.185-.095h-.017c-.102.02-.182.11-.197.227-.008.074-.013.15-.014.226-.182-.37-.524-.604-.899-.611-.868.018-1.619.907-1.652 2.204 0 .87.409 1.37 1.113 1.37.42-.011.81-.253 1.046-.648 0 .168.063.329.174.442.11.113.257.168.406.153z"/><path id="2y4bG" d="M477.943 702.02c-.442 0-.713-.371-.713-.964 0-1.017.606-1.666 1.189-1.666.506 0 .713.388.713.907.007.84-.466 1.728-1.186 1.728zm1.555.388c1.341 0 1.964-.808 1.964-1.909 0-1.908-1.357-3.278-3.043-3.278-1.656.052-2.975 1.587-2.975 3.463 0 1.875 1.319 3.41 2.975 3.463a2.78 2.78 0 0 0 1.73-.641.276.276 0 0 0 .096-.172.183.183 0 0 0-.048-.16.178.178 0 0 0-.147-.05.19.19 0 0 0-.133.089c-.112.164-.445.446-1.427.47-.963.044-1.871-.507-2.372-1.44-.5-.933-.514-2.1-.036-3.047.478-.948 1.373-1.527 2.337-1.512 1.455-.02 2.634 1.149 2.634 2.778 0 1.036-.637 1.518-1.407 1.499-.238.019-.295-.092-.262-.482.026-.32.297-1.65.392-2.116a.295.295 0 0 0-.052-.222.227.227 0 0 0-.185-.095h-.017c-.102.018-.182.11-.197.226-.009.075-.014.15-.015.226-.182-.37-.524-.603-.898-.611-.868.019-1.62.907-1.652 2.204 0 .87.408 1.37 1.112 1.37.421-.01.811-.253 1.046-.648 0 .168.064.329.174.442.11.113.258.169.406.153z"/><path id="2y4bH" d="M446.436 686.774c-.442 0-.713-.372-.713-.964 0-1.018.606-1.666 1.188-1.666.507 0 .714.387.714.907.004.832-.469 1.72-1.19 1.72zm1.555.387c1.34 0 1.963-.807 1.963-1.908 0-1.909-1.357-3.279-3.043-3.279-1.656.052-2.974 1.587-2.974 3.463 0 1.876 1.318 3.41 2.974 3.463a2.779 2.779 0 0 0 1.731-.64.276.276 0 0 0 .095-.173.183.183 0 0 0-.047-.159.177.177 0 0 0-.28.038c-.113.164-.446.447-1.427.471-.964.044-1.872-.508-2.372-1.44-.5-.933-.515-2.1-.037-3.048.479-.947 1.373-1.526 2.337-1.512 1.455-.019 2.634 1.15 2.634 2.778 0 1.036-.637 1.518-1.407 1.5-.238.018-.295-.092-.262-.482.027-.32.298-1.65.393-2.116a.295.295 0 0 0-.053-.223.227.227 0 0 0-.185-.095h-.017c-.102.019-.182.11-.197.226-.009.075-.013.15-.014.226-.182-.37-.524-.603-.899-.61-.868.018-1.619.906-1.652 2.204 0 .87.409 1.37 1.112 1.37.421-.011.811-.253 1.046-.649.001.169.064.33.175.443.11.113.257.168.406.152z"/><path id="2y4bI" d="M461.492 674.779c-.79 0-1.255-.662-1.255-1.72 0-1.82 1.081-2.977 2.104-2.977.905 0 1.255.694 1.286 1.615-.003 1.494-.849 3.082-2.135 3.082zm2.774.694c2.394 0 3.505-1.456 3.505-3.405 0-3.405-2.425-5.854-5.433-5.854-2.917.154-5.213 2.877-5.213 6.184 0 3.307 2.296 6.03 5.213 6.184 1.11-.01 2.19-.412 3.09-1.146a.477.477 0 0 0 .17-.307.329.329 0 0 0-.084-.285.316.316 0 0 0-.262-.09.337.337 0 0 0-.237.157c-.197.296-.791.807-2.548.842-2.613.04-4.76-2.325-4.796-5.284-.035-2.958 2.054-5.389 4.667-5.429 2.599-.032 4.703 2.051 4.703 4.961 0 1.852-1.139 2.71-2.513 2.692-.438.032-.525-.164-.476-.859.048-.57.53-2.947.7-3.768.03-.14 0-.288-.08-.4a.388.388 0 0 0-.33-.168h-.028c-.186.024-.332.19-.354.4a3.979 3.979 0 0 0-.024.404c-.326-.661-.938-1.077-1.607-1.09-1.548.033-2.891 1.615-2.95 3.936 0 1.553.73 2.447 1.985 2.447.752-.02 1.448-.451 1.868-1.158 0 0-.016.97 1.034 1.036z"/><path id="2y4bJ" d="M495.577 728.968c-2.44 0-3.885-2.046-3.885-5.32 0-5.625 3.343-9.205 6.505-9.205 2.8 0 3.884 2.153 3.974 5.012-.009 4.606-2.624 9.518-6.597 9.518zm8.582 2.153c7.408 0 10.84-4.5 10.84-10.536 0-10.535-7.497-18.107-16.805-18.107-9.307 0-16.806 8.592-16.806 19.13 0 10.539 7.499 19.13 16.806 19.13 3.435-.033 6.777-1.271 9.564-3.544a1.48 1.48 0 0 0 .523-.948 1.022 1.022 0 0 0-.259-.88.979.979 0 0 0-.811-.277c-.293.04-.558.215-.732.484-.613.913-2.45 2.463-7.883 2.603-8.221.21-15.099-7.2-15.125-16.509-.026-9.232 6.67-16.524 14.728-16.627 8.057-.102 14.547 6.342 14.547 15.343 0 5.729-3.523 8.388-7.77 8.286-1.354.102-1.625-.512-1.445-2.66.148-1.763 1.638-9.117 2.166-11.69a1.57 1.57 0 0 0-.247-1.234c-.248-.345-.625-.539-1.018-.524h-.09c-.574.08-1.026.593-1.094 1.244-.046.413-.071.83-.076 1.246-.813-1.841-2.71-3.273-4.968-3.376-4.788.103-8.944 5.013-9.125 12.173 0 4.807 2.259 7.57 6.143 7.57 2.71 0 4.698-1.842 5.782-3.58-.01.01-.1 3.079 3.155 3.283z"/><path id="2y4bL" d="M495.667 728.712c-2.354 0-3.747-1.973-3.747-5.13 0-5.427 3.224-8.884 6.276-8.884 2.701 0 3.747 2.073 3.835 4.846-.002 4.43-2.53 9.168-6.364 9.168zm8.28 2.073c7.147 0 10.46-4.342 10.46-10.165 0-10.164-7.233-17.467-16.21-17.467-8.978 0-16.212 8.288-16.212 18.453 0 10.164 7.234 18.452 16.211 18.452 3.313-.033 6.536-1.227 9.225-3.419.27-.216.451-.546.504-.915a.985.985 0 0 0-.25-.85.944.944 0 0 0-.782-.268 1.006 1.006 0 0 0-.706.467c-.592.88-2.366 2.377-7.608 2.511-7.93.205-14.564-6.945-14.59-15.925-.026-8.907 6.433-15.94 14.207-16.04 7.775-.1 14.027 6.118 14.027 14.805 0 5.526-3.4 8.091-7.496 7.992-1.307.1-1.569-.493-1.395-2.565.142-1.702 1.578-8.795 2.087-11.276.089-.417 0-.857-.24-1.19-.239-.331-.601-.518-.98-.504h-.088c-.554.076-.99.572-1.055 1.201-.045.4-.07.8-.074 1.203-.784-1.776-2.615-3.157-4.793-3.257-4.619.1-8.627 4.845-8.796 11.745 0 4.637 2.178 7.302 5.927 7.302 2.615 0 4.531-1.776 5.577-3.453 0 .005-.088 2.964 3.05 3.163z"/><path id="2y4bM" d="M378.62 675.759c.207-1.139 1.534-1.564 2.511-1.206.977.358 1.735 1.217 2.615 1.83.88.614 2.059.97 2.886.27.794-.657.906-1.96 1.534-2.814.627-.853 1.792-1.154 2.798-.963 1.006.191 1.918.77 2.808 1.346l5.449 3.48"/><path id="2y4bN" d="M376.719 682.488c.206-1.138 1.533-1.564 2.51-1.206.977.358 1.736 1.217 2.615 1.83.88.615 2.06.97 2.886.27.795-.657.906-1.96 1.534-2.813.627-.853 1.792-1.155 2.798-.964 1.006.191 1.919.77 2.808 1.346l5.449 3.48"/><path id="2y4bO" d="M378.62 739.016c.207 1.139 1.534 1.564 2.511 1.206.977-.358 1.735-1.217 2.615-1.83.88-.614 2.059-.97 2.886-.27.794.657.906 1.96 1.534 2.814.627.853 1.792 1.154 2.798.963 1.006-.19 1.918-.77 2.808-1.346l5.449-3.48"/><path id="2y4bP" d="M376.719 732.287c.206 1.138 1.533 1.564 2.51 1.206.977-.358 1.736-1.217 2.615-1.83.88-.614 2.06-.97 2.886-.27.795.657.906 1.96 1.534 2.813.627.853 1.792 1.155 2.798.964 1.006-.191 1.919-.77 2.808-1.346l5.449-3.48"/><path id="2y4bQ" d="M323.47 721.116l-1.57.105-.42-1.379 2.14 1.236zm6.894 11.515a1.497 1.497 0 0 0-.582.657l-.3-.385c-.043-.417-.95-9.023-2.76-9.071-1.386-.038-2.886-.17-3.892.269l-.052-.167-.538-1.71 1.427-.573-.021-.067 1.126-.452c.162-.27-.19-.256-.563-.189a.424.424 0 0 0 .019-.075l.654-4.388s.173-.939-.21-1.2c-.382-.261-.356 1.2-.356 1.2l-.713 3.013s-2.05-1.163-3.276-1.659a1.622 1.622 0 0 0-.45-.161c-.216-.062-.368-.078-.425-.027a1.586 1.586 0 0 0-.476.11l-.119.049-.064-.207-.021-.068c.475-.416.76-1.05.78-1.73.139-.772-.043-1.573-.492-2.173a.136.136 0 0 0 .042-.04.243.243 0 0 0 0-.218c-.193-.475-.58-.812-1.036-.9a1.35 1.35 0 0 1-.528-.131c-.136-.089-.238-.25-.378-.307a.547.547 0 0 0-.516.156 2.083 2.083 0 0 0-.435.49c-.116.229-.26.438-.428.622-.13.115-.292.177-.425.29a.974.974 0 0 0-.324.749c.006.153.037.304.093.444-.037.208-.05.42-.04.632l-.027.035.026-.03c.047.977.58 1.839 1.375 2.222.339.248.737.376 1.14.366l.022.067.083.27a2.51 2.51 0 0 0-.62.629l-.04.06c-.167.268-.714 1.168-.476 1.822 0 .025.008.05.024.078.02.208.061.413.123.61l1.346 4.291.05.157.119.38c.167.533.487.987.91 1.288.837.095 2.634.717 2.808.636l2.237.893-1.189 6.192s-.665 1.173.129 1.157c.778-.07 1.55-.205 2.31-.401 0 0 .091-.565-.299-.635-.28-.023-.559.05-.801.21l-.067-.426s3.355-6.638 1.843-7.843c-.29-.232-.583-.472-.875-.706l.785-.226 2.486 7.303.02-.016c0 .161.037 1.378.66.92a17.012 17.012 0 0 0 1.774-1.722s-.236-.536-.597-.364z"/><path id="2y4bS" d="M316.685 713.102c1.153-.467 2.419.214 2.826 1.523.408 1.308-.197 2.748-1.35 3.216-1.154.468-2.42-.214-2.827-1.523-.408-1.308.197-2.748 1.35-3.216z"/><path id="2y4bT" d="M321.496 719.929l2.192 1.273a.296.296 0 0 0 .298.001.373.373 0 0 0 .178-.27l.644-4.294h-.554l-.713 2.945s-3.947-1.992-4.28-1.68c-.332.313 2.235 2.025 2.235 2.025z"/><path id="2y4bU" d="M318.684 718.03c1.085-.436 2.277.206 2.663 1.435l1.402 4.467-4.633 1.863-1.151-3.667c-.524-1.67.246-3.503 1.72-4.097z"/><path id="2y4bV" d="M323.648 726.782l-2.114.85c-1.391.561-2.921-.262-3.416-1.838l4.634-1.852z"/><path id="2y4bW" d="M317.186 721.293l3.305 1.664 3.128-1.26-.145-.46-2.971.199-2.63-1.82c-.418-.29-.499.307-.67.827-.155.479-.428.643-.017.85z"/><path id="2y4bX" d="M317.13 721.207l3.34 1.683 3.128-1.26-.145-.46-2.972.199-2.594-1.796c-.446-.31-.52.304-.687.867-.126.447-.449.579-.07.767z"/><path id="2y4bY" d="M323.453 721.172s1.548-.473 1.246.016l-1.101.445z"/><path id="2y4bZ" d="M324.25 716.642s-.024-1.43.349-1.174.204 1.174.204 1.174z"/><path id="2y4baa" d="M318.118 725.794l.048.154 4.638-1.855-.052-.164z"/><path id="2y4bab" d="M322.668 727.38l3.22-.932 2.432 7.139.986-.862s-.894-8.837-2.7-8.883c-1.807-.045-3.804-.269-4.608.891-.804 1.16.67 2.647.67 2.647z"/><path id="2y4bac" d="M322.17 725.086s2.018.296 2.598 1.32"/><path id="2y4bad" d="M320.973 727.82l3.122 1.253-1.17 6.048 1.244-.094s3.28-6.49 1.802-7.67c-1.48-1.178-3.041-2.618-4.268-2.152-1.227.465-.73 2.616-.73 2.616z"/><path id="2y4bae" d="M322.521 719.035l.98.937.042-.388z"/><path id="2y4baf" d="M322.937 735.121s-.651 1.15.126 1.13c.76-.068 1.515-.198 2.259-.39 0 0 .088-.551-.293-.621a1.236 1.236 0 0 0-.784.204l-.067-.417z"/><path id="2y4bag" d="M328.343 733.552s0 1.397.647.918a16.651 16.651 0 0 0 1.733-1.685s-.183-.522-.54-.353a1.464 1.464 0 0 0-.57.643l-.295-.376z"/><path id="2y4bah" d="M317.974 717.022c.32-.13.673.062.787.427l.201.649c.114.365-.053.767-.374.898-.32.13-.673-.062-.787-.428l-.202-.648c-.114-.366.054-.768.375-.898z"/><path id="2y4bai" d="M317.997 717.089c-.32.129-.486.526-.373.888l.069.223a1.83 1.83 0 0 0 1.157-.465l-.069-.224c-.114-.36-.464-.55-.784-.422z"/><path id="2y4baj" d="M316.967 713.801c1.026-.416 2.151.19 2.514 1.354.362 1.164-.176 2.444-1.202 2.86-1.026.416-2.151-.19-2.514-1.354-.362-1.163.176-2.444 1.202-2.86z"/><path id="2y4bak" d="M315.74 716.558c.33-.06.573-.376.58-.753.074-.703.174-1.11 1.358-1.187 1.184-.078 1.412-.124 1.358-.477-.036-.242-.592-.64-.94-.87a.652.652 0 0 0-.603-.045l-1.208.487-.606.67-.38.765.114.778z"/><path id="2y4bal" d="M315.722 716.494c.328-.06.573-.377.58-.754.073-.702.173-1.109 1.357-1.187 1.184-.078 1.412-.124 1.358-.476-.036-.243-.592-.641-.94-.87a.652.652 0 0 0-.603-.046l-1.21.488-.607.67-.38.764.114.778z"/><path id="2y4bam" d="M315.773 715.988c.104-.043.248.114.322.35.073.236.048.462-.056.504-.105.042-.249-.115-.322-.35-.074-.236-.049-.462.056-.504z"/><path id="2y4ban" d="M315.43 715.371a1.946 1.946 0 0 1-.267-.823.951.951 0 0 1 .316-.73c.131-.11.288-.172.416-.285.164-.18.305-.385.419-.608.118-.185.262-.346.425-.48a.535.535 0 0 1 .507-.15c.145.056.237.212.37.301.164.077.34.12.516.127.445.086.824.414 1.013.877a.237.237 0 0 1 0 .213.195.195 0 0 1-.1.064c-.744.286-1.49.574-2.251.792-.242.06-.48.138-.713.234-.351.159-.664.41-.913.732"/><linearGradient id="2y4bb" x1="332.66" x2="332.66" y1="746.55" y2="668.22" gradientUnits="userSpaceOnUse"><stop offset="0" stop-color="gray" stop-opacity=".25"/><stop offset=".54" stop-color="gray" stop-opacity=".12"/><stop offset="1" stop-color="gray" stop-opacity=".1"/></linearGradient><linearGradient id="2y4bg" x1="431.7" x2="431.7" y1="690.63" y2="659.57" gradientUnits="userSpaceOnUse"><stop offset="0" stop-color="gray" stop-opacity=".25"/><stop offset=".54" stop-color="gray" stop-opacity=".12"/><stop offset="1" stop-color="gray" stop-opacity=".1"/></linearGradient><linearGradient id="2y4bj" x1="457.78" x2="457.78" y1="660.85" y2="642.61" gradientUnits="userSpaceOnUse"><stop offset="0" stop-color="gray" stop-opacity=".25"/><stop offset=".54" stop-color="gray" stop-opacity=".12"/><stop offset="1" stop-color="gray" stop-opacity=".1"/></linearGradient><linearGradient id="2y4bm" x1="482.99" x2="482.99" y1="680.31" y2="661.54" gradientUnits="userSpaceOnUse"><stop offset="0" stop-color="gray" stop-opacity=".25"/><stop offset=".54" stop-color="gray" stop-opacity=".12"/><stop offset="1" stop-color="gray" stop-opacity=".1"/></linearGradient><linearGradient id="2y4bp" x1="460.38" x2="460.38" y1="707.92" y2="690.03" gradientUnits="userSpaceOnUse"><stop offset="0" stop-color="gray" stop-opacity=".25"/><stop offset=".54" stop-color="gray" stop-opacity=".12"/><stop offset="1" stop-color="gray" stop-opacity=".1"/></linearGradient><linearGradient id="2y4bs" x1="439.3" x2="439.3" y1="715.42" y2="696.8" gradientUnits="userSpaceOnUse"><stop offset="0" stop-color="gray" stop-opacity=".25"/><stop offset=".54" stop-color="gray" stop-opacity=".12"/><stop offset="1" stop-color="gray" stop-opacity=".1"/></linearGradient><linearGradient id="2y4bv" x1="439.3" x2="439.3" y1="744.21" y2="725.59" gradientUnits="userSpaceOnUse"><stop offset="0" stop-color="gray" stop-opacity=".25"/><stop offset=".54" stop-color="gray" stop-opacity=".12"/><stop offset="1" stop-color="gray" stop-opacity=".1"/></linearGradient><linearGradient id="2y4by" x1="475.38" x2="475.38" y1="759.77" y2="741.01" gradientUnits="userSpaceOnUse"><stop offset="0" stop-color="gray" stop-opacity=".25"/><stop offset=".54" stop-color="gray" stop-opacity=".12"/><stop offset="1" stop-color="gray" stop-opacity=".1"/></linearGradient><linearGradient id="2y4bK" x1="498.2" x2="498.2" y1="740.74" y2="702.48" gradientUnits="userSpaceOnUse"><stop offset="0" stop-color="gray" stop-opacity=".25"/><stop offset=".54" stop-color="gray" stop-opacity=".12"/><stop offset="1" stop-color="gray" stop-opacity=".1"/></linearGradient><linearGradient id="2y4bR" x1="323.1" x2="323.1" y1="735.86" y2="709.82" gradientUnits="userSpaceOnUse"><stop offset="0" stop-color="gray" stop-opacity=".25"/><stop offset=".54" stop-color="gray" stop-opacity=".12"/><stop offset="1" stop-color="gray" stop-opacity=".1"/></linearGradient></defs><g><g transform="translate(-292 -642)"><g opacity=".5"><g opacity=".5"><use fill="url(#2y4bb)" xlink:href="#2y4ba"/></g></g><g><use fill="#535461" xlink:href="#2y4bc"/></g><g><use fill="#e0e0e0" xlink:href="#2y4bd"/></g><g><use fill="#e0e0e0" xlink:href="#2y4be"/></g><g opacity=".5"><g opacity=".5"><use fill="url(#2y4bg)" xlink:href="#2y4bf"/></g></g><g><use fill="#6c63ff" xlink:href="#2y4bh"/></g><g opacity=".5"><g opacity=".5"><use fill="url(#2y4bj)" xlink:href="#2y4bi"/></g></g><g><use fill="#6c63ff" xlink:href="#2y4bk"/></g><g opacity=".5"><g opacity=".5"><use fill="url(#2y4bm)" xlink:href="#2y4bl"/></g></g><g><use fill="#6c63ff" xlink:href="#2y4bn"/></g><g opacity=".5"><g opacity=".5"><use fill="url(#2y4bp)" xlink:href="#2y4bo"/></g></g><g><use fill="#6c63ff" xlink:href="#2y4bq"/></g><g opacity=".5"><g opacity=".5"><use fill="url(#2y4bs)" xlink:href="#2y4br"/></g></g><g><use fill="#6c63ff" xlink:href="#2y4bt"/></g><g opacity=".5"><g opacity=".5"><use fill="url(#2y4bv)" xlink:href="#2y4bu"/></g></g><g><use fill="#6c63ff" xlink:href="#2y4bw"/></g><g opacity=".5"><g opacity=".5"><use fill="url(#2y4by)" xlink:href="#2y4bx"/></g></g><g><use fill="#6c63ff" xlink:href="#2y4bz"/></g><g opacity=".5"><use fill="#6c63ff" xlink:href="#2y4bA"/></g><g opacity=".5"><use fill="#6c63ff" xlink:href="#2y4bB"/></g><g opacity=".5"><use fill="#6c63ff" xlink:href="#2y4bC"/></g><g opacity=".5"><use fill="#6c63ff" xlink:href="#2y4bD"/></g><g opacity=".3"><use fill="#6c63ff" xlink:href="#2y4bE"/></g><g opacity=".3"><use fill="#6c63ff" xlink:href="#2y4bF"/></g><g opacity=".3"><use fill="#6c63ff" xlink:href="#2y4bG"/></g><g opacity=".3"><use fill="#6c63ff" xlink:href="#2y4bH"/></g><g opacity=".5"><use fill="#6c63ff" xlink:href="#2y4bI"/></g><g opacity=".5"><g opacity=".5"><use fill="url(#2y4bK)" xlink:href="#2y4bJ"/></g></g><g><use fill="#6c63ff" xlink:href="#2y4bL"/></g><g opacity=".2"><use fill="#fff" fill-opacity="0" stroke="#535461" stroke-miterlimit="50" stroke-width="3" xlink:href="#2y4bM"/></g><g opacity=".2"><use fill="#fff" fill-opacity="0" stroke="#535461" stroke-miterlimit="50" stroke-width="3" xlink:href="#2y4bN"/></g><g opacity=".2"><use fill="#fff" fill-opacity="0" stroke="#535461" stroke-miterlimit="50" stroke-width="3" xlink:href="#2y4bO"/></g><g opacity=".2"><use fill="#fff" fill-opacity="0" stroke="#535461" stroke-miterlimit="50" stroke-width="3" xlink:href="#2y4bP"/></g><g opacity=".7"><g opacity=".7"><use fill="url(#2y4bR)" xlink:href="#2y4bQ"/></g></g><g><use xlink:href="#2y4bS"/></g><g><use fill="#6c63ff" xlink:href="#2y4bT"/></g><g/><g/><g><use fill="#6c63ff" xlink:href="#2y4bU"/></g><g><use fill="#4d8af0" xlink:href="#2y4bV"/></g><g opacity=".05"><use xlink:href="#2y4bW"/></g><g><use fill="#6c63ff" xlink:href="#2y4bX"/></g><g><use fill="#fda57d" xlink:href="#2y4bY"/></g><g><use fill="#fda57d" xlink:href="#2y4bZ"/></g><g opacity=".05"><use xlink:href="#2y4baa"/></g><g><use fill="#4d8af0" xlink:href="#2y4bab"/></g><g opacity=".1"><use xlink:href="#2y4bac"/></g><g><use fill="#4d8af0" xlink:href="#2y4bad"/></g><g opacity=".05"><use xlink:href="#2y4bae"/></g><g><use fill="#333" xlink:href="#2y4baf"/></g><g><use fill="#333" xlink:href="#2y4bag"/></g><g><use fill="#fda57d" xlink:href="#2y4bah"/></g><g opacity=".05"><use xlink:href="#2y4bai"/></g><g><use fill="#fda57d" xlink:href="#2y4baj"/></g><g opacity=".05"><use xlink:href="#2y4bak"/></g><g><use xlink:href="#2y4bal"/></g><g><use fill="#fda57d" xlink:href="#2y4bam"/></g><g><use xlink:href="#2y4ban"/></g></g></g></svg>