<svg xmlns="http://www.w3.org/2000/svg" xmlns:xlink="http://www.w3.org/1999/xlink" width="186" height="159" viewBox="0 0 186 159"><defs><path id="2js7a" d="M1111.851 780.08h-158.98V666.135c0-1.984 1.452-3.593 3.243-3.593h152.494c1.791 0 3.243 1.609 3.243 3.593z"/><path id="2js7c" d="M958.296 664.612h148.12c1.791 0 3.243 1.61 3.243 3.594v111.873H955.061V668.21c0-1.983 1.446-3.592 3.235-3.597z"/><path id="2js7d" d="M960.038 776.46V671.33h144.644v105.13z"/><path id="2js7e" d="M960.592 771.018v-94.584h144.03v94.584z"/><path id="2js7f" d="M960.592 676.434v-5.026h144.03v5.026z"/><path id="2js7g" d="M962.581 673.846c0-.673.493-1.219 1.1-1.219.608 0 1.1.546 1.1 1.22 0 .672-.492 1.218-1.1 1.218-.607 0-1.1-.546-1.1-1.219z"/><path id="2js7h" d="M965.604 673.846c0-.673.493-1.219 1.1-1.219.608 0 1.1.546 1.1 1.22 0 .672-.492 1.218-1.1 1.218-.607 0-1.1-.546-1.1-1.219z"/><path id="2js7i" d="M968.63 673.846c0-.673.492-1.219 1.1-1.219.607 0 1.1.546 1.1 1.22 0 .672-.493 1.218-1.1 1.218-.608 0-1.1-.546-1.1-1.219z"/><path id="2js7j" d="M1116.299 787.635c-8.85.743-160.831.455-166.141 0-6.962-3.719-6.835-18.147-6.835-18.147l69.7-.516.234 4.391h29.826l1.166-3.866h77.24s1.535 13.227-5.19 18.138z"/><path id="2js7l" d="M1120.358 770.65h-75.734c.596.764.735 1.843.355 2.76-.38.918-1.209 1.505-2.12 1.502h-28.914c-.911.003-1.74-.584-2.12-1.502-.38-.917-.241-1.996.355-2.76h-67.818s-.117 12.53 6.76 15.768c5.245.387 155.368.646 164.11 0 6.651-4.274 5.126-15.768 5.126-15.768z"/><path id="2js7m" d="M959.166 773.363c0-.57.417-1.032.932-1.032.514 0 .932.462.932 1.032 0 .57-.418 1.033-.932 1.033-.515 0-.932-.462-.932-1.033z"/><path id="2js7n" d="M961.963 773.363c0-.57.418-1.032.932-1.032.515 0 .932.462.932 1.032 0 .57-.417 1.033-.932 1.033-.514 0-.932-.462-.932-1.033z"/><path id="2js7o" d="M964.759 773.363c0-.57.417-1.032.932-1.032.514 0 .931.462.931 1.032 0 .57-.417 1.033-.931 1.033-.515 0-.932-.462-.932-1.033z"/><path id="2js7p" d="M1029.49 715.12h6.607c15.812 0 28.63 14.205 28.63 31.727v23.064h-63.868v-23.064c0-17.522 12.818-31.727 28.63-31.727z"/><path id="2js7q" d="M1003.666 670.44c0-17.865 13.069-32.346 29.19-32.346 16.12 0 29.19 14.481 29.19 32.345 0 17.864-13.07 32.346-29.19 32.346-16.121 0-29.19-14.482-29.19-32.346z"/><path id="2js7r" d="M1028.558 705.7H1037c3.287 0 5.952 2.953 5.952 6.596v6.427c0 5.57-4.075 10.084-9.1 10.084h-2.154c-5.026 0-9.1-4.515-9.1-10.084v-6.418c0-3.643 2.665-6.596 5.952-6.596z"/><path id="2js7s" d="M1022.598 705.04h20.364v13.032c0 5.57-4.075 10.085-9.1 10.085h-2.164c-5.026 0-9.1-4.515-9.1-10.085z"/><path id="2js7t" d="M1022.635 708.295c6.563 2.717 13.787 2.739 20.364.062v-2.77h-20.364z"/><path id="2js7u" d="M1003.666 677.46c0-17.864 13.069-32.345 29.19-32.345 16.12 0 29.19 14.481 29.19 32.345 0 17.864-13.07 32.345-29.19 32.345-16.121 0-29.19-14.481-29.19-32.345z"/><path id="2js7v" d="M1004.95 666.011h55.66s-4.75-24.906-25.794-23.33c-21.044 1.576-29.867 23.33-29.867 23.33z"/><path id="2js7w" d="M1004.95 665.174h55.66s-4.75-24.906-25.794-23.318c-21.044 1.587-29.867 23.318-29.867 23.318z"/><path id="2js7x" d="M1001.554 676.082c0-3.117 1.216-5.643 2.716-5.643 1.5 0 2.715 2.526 2.715 5.643 0 3.116-1.216 5.642-2.715 5.642-1.5 0-2.716-2.526-2.716-5.642z"/><path id="2js7y" d="M1058.575 676.082c0-3.117 1.215-5.643 2.715-5.643 1.5 0 2.715 2.526 2.715 5.643 0 3.116-1.215 5.642-2.715 5.642-1.5 0-2.715-2.526-2.715-5.642z"/><path id="2js7z" d="M1009.27 648.672c.667-2.416 1.88-4.724 3.751-6.164 1.423-1.094 3.124-1.619 4.756-2.26a34.921 34.921 0 0 0 6.912-3.664c2.475-1.69 4.8-3.726 7.526-4.842 4.69-1.922 9.914-.883 14.755.495 1.193.34 2.4.708 3.45 1.422 1.217.826 2.151 2.067 3.062 3.284l7.685 10.27c.704.94 1.412 1.89 1.908 2.982.464 1.058.76 2.196.875 3.364.205 1.883.045 3.88-.821 5.52-1.3 2.459-3.978 3.693-6.545 3.807-2.568.114-5.088-.712-7.555-1.512-7.955-2.582-16.009-4.988-24.26-6.059a61.803 61.803 0 0 0-12.345-.444c-1.293.094-3 .751-3.787-.71-.679-1.266.282-4.22.632-5.49z"/><path id="2js7A" d="M1013.362 744.798v25.113"/><path id="2js7B" d="M1052.735 744.798v25.113"/><path id="2js7C" d="M1128.05 674.779h-36.627l-12.361 11.421V674.78h-8.24V629.64h57.229z"/><path id="2js7E" d="M1071.597 673.341v-43.164h55.678v43.164z"/><path id="2js7F" d="M1077.867 637.805v-1.283h44.117v1.283z"/><path id="2js7G" d="M1077.867 643.582v-1.283h30.33v1.283z"/><path id="2js7H" d="M1077.867 649.356v-1.282h36.398v1.282z"/><path id="2js7I" d="M1077.867 655.133v-1.283h29.229v1.283z"/><path id="2js7J" d="M1077.867 660.908v-1.283h44.117v1.283z"/><path id="2js7K" d="M1077.867 666.684v-1.282h44.117v1.282z"/><path id="2js7L" d="M1081.122 672.502v11.417l11.332-12.559z"/><linearGradient id="2js7b" x1="1032.36" x2="1032.36" y1="780.08" y2="662.54" gradientUnits="userSpaceOnUse"><stop offset="0" stop-color="gray" stop-opacity=".25"/><stop offset=".54" stop-color="gray" stop-opacity=".12"/><stop offset="1" stop-color="gray" stop-opacity=".1"/></linearGradient><linearGradient id="2js7k" x1="1032.47" x2="1032.47" y1="788.09" y2="768.97" gradientUnits="userSpaceOnUse"><stop offset="0" stop-color="gray" stop-opacity=".25"/><stop offset=".54" stop-color="gray" stop-opacity=".12"/><stop offset="1" stop-color="gray" stop-opacity=".1"/></linearGradient><linearGradient id="2js7D" x1="1099.44" x2="1099.44" y1="686.2" y2="629.64" gradientUnits="userSpaceOnUse"><stop offset="0" stop-color="gray" stop-opacity=".25"/><stop offset=".54" stop-color="gray" stop-opacity=".12"/><stop offset="1" stop-color="gray" stop-opacity=".1"/></linearGradient></defs><g><g transform="translate(-943 -629)"><g opacity=".8"><g opacity=".8"><use fill="url(#2js7b)" xlink:href="#2js7a"/></g></g><g><use fill="#fff" xlink:href="#2js7c"/></g><g><use fill="#f5f5f5" xlink:href="#2js7d"/></g><g opacity=".8"><use fill="#e0e0e0" xlink:href="#2js7e"/></g><g><use fill="#f5f5f5" xlink:href="#2js7f"/></g><g><use fill="#ff5252" xlink:href="#2js7g"/></g><g><use fill="#ff0" xlink:href="#2js7h"/></g><g><use fill="#69f0ae" xlink:href="#2js7i"/></g><g opacity=".8"><g opacity=".8"><use fill="url(#2js7k)" xlink:href="#2js7j"/></g></g><g><use fill="#f5f5f5" xlink:href="#2js7l"/></g><g><use fill="#e0e0e0" xlink:href="#2js7m"/></g><g><use fill="#e0e0e0" xlink:href="#2js7n"/></g><g><use fill="#e0e0e0" xlink:href="#2js7o"/></g><g><use fill="#6c63ff" xlink:href="#2js7p"/></g><g><use fill="#333" xlink:href="#2js7q"/></g><g opacity=".1"><use xlink:href="#2js7r"/></g><g><use fill="#fdb797" xlink:href="#2js7s"/></g><g opacity=".1"><use xlink:href="#2js7t"/></g><g><use fill="#fdb797" xlink:href="#2js7u"/></g><g opacity=".1"><use xlink:href="#2js7v"/></g><g><use fill="#333" xlink:href="#2js7w"/></g><g><use fill="#fdb797" xlink:href="#2js7x"/></g><g><use fill="#fdb797" xlink:href="#2js7y"/></g><g><use fill="#333" xlink:href="#2js7z"/></g><g opacity=".05"><use fill="#fff" fill-opacity="0" stroke="#000" stroke-miterlimit="50" stroke-width="4" xlink:href="#2js7A"/></g><g opacity=".05"><use fill="#fff" fill-opacity="0" stroke="#000" stroke-miterlimit="50" stroke-width="4" xlink:href="#2js7B"/></g><g opacity=".8"><g opacity=".8"><use fill="url(#2js7D)" xlink:href="#2js7C"/></g></g><g><use fill="#fff" xlink:href="#2js7E"/></g><g><use fill="#e0e0e0" xlink:href="#2js7F"/></g><g><use fill="#e0e0e0" xlink:href="#2js7G"/></g><g><use fill="#e0e0e0" xlink:href="#2js7H"/></g><g><use fill="#6c63ff" xlink:href="#2js7I"/></g><g><use fill="#6c63ff" xlink:href="#2js7J"/></g><g><use fill="#e0e0e0" xlink:href="#2js7K"/></g><g><use fill="#fff" xlink:href="#2js7L"/></g></g></g></svg>