<svg xmlns="http://www.w3.org/2000/svg" xmlns:xlink="http://www.w3.org/1999/xlink" width="218" height="159" viewBox="0 0 218 159"><defs><path id="row0a" d="M653.073 746.289c.524-2.255-.304-4.622-2.085-5.956-.459-.331-.971-.584-1.395-.965-.707-.636-1.115-1.572-1.4-2.509-.7-2.244-.92-4.765-2.146-6.792-1.115-1.846-3.29-2.382-5.219-2.57-.702-.067-1.44-.103-2.082.21-1.074.518-1.587 1.874-1.636 3.134-.049 1.26.259 2.502.334 3.76.076 1.258-.133 2.642-1 3.495-.868.853-2.111.953-3.264 1.124a20.474 20.474 0 0 0-4.422 1.175c-1.202.476-2.541 1.313-2.597 2.675-.047 1.115.796 2.006 1.429 2.895 1.183 1.668 1.783 3.85 1.373 5.892-.41 2.041-1.784 3.862-2.022 5.968-.09.535-.02 1.086.198 1.577.192.333.446.62.745.846.742.612 1.56 1.105 2.274 1.77 1.464 1.386 2.258 3.4 2.868 5.386.058.19.112.386.168.577h-1.44c-2.93.017-5.302 2.549-5.321 5.68.013 3.137 2.39 5.677 5.325 5.691h14.378c2.935-.014 5.312-2.554 5.325-5.692-.013-3.137-2.39-5.677-5.325-5.691h-3.941c.931-1.334 1.906-2.587 3.343-3.097 1.438-.51 3.179-.212 4.307-1.284.53-.557.874-1.284.979-2.07a6.532 6.532 0 0 0-.631-4.094c-.446-.864-1.115-1.648-1.26-2.62-.122-.836.16-1.685.544-2.428 1.088-2.113 3.012-3.755 3.596-6.087z"/><path id="row0c" d="M640.777 728.733c-.669-.064-1.371-.098-1.982.2-1.023.496-1.511 1.787-1.56 2.985-.05 1.199.247 2.383.319 3.574.071 1.191-.127 2.516-.954 3.335-.827.82-2.007.908-3.108 1.07a19.504 19.504 0 0 0-4.21 1.124c-1.144.446-2.42 1.249-2.473 2.55-.044 1.062.758 1.906 1.362 2.756 1.128 1.582 1.69 3.666 1.307 5.61-.384 1.945-1.69 3.68-1.926 5.685-.086.51-.02 1.034.19 1.501.183.317.425.591.71.805.707.584 1.496 1.053 2.165 1.687 1.395 1.32 2.149 3.238 2.733 5.13.57 1.859 1.017 3.76 1.337 5.686 1.202-.827 2.755-.815 4.037-1.486 2.73-1.43 3.649-5.575 6.531-6.607 1.364-.476 3.027-.202 4.102-1.222.505-.53.832-1.222.931-1.97a6.221 6.221 0 0 0-.601-3.898c-.43-.824-1.064-1.57-1.2-2.504-.118-.798.154-1.603.518-2.31 1.036-2.014 2.868-3.574 3.428-5.797.5-2.148-.289-4.402-1.984-5.673-.461-.28-.907-.588-1.338-.92-.668-.605-1.054-1.498-1.337-2.382-.669-2.144-.876-4.526-2.044-6.468-1.048-1.773-3.116-2.285-4.953-2.461z"/><path id="row0d" d="M640.757 728.807s2.534 36.31-4.057 42.542"/><path id="row0e" d="M627.066 772.705c0-2.71 2.71-5.42 5.42-5.42h12.993c2.71 0 5.42 2.71 5.42 5.42s-2.71 5.42-5.42 5.42h-12.993c-2.71 0-5.42-2.71-5.42-5.42z"/><path id="row0f" d="M626.814 742.896s6.482-.807 14.398 4.339"/><path id="row0g" d="M641.085 751.568s3.602-6.368 11.337-7.585"/><path id="row0h" d="M627.438 757.665s8.986-1.627 13.114 1.084"/><path id="row0i" d="M640.048 762.463s4.703-2.28 9.995-.429"/><path id="row0j" d="M811.51 768.565v-6.25c1.064-.031 2.06.558 2.6 1.537.54.98.54 2.196 0 3.176s-1.536 1.568-2.6 1.537zm0-8.203v-3.907h-18.279v18.063c0 2.105 1.597 3.812 3.567 3.812h11.145c1.97 0 3.567-1.707 3.567-3.812v-4.002c2.623 0 4.75-2.273 4.75-5.077s-2.127-5.077-4.75-5.077z"/><path id="row0l" d="M810.924 768.46c-1.478 0-2.675-1.28-2.675-2.86 0-1.578 1.197-2.858 2.675-2.858 1.477 0 2.675 1.28 2.675 2.859 0 1.58-1.197 2.861-2.675 2.861zm0-7.488c-2.396 0-4.338 2.075-4.338 4.636 0 2.56 1.942 4.636 4.338 4.636 2.395 0 4.337-2.076 4.337-4.636s-1.942-4.636-4.337-4.636z"/><path id="row0m" d="M794.237 757.408h16.682v17.646c0 1.283-.973 2.323-2.173 2.323h-12.331c-1.2 0-2.174-1.04-2.174-2.323v-17.646z"/><path id="row0n" d="M611.897 785.222v-7.845H828.44v7.845z"/><path id="row0o" d="M754.33 724.883c-2.321-9.003-15.48-15.579-25.379-17.037v-7.905h.031v-.302c7.118-2.83 12.625-9 14.935-16.732a29.51 29.51 0 0 0 1.594-3.674c1.057-.412 1.855-2.272 1.855-4.512a8.384 8.384 0 0 0-.3-2.263c.13-1.14.197-2.287.2-3.436.007-8.117-3.21-15.857-8.85-21.294.083-.46.111-.932.084-1.4-.222-3.7-3.92-6.214-7.385-6.38 1.869-2.266 2.349-5.479 1.233-8.253-2.209 3.44-6.745 3.812-10.648 3.833 1.685-.698 2.452-3.192 1.462-4.815-4.08 5.844-12.037 6.928-16.888 12.053a15.204 15.204 0 0 0-2.625 3.828c-6.39 5.44-10.108 13.696-10.103 22.426a30.92 30.92 0 0 0 .194 3.405 8.367 8.367 0 0 0-.307 2.294c0 2.249.804 4.117 1.87 4.526.45 1.268.986 2.5 1.6 3.686 2.302 7.688 7.765 13.83 14.833 16.677v8.238c-9.938 1.43-23.2 8.06-25.501 17.135-1.986 7.838-4.106 16.438-5.163 21.499 9.044 6.792 28.018 10.778 39.901 10.778 11.3 0 29.765-3.6 38.543-9.783-.927-5.565-3.114-14.554-5.187-22.592z"/><path id="row0q" d="M720.973 755.011c10.9 0 28.713-3.471 37.181-9.437-.916-5.355-3.027-14.025-5.026-21.782-2.546-9.88-18.62-16.73-28.207-16.73h-9.24c-9.618 0-25.712 6.888-28.227 16.81-1.917 7.563-3.96 15.865-4.98 20.74 8.716 6.554 27.028 10.399 38.5 10.399z"/><path id="row0r" d="M694.5 669.906c0-15.294 11.601-27.693 25.911-27.693s25.911 12.399 25.911 27.693c0 15.295-11.6 27.694-25.91 27.694S694.5 685.2 694.5 669.906z"/><path id="row0s" d="M712.048 692.97h16.602v14.195c0 4.9-3.716 8.872-8.301 8.872s-8.301-3.972-8.301-8.872z"/><path id="row0t" d="M714.435 692.313h11.839c1.315 0 2.38 1.139 2.38 2.544v11.65c0 4.9-3.716 8.872-8.3 8.872-4.585 0-8.302-3.972-8.302-8.872v-11.65c0-1.406 1.068-2.545 2.383-2.544z"/><path id="row0u" d="M712.079 699.67a22.455 22.455 0 0 0 16.602.05v-2.18H712.08z"/><path id="row0v" d="M696.616 675.426c0-14.046 10.653-25.432 23.795-25.432 13.142 0 23.796 11.386 23.796 25.432s-10.654 25.433-23.796 25.433-23.795-11.387-23.795-25.433z"/><path id="row0w" d="M703.45 652.29s10.031 21.757 38.318 9.118l-6.576-11.035-11.68-4.48z"/><path id="row0x" d="M703.45 651.971s10.031 21.757 38.318 9.118l-6.576-11.038-11.68-4.479z"/><path id="row0y" d="M703.372 650.501a14.89 14.89 0 0 1 3.408-5.922c4.682-4.946 12.354-5.99 16.29-11.629.946 1.565.224 3.972-1.41 4.644 3.765-.027 8.14-.38 10.271-3.698 1.076 2.676.612 5.775-1.19 7.96 3.344.162 6.91 2.587 7.133 6.153.145 2.383-1.25 4.63-3.078 5.992-1.828 1.363-4.04 1.99-6.217 2.502-6.362 1.5-29.364 7.776-25.207-6.002z"/><path id="row0z" d="M720.373 691.805c-4.63 0-8.381-1.003-8.381-2.239 0-1.237 3.754-2.24 8.381-2.24 4.628 0 8.382 1.004 8.382 2.24 0 1.236-3.752 2.24-8.382 2.24zm23.834-16.157h-.633L731.3 687.322c-11.814-5.92-20.507 0-20.507 0l-12.873-11.198-1.298.174c.167 14.045 10.957 25.284 24.098 25.103 13.14-.181 23.656-11.713 23.487-25.758z"/><path id="row0A" d="M694.391 675.403c0-2.45.991-4.437 2.214-4.437 1.222 0 2.213 1.987 2.213 4.437s-.99 4.436-2.213 4.436-2.214-1.987-2.214-4.436z"/><path id="row0B" d="M741.991 675.403c0-2.45.991-4.437 2.214-4.437 1.222 0 2.213 1.987 2.213 4.437s-.99 4.436-2.213 4.436-2.214-1.987-2.214-4.436z"/><path id="row0C" d="M674.124 735.2c0-7.25 7.25-14.5 14.5-14.5h63.089c7.25 0 14.5 7.25 14.5 14.5v27.675c0 7.25-7.25 14.5-14.5 14.5h-63.089c-7.25 0-14.5-7.25-14.5-14.5z"/><path id="row0E" d="M675.792 748.585c0-13.42 13.42-26.84 26.84-26.84h35.073c13.42 0 26.84 13.42 26.84 26.84v1.95c0 13.42-13.42 26.84-26.84 26.84h-35.073c-13.42 0-26.84-13.42-26.84-26.84z"/><path id="row0F" d="M717.166 749.562c0-1.772 1.344-3.209 3.002-3.209 1.659 0 3.003 1.437 3.003 3.21 0 1.772-1.344 3.209-3.003 3.209-1.658 0-3.002-1.437-3.002-3.21z"/><path id="row0G" d="M621.072 788.432v-3.21h198.19v3.21z"/><path id="row0H" d="M621.072 786.292v-1.07h198.19v1.07z"/><path id="row0I" d="M807.921 757.408v16.49c0 1.92-1.456 3.477-3.252 3.477h1.667c1.797 0 3.253-1.557 3.253-3.476v-16.491z"/><path id="row0J" d="M797.531 744.118c-.28.053-.6.134-.737.4-.223.425.178.904.539 1.192.669.538 1.373 1.067 1.828 1.818.455.75.597 1.798.1 2.52-.648.941-2.196 1.141-2.345 2.3-.096.743.504 1.376 1.115 1.748 1.502.92 3.44 1.165 4.53 2.604.445-.989 1.457-1.56 2.451-1.806.994-.245 2.047-.226 3.065-.39.328-.053.698-.16.845-.477.285-.617-.526-1.358-.247-1.977.223-.477.838-.436 1.295-.625.744-.307 1.05-1.331.84-2.144-.21-.812-.807-1.465-1.435-1.991-1.69-1.43-3.723-2.254-5.78-2.86-.957-.278-2.08-.714-3.072-.76-.948-.05-2.042.27-2.992.448z"/><linearGradient id="row0b" x1="626.16" x2="653.24" y1="753.41" y2="753.41" gradientUnits="userSpaceOnUse"><stop offset="0" stop-color="gray" stop-opacity=".25"/><stop offset=".54" stop-color="gray" stop-opacity=".12"/><stop offset="1" stop-color="gray" stop-opacity=".1"/></linearGradient><linearGradient id="row0k" x1="804.75" x2="804.75" y1="778.33" y2="756.45" gradientUnits="userSpaceOnUse"><stop offset="0" stop-color="gray" stop-opacity=".25"/><stop offset=".54" stop-color="gray" stop-opacity=".12"/><stop offset="1" stop-color="gray" stop-opacity=".1"/></linearGradient><linearGradient id="row0p" x1="720.31" x2="720.31" y1="757.24" y2="630.71" gradientUnits="userSpaceOnUse"><stop offset="0" stop-color="gray" stop-opacity=".25"/><stop offset=".54" stop-color="gray" stop-opacity=".12"/><stop offset="1" stop-color="gray" stop-opacity=".1"/></linearGradient><linearGradient id="row0D" x1="720.16" x2="720.16" y1="777.38" y2="720.7" gradientUnits="userSpaceOnUse"><stop offset="0" stop-color="gray" stop-opacity=".25"/><stop offset=".54" stop-color="gray" stop-opacity=".12"/><stop offset="1" stop-color="gray" stop-opacity=".1"/></linearGradient></defs><g><g transform="translate(-611 -630)"><g opacity=".7"><g opacity=".7"><use fill="url(#row0b)" xlink:href="#row0a"/></g></g><g><use fill="#4db6ac" xlink:href="#row0c"/></g><g opacity=".6"><use fill="#fff" fill-opacity="0" stroke="#535461" stroke-miterlimit="50" xlink:href="#row0d"/></g><g><use fill="#6c63ff" xlink:href="#row0e"/></g><g opacity=".6"><use fill="#fff" fill-opacity="0" stroke="#535461" stroke-miterlimit="50" xlink:href="#row0f"/></g><g opacity=".6"><use fill="#fff" fill-opacity="0" stroke="#535461" stroke-miterlimit="50" xlink:href="#row0g"/></g><g opacity=".6"><use fill="#fff" fill-opacity="0" stroke="#535461" stroke-miterlimit="50" xlink:href="#row0h"/></g><g opacity=".6"><use fill="#fff" fill-opacity="0" stroke="#535461" stroke-miterlimit="50" xlink:href="#row0i"/></g><g opacity=".7"><g opacity=".7"><use fill="url(#row0k)" xlink:href="#row0j"/></g></g><g><use fill="#6c63ff" xlink:href="#row0l"/></g><g opacity=".1"><use xlink:href="#row0l"/></g><g><use fill="#6c63ff" xlink:href="#row0m"/></g><g><use fill="#e0e0e0" xlink:href="#row0n"/></g><g opacity=".7"><g opacity=".7"><use fill="url(#row0p)" xlink:href="#row0o"/></g></g><g><use fill="#6c63ff" xlink:href="#row0q"/></g><g><use fill="#72351c" xlink:href="#row0r"/></g><g opacity=".1"><use xlink:href="#row0s"/></g><g><use fill="#fda57d" xlink:href="#row0t"/></g><g opacity=".1"><use xlink:href="#row0u"/></g><g><use fill="#fda57d" xlink:href="#row0v"/></g><g opacity=".1"><use xlink:href="#row0w"/></g><g><use fill="#72351c" xlink:href="#row0x"/></g><g><use fill="#72351c" xlink:href="#row0y"/></g><g><use fill="#72351c" xlink:href="#row0z"/></g><g><use fill="#fda57d" xlink:href="#row0A"/></g><g><use fill="#fda57d" xlink:href="#row0B"/></g><g opacity=".7"><g opacity=".7"><use fill="url(#row0D)" xlink:href="#row0C"/></g></g><g><use fill="#535461" xlink:href="#row0E"/></g><g><use fill="#fff" xlink:href="#row0F"/></g><g><use fill="#e0e0e0" xlink:href="#row0G"/></g><g opacity=".1"><use xlink:href="#row0H"/></g><g opacity=".1"><use xlink:href="#row0I"/></g><g><use fill="#eee" xlink:href="#row0J"/></g></g></g></svg>