<svg xmlns="http://www.w3.org/2000/svg" xmlns:xlink="http://www.w3.org/1999/xlink" width="930" height="159" viewBox="0 0 930 159"><defs><path id="ucd3a" d="M950.342 1470.776c0-30.651 25.296-55.5 56.5-55.5s56.5 24.849 56.5 55.5c0 30.652-25.296 55.5-56.5 55.5s-56.5-24.848-56.5-55.5z"/><path id="ucd3b" d="M544.342 1468.776c0-30.651 25.296-55.5 56.5-55.5s56.5 24.849 56.5 55.5c0 30.652-25.296 55.5-56.5 55.5s-56.5-24.848-56.5-55.5z"/><path id="ucd3c" d="M795.342 1458.776c0-22.367 17.461-40.5 39-40.5 21.54 0 39 18.133 39 40.5 0 22.368-17.46 40.5-39 40.5-21.539 0-39-18.132-39-40.5z"/><path id="ucd3d" d="M859.342 1442.776c0-30.651 25.296-55.5 56.5-55.5s56.5 24.849 56.5 55.5c0 30.652-25.296 55.5-56.5 55.5s-56.5-24.848-56.5-55.5z"/><path id="ucd3e" d="M938.342 1427.776c0-22.367 17.461-40.5 39-40.5 21.54 0 39 18.133 39 40.5 0 22.368-17.46 40.5-39 40.5-21.539 0-39-18.132-39-40.5z"/><path id="ucd3f" d="M356.82 1467.776c0-41.421 33.578-75 75-75 41.42 0 75 33.579 75 75 0 41.422-33.58 75-75 75-41.422 0-75-33.578-75-75z"/><path id="ucd3g" d="M474.342 1467.776c0-30.651 25.296-55.5 56.5-55.5s56.5 24.849 56.5 55.5c0 30.652-25.296 55.5-56.5 55.5s-56.5-24.848-56.5-55.5z"/><path id="ucd3h" d="M322.851 1402.95c39.683 0 71.852 31.263 71.852 69.826 0 10.683-2.469 20.805-7.048 30.196-11.35 23.289-36.113 39.63-64.804 39.63-39.682 0-71.851-31.262-71.851-69.826 0-38.563 32.169-69.826 71.851-69.826z"/><path id="ucd3i" d="M608.82 1459.776c0-41.42 33.578-75 75-75 41.42 0 75 33.58 75 75 0 41.422-33.58 75-75 75-41.422 0-75-33.578-75-75z"/><path id="ucd3j" d="M707.342 1470.776c0-30.651 25.296-55.5 56.5-55.5s56.5 24.849 56.5 55.5c0 30.652-25.296 55.5-56.5 55.5s-56.5-24.848-56.5-55.5z"/><path id="ucd3k" d="M1108.851 1402.95c39.683 0 71.852 31.263 71.852 69.826 0 10.683-2.469 20.805-7.048 30.196-11.35 23.289-36.113 39.63-64.804 39.63-39.682 0-71.851-31.262-71.851-69.826 0-38.563 32.169-69.826 71.851-69.826z"/><clipPath id="ucd3l"><use fill="#fff" xlink:href="#ucd3a"/></clipPath><clipPath id="ucd3m"><use fill="#fff" xlink:href="#ucd3b"/></clipPath><clipPath id="ucd3n"><use fill="#fff" xlink:href="#ucd3c"/></clipPath><clipPath id="ucd3o"><use fill="#fff" xlink:href="#ucd3d"/></clipPath><clipPath id="ucd3p"><use fill="#fff" xlink:href="#ucd3e"/></clipPath><clipPath id="ucd3q"><use fill="#fff" xlink:href="#ucd3d"/></clipPath><clipPath id="ucd3r"><use fill="#fff" xlink:href="#ucd3f"/></clipPath><clipPath id="ucd3s"><use fill="#fff" xlink:href="#ucd3g"/></clipPath><clipPath id="ucd3t"><use fill="#fff" xlink:href="#ucd3h"/></clipPath><clipPath id="ucd3u"><use fill="#fff" xlink:href="#ucd3i"/></clipPath><clipPath id="ucd3v"><use fill="#fff" xlink:href="#ucd3j"/></clipPath><clipPath id="ucd3w"><use fill="#fff" xlink:href="#ucd3k"/></clipPath></defs><g><g transform="translate(-251 -1384)"><use fill="#52267d" xlink:href="#ucd3a"/><use fill="#fff" fill-opacity="0" stroke="#52267d" stroke-miterlimit="50" stroke-width="20" clip-path="url(&quot;#ucd3l&quot;)" xlink:href="#ucd3a"/></g><g transform="translate(-251 -1384)"><use fill="#52267d" xlink:href="#ucd3b"/><use fill="#fff" fill-opacity="0" stroke="#52267d" stroke-miterlimit="50" stroke-width="20" clip-path="url(&quot;#ucd3m&quot;)" xlink:href="#ucd3b"/></g><g transform="translate(-251 -1384)"><use fill="#52267d" xlink:href="#ucd3c"/><use fill="#fff" fill-opacity="0" stroke="#52267d" stroke-miterlimit="50" stroke-width="20" clip-path="url(&quot;#ucd3n&quot;)" xlink:href="#ucd3c"/></g><g transform="translate(-251 -1384)"><use fill="#52267d" xlink:href="#ucd3d"/><use fill="#fff" fill-opacity="0" stroke="#52267d" stroke-miterlimit="50" stroke-width="20" clip-path="url(&quot;#ucd3o&quot;)" xlink:href="#ucd3d"/></g><g transform="translate(-251 -1384)"><use fill="#52267d" xlink:href="#ucd3e"/><use fill="#fff" fill-opacity="0" stroke="#52267d" stroke-miterlimit="50" stroke-width="20" clip-path="url(&quot;#ucd3p&quot;)" xlink:href="#ucd3e"/></g><g transform="translate(-251 -1384)"><use fill="#52267d" xlink:href="#ucd3d"/><use fill="#fff" fill-opacity="0" stroke="#52267d" stroke-miterlimit="50" stroke-width="20" clip-path="url(&quot;#ucd3q&quot;)" xlink:href="#ucd3d"/></g><g transform="translate(-251 -1384)"><use fill="#52267d" xlink:href="#ucd3f"/><use fill="#fff" fill-opacity="0" stroke="#52267d" stroke-miterlimit="50" stroke-width="20" clip-path="url(&quot;#ucd3r&quot;)" xlink:href="#ucd3f"/></g><g transform="translate(-251 -1384)"><use fill="#52267d" xlink:href="#ucd3g"/><use fill="#fff" fill-opacity="0" stroke="#52267d" stroke-miterlimit="50" stroke-width="20" clip-path="url(&quot;#ucd3s&quot;)" xlink:href="#ucd3g"/></g><g transform="translate(-251 -1384)"><use fill="#52267d" xlink:href="#ucd3h"/><use fill="#fff" fill-opacity="0" stroke="#52267d" stroke-miterlimit="50" stroke-width="20" clip-path="url(&quot;#ucd3t&quot;)" xlink:href="#ucd3h"/></g><g transform="translate(-251 -1384)"><use fill="#52267d" xlink:href="#ucd3i"/><use fill="#fff" fill-opacity="0" stroke="#52267d" stroke-miterlimit="50" stroke-width="20" clip-path="url(&quot;#ucd3u&quot;)" xlink:href="#ucd3i"/></g><g transform="translate(-251 -1384)"><use fill="#52267d" xlink:href="#ucd3j"/><use fill="#fff" fill-opacity="0" stroke="#52267d" stroke-miterlimit="50" stroke-width="20" clip-path="url(&quot;#ucd3v&quot;)" xlink:href="#ucd3j"/></g><g transform="translate(-251 -1384)"><use fill="#52267d" xlink:href="#ucd3k"/><use fill="#fff" fill-opacity="0" stroke="#52267d" stroke-miterlimit="50" stroke-width="20" clip-path="url(&quot;#ucd3w&quot;)" xlink:href="#ucd3k"/></g></g></svg>