<svg xmlns="http://www.w3.org/2000/svg" xmlns:xlink="http://www.w3.org/1999/xlink" width="476" height="363" viewBox="0 0 476 363"><defs><path id="mw6ea" d="M1176.38 202.001c0 45.023-50.379 81.521-112.525 81.521-62.145 0-112.524-36.498-112.524-81.521 0-6.708 1.118-13.228 3.28-19.619 11.994-35.47 221.769-25.404 221.769 19.619z"/><path id="mw6eb" d="M701.323 197.19c0 45.023 50.379 81.521 112.524 81.521 62.146 0 112.525-36.498 112.525-81.52 0-6.71-1.119-13.228-3.28-19.62-11.994-35.47-221.77-25.404-221.77 19.62z"/><path id="mw6ed" d="M951.33 202.533h-33.126"/><path id="mw6ef" d="M707.5 192.634L829.876 97.5"/><path id="mw6eg" d="M1170.31 198.634l-23.686-17.91-26.993-20.41-67.92-51.357-15.15-11.457"/><path id="mw6eh" d="M757.867 216.359c1.854 7.159 5.776 13.348 11.974 16.348 12.884 6.234 41.943 3.019 63.63-.672 11.218-1.91 21.078-7.178 28.241-14.592z"/><path id="mw6ei" d="M871.593 182.66h-11.9c-.564 0-1.028-.419-1.028-.93 0-.51.464-.93 1.028-.93h2.059c-.566 0-1.028-.418-1.028-.93s.462-.929 1.028-.929h-1.47c-.565 0-1.028-.418-1.028-.93s.463-.928 1.029-.928h6.21c-1.378-.58-2.989-.991-4.845-1.208-16.936-1.965-22.982-.665-25.115.671a25.048 25.048 0 0 1-8.704 3.449c-10.449 1.948-29.989 4.293-47.7-.746-8.802-2.51-15.345 1.725-19.266 8.804H873.66c-.147-2.057-.588-3.957-1.397-5.62a1.086 1.086 0 0 1-.67.226z"/><path id="mw6ej" d="M798.178 210.326h-2.057c.566 0 1.03.419 1.03.93 0 .51-.464.928-1.03.928h-11.899c-.565 0-1.028-.418-1.028-.928 0-.511.463-.93 1.028-.93h2.058c-.566 0-1.028-.418-1.028-.93 0-.51.462-.93 1.028-.93h-1.47c-.566 0-1.029-.417-1.029-.928 0-.511.463-.93 1.03-.93h11.899c.565 0 1.028.418 1.028.93s-.463.929-1.028.929h1.468c.566 0 1.028.418 1.028.93s-.462.929-1.028.929zm-41.32-8.91a42.889 42.889 0 0 0 .461 12.49l104.473 3.454a44.283 44.283 0 0 0 7.26-10.006z"/><path id="mw6ek" d="M780.031 196.335h-2.057c.566 0 1.03.419 1.03.93 0 .51-.464.93-1.03.93h-11.9c-.564 0-1.027-.42-1.027-.93 0-.511.463-.93 1.028-.93h2.058c-.566 0-1.028-.419-1.028-.93 0-.51.462-.93 1.028-.93h-1.47c-.566 0-1.03-.417-1.03-.928 0-.511.464-.93 1.03-.93h11.9c.565 0 1.027.418 1.027.93s-.462.929-1.028.929h1.47c.565 0 1.027.419 1.027.93 0 .51-.462.929-1.028.929zm93.633-8.218l-114.06 2.507c-1.387 3.224-2.307 6.869-2.731 10.646h114.792a40.417 40.417 0 0 0 1.657-6.786c.343-2.22.48-4.366.342-6.367z"/><path id="mw6el" d="M767.075 253.786c0-2.422 21.363-4.386 47.715-4.386 26.352 0 47.714 1.964 47.714 4.386s-21.362 4.385-47.714 4.385-47.715-1.963-47.715-4.385z"/><path id="mw6em" d="M853.628 223.867l.161.891.567 3.889v.018c-.305-1.642-.695-3.371-.695-3.371.04-.476.029-.954-.033-1.427zm-.574-3.554c-.012.191.25 1.725.464 2.938-.175-.756-.526-1.563-1.218-2.117 0 0 0-.038-.008-.106h.008s-.029-.305-.033-.74a8.17 8.17 0 0 1 .085-1.149v-.01h-.014c0-.032.009-.065.014-.097.043-.32.13-.635.26-.932.057-.116.123-.228.197-.335.114 1.032.255 2.355.245 2.548zm10.366-2.75v-.022-.033a.91.91 0 0 0-.136-.342 2.698 2.698 0 0 0-.988-.934c-.705-.386-1.673-.552-1.955-1.289-.086-.228-.088-.476-.13-.715a2.165 2.165 0 0 0-1.43-1.624c-.335-.112-.697-.143-1.023-.282-.728-.31-1.112-1.072-1.438-1.777l-1.264-2.73c-.32.16-.734.084-1.034-.117-.29-.215-.52-.5-.67-.827-.434-.842-.62-1.797-1.13-2.599-.511-.802-1.53-1.435-2.432-1.086a4.147 4.147 0 0 1-.544.225c-.772.18-1.626-.701-2.287-.273-.11.07-.199.168-.26.283v-.021a1.365 1.365 0 0 0-.14.557v.134c0 .154.01.31.012.465a2.07 2.07 0 0 1-.03.39v-.01a1.312 1.312 0 0 1-.056.213c-.171.46-.648.762-.87 1.195v-.02a1.088 1.088 0 0 0-.126.5c-.02.812.844 1.578.944 2.451.072.619.214.817.74 1.167l.115.077c-.046 0-.093.006-.145.007-.02 0-.04.003-.06.007a.651.651 0 0 0-.55.096c-.403.32-1.357.073-1.781 0-.424-.074-1.876.124-2.079.928-.202.805-.55 2.464-.55 2.464s0 1.053-.13 1.249a.063.063 0 0 0 0 .042c0 .296.011 2.072-.275 2.53-.07.106-.065.341-.013.632-.3.387-.584.839-.534 1.135.092.607 1.324 2.515 3.09 1.493 0 0 1.004-1.835-.26-2.81l.055-.214c.382.47.665.806.665.806l.038.107h-.038c.165.448.265.918.297 1.395a1.71 1.71 0 0 1-.094.513h.033c-.01.036-.02.072-.033.106a.93.93 0 0 1-.332.45c-.883.624-1.894 5.087-1.894 5.087s-2.003 7.215-2.403 7.626c-.33.337 1.749 1.286 3.31 1.173a2.55 2.55 0 0 0 .64-.122l.03.31c.034.32.068.617.09.71.055.232.165 2.606.165 2.606s-.225 1.542-.171 2.615c0 .074.01.144.016.214l-.194.03c-.295.66.919 6.178 1.084 6.642.11.365.172.743.184 1.125 0 0-.107.392-.018.606.055.132.091.27.107.411 0 0-.073.356.037.589.11.232-.018.64-.018.64s-.037 1.607-.368 2.481a1.428 1.428 0 0 0 .305 1.503s1.825.015 2.146 0h.042c.13-.018.46-1.464.166-2.16-.295-.697-.037-1.555-.037-1.555v-1.267s.331-.304 0-.96c-.33-.654-.276-.852-.276-.852s.368-1.054-.018-1.393c-.387-.34.073-1.626.073-1.626l.13-4.287a1.687 1.687 0 0 0-.208-.053 20.56 20.56 0 0 1-.022-.22c-.076-.776-.141-1.832.028-2.133.168-.3.25-2.926.276-4.751l1.682.064c.036.853.073 1.632.097 1.73.055.233.166 2.607.166 2.607s-.226 1.542-.172 2.615c0 .074.01.144.016.214l-.194.03c-.295.66.919 6.178 1.085 6.642.11.365.171.743.184 1.125 0 0-.107.392-.019.606.055.132.091.27.107.411 0 0-.073.356.037.589.11.232-.018.64-.018.64s-.036 1.607-.367 2.481a1.428 1.428 0 0 0 .311 1.5s1.826.016 2.147 0h.042c.129-.017.46-1.463.165-2.16-.294-.696-.036-1.554-.036-1.554v-1.264s.33-.305 0-.96c-.331-.655-.277-.853-.277-.853s.369-1.054-.018-1.393c-.386-.34.074-1.626.074-1.626l.132-4.287a1.647 1.647 0 0 0-.213-.053l-.023-.22c-.075-.776-.14-1.832.028-2.133.136-.246.214-1.833.249-3.383 0-.106 0-.213.008-.32a16.562 16.562 0 0 0 2.304-.258s-.9-3.179-.624-3.696c.118-.223-.053-1.41-.287-2.689.327.264.732.41 1.151.416.403.773 1.627 2.552 2.317 2.826.809.32.201-2.517-.184-2.927a3.454 3.454 0 0 1-.457-.733c.01-.013.023-.023.033-.035.011-.012.02-3.018-.165-2.964-.185.055-.405-.447-.405-.447l-.57-4.998-.239-2.093c.2.148.437.241.64.388.556.406.737 1.12.98 1.75.201.52.483 1.035.945 1.362.462.326 1.14.412 1.602.082.427-.31.552-.87.646-1.381.775.272 1.716-.456 1.616-1.25-.025-.197-.098-.411.005-.583.205-.339.854-.142 1.067-.476a.357.357 0 0 0 .054-.193.136.136 0 0 0 .004-.03z"/><path id="mw6eo" d="M846.68 209.488c-.106-.985-1.173-1.835-.853-2.772.174-.511.718-.824.902-1.331.121-.335.067-.703.068-1.06.001-.356.084-.753.381-.95.64-.427 1.465.45 2.212.271a3.92 3.92 0 0 0 .526-.224c.872-.346 1.859.285 2.349 1.083.49.798.673 1.749 1.094 2.587.144.324.366.606.647.822.29.2.687.277 1.001.117l1.222 2.72c.32.7.688 1.459 1.388 1.767.314.138.664.169.989.28a2.134 2.134 0 0 1 1.387 1.616c.042.24.043.487.127.714.273.734 1.209.898 1.891 1.28.395.222.725.542.96.929.107.184.2.426.085.608-.206.332-.833.136-1.031.474-.1.17-.03.384 0 .58.097.79-.814 1.515-1.563 1.244-.09.509-.213 1.066-.626 1.374-.442.331-1.1.244-1.546-.08-.448-.325-.719-.838-.913-1.355-.236-.63-.412-1.34-.949-1.744-.194-.145-.427-.239-.617-.385-.427-.326-.64-.865-.793-1.386-.198-.65-.355-1.32-.64-1.934-.287-.614-.74-1.186-1.36-1.466-.581-.261-1.252-.244-1.853-.456-1.034-.365-1.8-1.234-2.829-1.644a4.58 4.58 0 0 1-.928-.525c-.518-.34-.659-.537-.727-1.154z"/><path id="mw6ep" d="M846.777 205.176c.022-.042.041-.085.057-.13.121-.334.068-.702.069-1.058 0-.12.01-.238.033-.354-.099.21-.146.441-.14.673-.001.287.033.588-.02.869z"/><path id="mw6eq" d="M859.937 221.283c-.443.33-1.1.243-1.547-.082-.447-.326-.72-.837-.908-1.356-.236-.63-.411-1.34-.95-1.744-.193-.145-.426-.24-.615-.385-.427-.326-.64-.865-.795-1.38-.197-.651-.353-1.32-.64-1.934-.287-.615-.738-1.186-1.359-1.467-.58-.261-1.251-.244-1.852-.456-1.035-.365-1.8-1.234-2.829-1.644a4.638 4.638 0 0 1-.93-.524c-.506-.349-.64-.546-.715-1.162-.107-.923-1.046-1.728-.9-2.599a1.364 1.364 0 0 0-.063.145c-.32.939.747 1.789.854 2.773.07.616.214.813.715 1.162.29.21.601.386.93.524 1.028.41 1.794 1.28 2.83 1.644.6.213 1.27.195 1.851.456.621.28 1.068.853 1.36 1.467.29.613.446 1.28.64 1.933.156.516.362 1.055.794 1.381.193.145.427.24.616.385.533.404.713 1.115.949 1.744.194.517.466 1.029.913 1.353.448.324 1.104.412 1.547.082.283-.213.427-.538.522-.887a1.31 1.31 0 0 1-.418.57z"/><path id="mw6er" d="M862.13 218.084a.449.449 0 0 0-.05.25c.24-.238.785-.098.975-.404a.39.39 0 0 0 .049-.251c-.248.235-.792.095-.973.405z"/><path id="mw6es" d="M860.562 219.908c-.02.107-.04.22-.066.332.654.203 1.408-.32 1.515-.982-.26.51-.9.85-1.449.65z"/><path id="mw6et" d="M848.06 210.001s.355.717-.694.732c-1.05.015.676 4.654.676 4.654l1.744 2.218 2.17-1.173.125-3.235.16-1.955s-2.028-.658-1.654-1.529c.373-.87-2.527.288-2.527.288z"/><path id="mw6eu" d="M854.36 228.916s1.28 1.26 2.775-.411l-1.148-1.217h-1.452z"/><path id="mw6ev" d="M854.498 227.288l-.176 1.628s1.28 1.26 2.775-.411"/><path id="mw6ew" d="M856.653 227.51s.516 1.351.89 1.76c.373.408.96 3.234.178 2.914-.783-.32-2.277-2.701-2.367-3.11-.09-.408-.124-1.564-.124-1.564z"/><path id="mw6ex" d="M845.463 234.442l6.902.266-.8-2.915-3.477-.07z"/><path id="mw6ey" d="M846.422 234.442l6.904.266-.8-2.915-3.479-.07z"/><path id="mw6ez" d="M847.722 239.255c-.164.304-.1 1.355-.027 2.133.047.495.098.875.098.875s-2.58.8-2.97.107c-.1-.176-.15-.484-.166-.846-.054-1.066.165-2.603.165-2.603s-.106-2.363-.16-2.595a9.521 9.521 0 0 1-.086-.706c-.047-.473-.092-1-.092-1l3.522-1.866s0 .35-.006.888c-.019 1.692-.076 5.24-.278 5.613z"/><path id="mw6eA" d="M847.793 242.263s-2.58.8-2.97.107c-.1-.176-.15-.484-.166-.846.534-.08 2.158-.305 3.038-.136.047.495.098.875.098.875z"/><path id="mw6eB" d="M847.882 255.7h-.04c-.312.013-2.077 0-2.077 0a1.453 1.453 0 0 1-.302-1.493c.32-.87.355-2.47.355-2.47s.125-.409.018-.64c-.106-.231-.036-.587-.036-.587a1.516 1.516 0 0 0-.107-.408c-.088-.213.018-.605.018-.605a4.526 4.526 0 0 0-.178-1.12c-.16-.461-1.334-5.954-1.05-6.612 0 0 2.491-.426 3.435-.106l-.125 4.266s-.445 1.28-.071 1.617c.373.338.018 1.387.018 1.387s-.054.195.267.853c.32.658 0 .96 0 .96v1.262s-.25.853.035 1.546c.284.693-.035 2.129-.16 2.15z"/><path id="mw6eC" d="M852.77 239.255c-.164.304-.1 1.355-.027 2.133.047.495.098.875.098.875s-2.58.8-2.97.107c-.1-.176-.15-.484-.166-.846-.054-1.066.165-2.603.165-2.603s-.106-2.363-.16-2.595c-.029-.124-.079-1.315-.118-2.382-.033-.911-.06-1.734-.06-1.734l3.523.544s0 1.547-.044 3.137c-.039 1.542-.11 3.123-.241 3.364z"/><path id="mw6eD" d="M852.841 242.263s-2.58.8-2.97.107c-.1-.176-.149-.484-.166-.846.534-.08 2.158-.305 3.038-.136.047.495.098.875.098.875z"/><path id="mw6eE" d="M852.93 255.701h-.04c-.311.012-2.077 0-2.077 0a1.454 1.454 0 0 1-.302-1.493c.32-.876.352-2.475.352-2.475s.125-.409.018-.64c-.106-.232-.036-.587-.036-.587a1.516 1.516 0 0 0-.107-.408c-.088-.214.018-.605.018-.605a4.52 4.52 0 0 0-.178-1.12c-.16-.462-1.334-5.954-1.05-6.612 0 0 2.491-.426 3.435-.107l-.125 4.266s-.445 1.28-.071 1.618c.373.338.018 1.387.018 1.387s-.054.195.267.853c.32.658 0 .96 0 .96v1.261s-.25.853.035 1.547c.284.693-.032 2.133-.157 2.155z"/><path id="mw6eF" d="M846.94 208.333a2.507 2.507 0 0 1 2.508-2.506 2.507 2.507 0 1 1-2.509 2.506z"/><path id="mw6eG" d="M846.94 208.227a2.507 2.507 0 0 1 2.508-2.506 2.507 2.507 0 1 1-2.509 2.506z"/><path id="mw6eH" d="M844.484 234.62l3.523-1.866s0 .35-.007.888c-.514.307-1.29.769-2.037 1.205-.405.238-.801.468-1.14.661a1.499 1.499 0 0 1-.247.107c-.047-.468-.092-.995-.092-.995z"/><path id="mw6eI" d="M853.055 232.75s0 1.547-.044 3.137h-.013c-.263.01-.527.001-.789-.025-.46-.049-.828-.17-.96-.411-.269-.47-1.019-1.067-1.653-1.511-.033-.911-.06-1.735-.06-1.735z"/><path id="mw6eJ" d="M852.4 219.196c-.09.694-.107 1.395-.052 2.093 1.618 1.333 1.316 4.141 1.316 4.141s1.246 5.689.98 6.204c-.268.515.603 3.68.603 3.68-.742.14-1.494.226-2.249.257-.263.01-.527.001-.789-.024-.46-.05-.828-.17-.96-.412-.498-.87-2.651-2.168-2.651-2.168s-1.364.817-2.635 1.56c-.405.238-.801.468-1.14.661a2.12 2.12 0 0 1-.892.245c-1.51.112-3.523-.833-3.203-1.168.392-.41 2.332-7.59 2.332-7.59s.978-4.444 1.832-5.066a.922.922 0 0 0 .32-.447c.292-.811-.196-2.113-.196-2.113s-2.758-3.394-2.634-3.59c.124-.197.125-1.244.125-1.244s.338-1.653.534-2.453c.195-.8 1.6-.996 2.01-.924.409.071 1.333.32 1.724 0 .39-.32 1.05.124 1.05.124l1.62.446 1.458-.853s1.46.075 1.585.27 2.046.57 2.046.57c.978.656.943 3.785.943 3.785s-2.349 2.044-2.829 3.093a3.52 3.52 0 0 0-.249.923z"/><path id="mw6eK" d="M854.945 214.747l.534.427.552 4.959.55 4.977s.214.498.392.445c.179-.053.16 2.95.16 2.95s-2.043-1.255-2.775.411l-.57-4.02s-.73-4.105-.712-4.425c.018-.32-.374-3.786-.374-3.786z"/><path id="mw6eL" d="M842.776 214.979l-.392.48s.036 2.061-.267 2.56c-.303.497.837 3.412 1.264 3.234.427-.178 1.388-4.728 1.388-4.781 0-.054-1.993-1.493-1.993-1.493z"/><path id="mw6eM" d="M842.74 217.911s-1.245 1.262-1.156 1.867c.088.605 1.28 2.504 2.989 1.483 0 0 1.584-2.976-1.832-3.35z"/><path id="mw6eN" d="M847.841 255.704c-.31.012-2.076 0-2.076 0a.94.94 0 0 1-.073-.085c.452-.154 1.428-.384 2.15.085z"/><path id="mw6eO" d="M852.891 255.704c-.31.012-2.076 0-2.076 0a.95.95 0 0 1-.072-.085c.449-.154 1.425-.384 2.148.085z"/><path id="mw6eP" d="M846.09 224.443c-.273 2.608-.183 7.785-.127 10.084-.405.238-.801.468-1.14.661a2.12 2.12 0 0 1-.892.245c-.113-.696 1.454-7.838 2.158-10.99z"/><path id="mw6eQ" d="M846.422 222.962c-.007.038-.136.605-.333 1.48.077-.747.184-1.283.333-1.48z"/><path id="mw6eR" d="M850.756 222.68s1.513 9.492-2.966 10.666c-.001-.005 3.099-.475 2.966-10.665z"/><path id="mw6eS" d="M852.998 235.571a5.92 5.92 0 0 1-.789-.024l-1.208-12.978c.77.503 1.693 9.713 1.997 13.002z"/><path id="mw6eT" d="M847.58 206.753a.66.66 0 0 1 .238.025c.113.056.215.133.3.226.284.236.668.31 1.019.197.122-.054.251-.09.383-.107.204 0 .38.15.486.32.106.17.16.373.25.556.092.182.237.355.436.4.096.004.19.025.278.064.054.043.095.1.12.165.166.36.298.784.654.96a.98.98 0 0 0 .417.09.872.872 0 0 0 .427-.076.818.818 0 0 0 .314-.313c.222-.367.248-.82.195-1.246a3.427 3.427 0 0 0-.558-1.5 3.134 3.134 0 0 0-3.437-1.215c-.68.182-1.345.52-1.757 1.09-.1.141-.21.276-.328.402.187-.018.375-.034.563-.038z"/><path id="mw6eU" d="M847.58 206.646a.66.66 0 0 1 .238.025c.113.056.215.133.3.226.284.236.668.31 1.019.197.122-.054.251-.09.383-.106.204 0 .38.149.486.32.106.17.16.373.25.555.092.182.237.355.436.4.096.004.19.025.278.064.054.044.095.1.12.165.166.36.298.784.654.96a.98.98 0 0 0 .417.09.873.873 0 0 0 .427-.076.818.818 0 0 0 .314-.312c.222-.367.248-.822.195-1.247a3.427 3.427 0 0 0-.558-1.5 3.134 3.134 0 0 0-3.437-1.214c-.68.181-1.345.52-1.757 1.089-.1.141-.21.276-.328.403.187-.018.375-.034.563-.039z"/><path id="mw6eV" d="M844.858 212.614s.124.996-.303 1.245c-.427.248.303-1.245.303-1.245z"/><path id="mw6eW" d="M853.913 220.33s1.014-1.494 1.157-1.067c.143.426-1.157 1.066-1.157 1.066z"/><path id="mw6eX" d="M853.985 220.826s1-1.226 1.096-.746c.096.48-1.096.746-1.096.746z"/><path id="mw6eY" d="M851.047 219.366a1.624 1.624 0 0 1-1.006-.33h-.087a1.58 1.58 0 0 1-1.099.412 1.56 1.56 0 0 1-1.139-.456h-.116c-.635.516-1.55.5-2.165-.04l-.417-.007s.488 1.301.196 2.113l7.134.127c-.055-.698-.038-1.4.051-2.094v-.01l-.391-.007a1.643 1.643 0 0 1-.961.292z"/><path id="mw6eZ" d="M851.047 219.58a1.624 1.624 0 0 1-1.006-.331h-.087a1.58 1.58 0 0 1-1.099.413 1.56 1.56 0 0 1-1.139-.457h-.116c-.635.516-1.55.5-2.165-.04l-.417-.007s.488 1.301.196 2.113l7.134.127c-.055-.698-.038-1.4.051-2.094v-.01l-.391-.007a1.643 1.643 0 0 1-.961.292z"/><path id="mw6eaa" d="M851.047 219.473a1.624 1.624 0 0 1-1.006-.33h-.087a1.58 1.58 0 0 1-1.099.412 1.559 1.559 0 0 1-1.139-.457h-.116c-.635.517-1.55.5-2.165-.039l-.417-.007s.488 1.3.196 2.112l7.134.127c-.055-.698-.038-1.4.051-2.093v-.01l-.391-.007a1.643 1.643 0 0 1-.961.292z"/><path id="mw6eab" d="M850.73 212.362s1.502.096 1.511.309c.01.213-1.511-.31-1.511-.31z"/><path id="mw6eac" d="M847.081 211.452s-1.502.096-1.511.31c-.01.212 1.511-.31 1.511-.31z"/><path id="mw6ead" d="M852.82 215.813c-.014-.011-.03-.02-.044-.03.384.346.32 1.101-.152 1.724-.471.623-1.188.882-1.623.603.014.012.025.024.04.036.427.326 1.175.07 1.668-.574.493-.644.541-1.432.112-1.76z"/><path id="mw6eae" d="M844.57 217.427c-.38-.684-.33-1.44.1-1.727l-.05.022c-.471.262-.533 1.048-.143 1.757.391.708 1.096 1.066 1.568.808a.424.424 0 0 0 .044-.03c-.47.213-1.139-.145-1.519-.83z"/><path id="mw6eaf" d="M845.078 211.653l-.137.214-.351-.187.184-.284a.773.773 0 0 1 .304.257z"/><path id="mw6eag" d="M842.847 219.546s.313-1.47-.106-1.936c-.42-.468-.285-2.916.355-2.863.64.053 1.601 1.99 1.441 2.4-.16.41-.765 2.506-.765 2.506z"/><path id="mw6eah" d="M852.891 208.943a.817.817 0 0 1-.314.313.873.873 0 0 1-.427.077.98.98 0 0 1-.417-.09c-.355-.178-.488-.602-.654-.96a.393.393 0 0 0-.11-.17.763.763 0 0 0-.273-.066c-.2-.045-.344-.22-.436-.4-.092-.182-.146-.382-.25-.556-.105-.174-.283-.326-.487-.32a1.314 1.314 0 0 0-.383.112 1.077 1.077 0 0 1-1.018-.198 1.039 1.039 0 0 0-.301-.226.663.663 0 0 0-.238-.025c-.123 0-.245.012-.367.021-.061.08-.127.156-.196.229.187-.016.375-.032.563-.037.08-.006.16.002.238.025.113.056.215.133.3.226.284.236.668.31 1.02.198.12-.056.25-.094.382-.112.204 0 .38.15.486.32.106.17.16.374.251.556.09.182.236.355.436.4a.763.763 0 0 1 .274.067c.054.044.095.1.12.165.166.36.298.784.654.96a.98.98 0 0 0 .417.09.873.873 0 0 0 .427-.076.817.817 0 0 0 .314-.312c.166-.302.24-.645.214-.988a1.628 1.628 0 0 1-.225.777z"/><path id="mw6eai" d="M842.36 220.061c0-.359.43-.65.96-.65s.961.291.961.65c0 .36-.43.651-.96.651-.531 0-.961-.291-.961-.65z"/><path id="mw6eaj" d="M779.072 223.373c0-18.17 14.745-32.9 32.932-32.9 18.188 0 32.932 14.73 32.932 32.9 0 18.17-14.744 32.9-32.932 32.9-18.187 0-32.932-14.73-32.932-32.9z"/><path id="mw6eak" d="M829.284 239.906c0 5.194-8.173.444-16.935.444-8.762 0-17.624 4.554-17.624-.64 0-2.961 2.825-7.08 6.877-10.072 3.053-2.254 6.802-3.869 10.568-3.869 3.873 0 7.667 1.748 10.693 4.148 3.82 3.025 6.42 7.09 6.42 9.99z"/><path id="mw6eal" d="M822.862 229.915c-4.658-.701-13.081-1.555-21.26-.279 3.053-2.254 6.802-3.869 10.568-3.869 3.872 0 7.666 1.748 10.692 4.148z"/><path id="mw6eam" d="M794.725 200.148s-9.92 6.336-9.839 16.247c.081 9.91 9.84-16.247 9.84-16.247z"/><path id="mw6ean" d="M844.924 182.254s-8.989-.54-7.929 5.751c0 0-.213 1.112.799 1.617 0 0 .016-.466.921-.308.323.054.65.07.977.047a2.03 2.03 0 0 0 1.193-.493s2.527-1.042 3.51-5.168c0 0 .727-.9.698-1.13l-1.517.646s.518 1.093.107 2.002c0 0-.049-1.962-.34-1.92-.059.01-.788.379-.788.379s.891 1.904.213 3.287c0 0 .256-2.346-.497-3.15l-1.068.623s1.042 1.967.336 3.572c0 0 .181-2.462-.56-3.42l-.968.753s.979 1.94.382 3.27c0 0-.078-2.865-.591-3.082 0 0-.847.747-.976 1.053 0 0 .67 1.406.255 2.149 0 0-.255-1.91-.464-1.92 0 0-.843 1.265-.932 2.133 0 0 .037-1.29.727-2.254 0 0-.816.14-1.29.67 0 0 .13-.896 1.494-.973 0 0 .697-.96.884-1.018 0 0-1.361-.114-2.187.252 0 0 .726-.844 2.435-.46l.961-.78s-1.791-.245-2.551.026c0 0 .874-.746 2.808-.202l1.041-.622s-1.527-.329-2.438-.214c0 0 .96-.517 2.742.044l.748-.334s-1.12-.22-1.448-.253c-.327-.035-.345-.126-.345-.126a3.884 3.884 0 0 1 2.107.244s1.577-.592 1.55-.691z"/><path id="mw6eao" d="M835.705 179.456s-4.057-.245-3.583 2.598c0 0-.095.503.361.73 0 0 .007-.212.416-.138.146.024.294.031.441.022a.928.928 0 0 0 .54-.223s1.142-.472 1.586-2.336c0 0 .328-.406.32-.51l-.685.292s.234.493.05.904c0 0-.023-.886-.154-.865-.027 0-.356.17-.356.17s.403.861.099 1.486c0 0 .115-1.06-.224-1.424l-.483.282s.47.89.152 1.615c0 0 .08-1.113-.253-1.546l-.438.34s.442.876.173 1.478c0 0-.035-1.295-.268-1.393 0 0-.382.337-.44.475 0 0 .302.64.115.972 0 0-.116-.863-.214-.866 0 0-.381.57-.42.96.018-.362.13-.713.327-1.019-.22.042-.422.147-.583.302 0 0 .059-.404.677-.44 0 0 .315-.432.4-.459 0 0-.616-.051-.988.114 0 0 .328-.382 1.1-.213l.427-.35s-.809-.108-1.152.01c0 0 .395-.337 1.269-.09l.47-.282s-.69-.149-1.102-.095c0 0 .434-.234 1.24.02l.335-.151s-.505-.1-.653-.115c-.147-.015-.157-.056-.157-.056.32-.053.65-.016.95.107 0 0 .717-.26.705-.305z"/><path id="mw6eap" d="M868.28 252.24c0-.269 1.286-.486 2.874-.486s2.875.217 2.875.485-1.287.485-2.875.485-2.875-.217-2.875-.485z"/><path id="mw6eaq" d="M758.72 260.311c0-.268 1.288-.485 2.876-.485 1.587 0 2.874.217 2.874.485s-1.287.486-2.874.486c-1.588 0-2.875-.218-2.875-.486z"/><path id="mw6ear" d="M775.409 260.92c0-.268 1.287-.485 2.875-.485 1.587 0 2.874.217 2.874.485s-1.287.486-2.874.486c-1.588 0-2.875-.218-2.875-.486z"/><path id="mw6eas" d="M860.57 257.44c0-.401 1.922-.726 4.292-.726s4.293.325 4.293.725c0 .4-1.922.726-4.293.726-2.37 0-4.292-.325-4.292-.726z"/><path id="mw6eat" d="M866.637 256.255a1.25 1.25 0 0 0 .41-.618c.052-.244-.053-.538-.287-.628-.262-.1-.543.082-.755.265-.213.184-.457.393-.736.354.292-.263.423-.66.346-1.046a.438.438 0 0 0-.096-.213c-.146-.156-.41-.09-.585.033-.555.39-.71 1.143-.713 1.822-.056-.245-.009-.5-.01-.747 0-.247-.07-.533-.282-.664a.856.856 0 0 0-.427-.1c-.25-.01-.527.014-.698.197-.213.227-.157.607.028.853s.464.406.722.578c.207.123.383.29.516.492a.527.527 0 0 1 .039.088h1.564c.35-.178.674-.402.964-.666z"/><path id="mw6eau" d="M762.937 247.312s.586.766-.27 1.92c-.858 1.154-1.565 2.133-1.282 2.854 0 0 1.293-2.148 2.349-2.18 1.056-.03.36-1.302-.797-2.594z"/><path id="mw6eav" d="M762.937 247.312a.96.96 0 0 1 .12.24c1.027 1.205 1.573 2.33.587 2.358-.92.027-2.028 1.67-2.288 2.084.01.032.02.064.032.095 0 0 1.293-2.148 2.349-2.179 1.056-.03.358-1.306-.8-2.598z"/><path id="mw6eaw" d="M764.027 248.288c0 .27-.03.488-.068.488-.037 0-.067-.213-.067-.488s.037-.143.076-.143c.038 0 .06-.127.06.143z"/><path id="mw6eax" d="M764.397 248.61c-.237.13-.443.207-.462.174-.018-.033.16-.163.398-.292.237-.13.143-.036.16 0 .019.035.145-.011-.096.118z"/><path id="mw6eay" d="M759.84 247.312s-.587.766.27 1.92c.856 1.154 1.563 2.133 1.28 2.854 0 0-1.293-2.148-2.348-2.18-1.055-.03-.36-1.302.798-2.594z"/><path id="mw6eaz" d="M759.84 247.312a.92.92 0 0 0-.12.24c-1.027 1.205-1.575 2.33-.587 2.358.919.027 2.028 1.67 2.286 2.084a.989.989 0 0 1-.03.095s-1.294-2.148-2.349-2.179c-1.055-.03-.359-1.306.8-2.598z"/><path id="mw6eaA" d="M758.75 248.288c0 .27.03.488.067.488.037 0 .067-.213.067-.488s-.037-.143-.075-.143c-.037 0-.06-.127-.06.143z"/><path id="mw6eaB" d="M758.375 248.61c.237.13.444.207.462.174.018-.033-.16-.163-.397-.292-.237-.13-.144-.036-.161 0-.017.035-.141-.011.096.118z"/><path id="mw6eaC" d="M758.936 251.989s1.64-.05 2.135-.403c.496-.351 2.523-.77 2.646-.213.122.558 2.463 2.805.612 2.82-1.85.015-4.3-.289-4.794-.589-.493-.3-.599-1.615-.599-1.615z"/><path id="mw6eaD" d="M764.36 254.002c-1.85.015-4.3-.289-4.794-.589-.375-.228-.525-1.048-.575-1.427h-.055s.107 1.322.597 1.622c.49.3 2.943.603 4.794.588.534 0 .719-.195.71-.475-.076.171-.278.278-.677.281z"/><path id="mw6eaE" d="M800.296 219.059c.627-.035 3.576-.257 5.45-1.325.3-.176.64-.276.99-.29.595-.018 1.28.23.842 1.621-.711 2.275-4.84 4.835-7.401 4.693-2.464-.137-5.387-1.128-7.317-4.616a2.131 2.131 0 0 1-.264-1.097c.023-.704.28-1.586 1.602-.603 1.787 1.328 5.177 1.58 5.857 1.617.08.004.16.004.241 0z"/><path id="mw6eaF" d="M823.994 219.059c.627-.035 3.577-.257 5.45-1.325.3-.176.64-.276.99-.29.595-.018 1.28.23.842 1.621-.711 2.275-4.84 4.835-7.401 4.693-2.464-.137-5.387-1.128-7.317-4.616a2.131 2.131 0 0 1-.263-1.097c.022-.704.278-1.586 1.6-.603 1.788 1.328 5.178 1.58 5.858 1.617.08.004.161.004.241 0z"/><path id="mw6eaG" d="M1071.964 188.813c-6.766-.236-13.21-2.436-19.364-4.843s-12.25-5.072-18.858-6.348c-4.248-.82-9.107-.936-12.529 1.358-3.294 2.21-4.358 6.015-4.93 9.55-.43 2.66-.684 5.46.495 7.95.82 1.728 2.274 3.18 3.28 4.836 3.498 5.761 1.025 12.865-2.766 18.49-1.778 2.639-3.842 5.16-5.215 7.965-1.373 2.806-2.003 6.027-.802 8.898 1.19 2.842 4.026 4.973 7.099 6.473 6.24 3.048 13.591 3.92 20.765 4.415 15.874 1.093 31.831.62 47.747.145 5.89-.176 11.806-.353 17.6-1.27 3.218-.51 6.54-1.318 8.876-3.264 2.965-2.477 3.7-6.672 1.713-9.778-3.333-5.21-12.546-6.505-14.879-12.096-1.282-3.078.035-6.506 1.899-9.36 3.998-6.124 10.698-11.496 11.052-18.495.241-4.807-2.98-9.622-7.96-11.897-5.22-2.383-12.461-2.083-16.31 1.863-3.968 4.053-10.938 5.617-16.913 5.408z"/><path id="mw6eaH" d="M1020.209 249.102s2.195-.353 3.513 1.209c0 0-.966.766-3.045-.295z"/><path id="mw6eaI" d="M1019.973 249.069s-1.4 1.739-.713 3.667c0 0 1.142-.46 1.267-2.803z"/><path id="mw6eaJ" d="M1018.716 246.213s.878-1.62 4.39.649c0 0-.468 1.09-2.019 1.002-1.552-.088-1.961-.796-2.371-1.65z"/><path id="mw6eaK" d="M1018.489 246.097s-1.822-.211-2 3.99c0 0 1.15.242 1.977-1.087.826-1.328.482-2.074.023-2.903z"/><path id="mw6eaL" d="M1017.432 242.747s1.024-2.86 4.742-.826c0 0-.849 2.624-4.362 1.798z"/><path id="mw6eaM" d="M1016.282 238.471s1.933-2.888 5.358-.21c0 0-1.2 2.713-5.065 1.238z"/><path id="mw6eaN" d="M1015.875 234.403s2.255-2.653 5.651 0c0 0-2.137 2.33-5.646.678z"/><path id="mw6eaO" d="M1015.524 230.458s2.284-2.771 5.534-.148c0 0-2.576 2.447-5.534.796z"/><path id="mw6eaP" d="M1015.729 226.945s2.404-3.567 5.446-1.15c0 0-2.576 3.067-5.446 1.828z"/><path id="mw6eaQ" d="M1016.282 222.847s2.548-3.537 5.504-.825c0 0-3.015 3.065-5.504 1.474z"/><path id="mw6eaR" d="M1017.135 219.184s3.015-3.323 5.646-2c0 0-3.143 3.53-5.778 2.882z"/><path id="mw6eaS" d="M1018.189 215.719s3.483-4.07 5.503-2.712c0 0-2.563 3.158-5.75 3.474z"/><path id="mw6eaT" d="M1019.71 211.685s3.046-3.324 5.27-2.494c0 0-2.605 3.45-5.679 3.539z"/><path id="mw6eaU" d="M1021.091 207.919s3.367-3.184 4.83-2.624c0 0-2.43 3.537-4.976 3.331z"/><path id="mw6eaV" d="M1022.434 204.44s2.898-3.802 4.479-3.508c0 0-1.757 3.39-4.48 3.896z"/><path id="mw6eaW" d="M1023.895 199.751s2.562-2.916 3.945-2.909c0 0-2.022 3.896-4.05 3.86z"/><path id="mw6eaX" d="M1024.76 196.629l2.475-6.072s.124 5.49-2.789 7.2z"/><path id="mw6eaY" d="M1025.766 189.93s.41-5.07.146-5.482c0 0 1.769 4.211-.164 7.723z"/><path id="mw6eaZ" d="M1017.327 242.678s-2.565-1.601-4.227 2.316c0 0 2.284 1.526 4.528-1.317z"/><path id="mw6eba" d="M1016.203 238.31s-3.147-1.447-4.674 2.644c0 0 2.432 1.679 4.96-1.612z"/><path id="mw6ebb" d="M1015.729 234.647s-2.254-2.653-5.646 0c0 0 2.137 2.328 5.646.678z"/><path id="mw6ebc" d="M1015.445 230.458s-2.283-2.771-5.533-.148c0 0 2.577 2.447 5.533.796z"/><path id="mw6ebd" d="M1015.729 227.045s-1.602-4-5.084-2.277c0 0 1.882 3.544 4.943 2.94z"/><path id="mw6ebe" d="M1016.49 222.827s-1.59-4.065-5.122-2.18c0 0 2.162 3.725 4.966 2.809z"/><path id="mw6ebf" d="M1017.474 219.205s-.628-4.456-3.55-4.855c0 0 .62 4.7 3.16 5.659z"/><path id="mw6ebg" d="M1018.268 215.719s-.244-5.37-2.665-5.556c0 0 .082 4.075 2.392 6.317z"/><path id="mw6ebh" d="M1019.96 211.533s-.721-4.465-3.031-5.011c0 0 .286 4.324 2.804 6.106z"/><path id="mw6ebi" d="M1021.36 207.951s-.024-4.65-1.435-5.334c0 0-.876 4.211 1.027 5.928z"/><path id="mw6ebj" d="M1022.541 204.389s-.195-4.79-1.659-5.465c0 0-.5 3.79 1.44 5.778z"/><path id="mw6ebk" d="M1024.099 200.138s-.01-3.896-1.052-4.808c0 0-1.038 4.266.507 5.59z"/><path id="mw6ebl" d="M1024.637 196.436l-1.014-6.483s-1.382 5.312 1.064 7.658z"/><path id="mw6ebm" d="M1024.836 189.993s-2.605-4.359-2.552-4.843c0 0 .277 4.568 3.555 6.843z"/><path id="mw6ebn" d="M1025.141 188.705s-2.459-6.19-3.571-6.692c0 0 3.513 1.8 3.776 6.516z"/><path id="mw6ebo" d="M1023.776 200.739l-.167-.053c2.075-6.815 2.593-11.16 1.457-12.248l.121-.128c1.204 1.148.713 5.447-1.411 12.429z"/><path id="mw6ebp" d="M1018.06 216.69l-.25-.09c.22-.623.458-1.257.707-1.883 2.166-5.435 4.01-10.493 5.193-14.375l.215-.106c-1.184 3.896-2.995 9.142-5.163 14.585-.245.618-.481 1.247-.703 1.868z"/><path id="mw6ebq" d="M1023.298 254.203c-.033-.038-3.398-3.851-5.742-10.364a38.6 38.6 0 0 1-2.268-11.872c-.16-5.067.895-10.725 2.704-15.864l.197.232c-4.06 11.534-2.448 21.418-.308 27.372 2.32 6.452 5.646 10.225 5.679 10.262z"/><path id="mw6ebr" d="M1018.004 254.41c0-2.39 20.922-4.329 46.732-4.329 25.809 0 46.732 1.939 46.732 4.33 0 2.39-20.923 4.328-46.732 4.328-25.81 0-46.732-1.938-46.732-4.329z"/><path id="mw6ebs" d="M1029.754 224.387c0-17.937 14.44-32.478 32.254-32.478 17.813 0 32.254 14.541 32.254 32.478s-14.44 32.478-32.254 32.478c-17.813 0-32.254-14.54-32.254-32.478z"/><path id="mw6ebt" d="M1050.022 218.092c0-2.437 1.498-4.412 3.345-4.412 1.847 0 3.344 1.975 3.344 4.412 0 2.436-1.497 4.41-3.344 4.41-1.847 0-3.345-1.974-3.345-4.41z"/><path id="mw6ebu" d="M1067.305 218.092c0-2.437 1.497-4.412 3.344-4.412 1.847 0 3.345 1.975 3.345 4.412 0 2.436-1.498 4.41-3.345 4.41-1.847 0-3.344-1.974-3.344-4.41z"/><path id="mw6ebv" d="M1082.794 231.966c0 6.333-10.506 17-21.105 17-10.6 0-20.7-10.907-20.7-17.24 0-6.334 9.886-.542 20.491-.542s21.314-5.551 21.314.782z"/><path id="mw6ebw" d="M1044.323 233.048s19.054 4.27 35.061.12c0 0 1.96 0 .621 2.28a3.616 3.616 0 0 1-1.463 1.383c-3.085 1.588-14.511 6.28-32.777.296a3.606 3.606 0 0 1-2.371-2.446c-.211-.783-.12-1.524.93-1.633z"/><path id="mw6ebx" d="M1046.16 200.21s-9.717 6.255-9.637 16.035c.08 9.78 9.636-16.036 9.636-16.036z"/><path id="mw6eby" d="M1079.685 241.693c.065.043.129.087.193.132l-.105.085-.043.033c0-.022-.006-.046-.01-.07l-.035-.18zm25.737 12.048c-.167-.67-.572-.682-.572-.682l-.007-.068-.15-1.656a.092.092 0 0 1-.02.022l-.008-.21a1.122 1.122 0 0 0-.011-.12c.239-.174.415-.422.503-.706-.062-.079-.016-.063-.016-.063s-1.015-1.046-.914-1.592c.102-.545-.764-1.138-.764-1.138s-.313-.974-.313-1.27c0-.296-1.186-2.239-1.186-2.239s-1.046-2.47-1.964-3.532c-.917-1.06-.836-1.639-.836-1.639a1.98 1.98 0 0 1-.204-.359 2.31 2.31 0 0 1-.104-.27c.188-.024.313-.028.313-.028s.752-.13.786-.285a.99.99 0 0 1 .256-.465c.143-.155-.408-3.103-.115-3.865.292-.762-.376-4.26-.376-4.26a.776.776 0 0 1 .332-.526l.443-.176.225-.055.03-.007.046-.012.105-.026.03-.008.065-.018.024-.006.104-.033.035-.012.049-.017.038-.014.05-.02.055-.027.033-.016.034-.02.027-.018a.432.432 0 0 0 .041-.033l.021-.021a.308.308 0 0 0 .038-.048l.006-.009a.229.229 0 0 0-.022-.236 1.791 1.791 0 0 0-.397-.411l-.242-.374v-.007c0-.02.008-.04.013-.062a.713.713 0 0 0 .011-.24v-.013a.63.63 0 0 0 .006-.076v-.033c0-.024 0-.048-.006-.072-.005-.025 0-.025 0-.037 0-.013-.008-.046-.013-.07a.459.459 0 0 0-.01-.04c-.005-.014-.012-.044-.02-.066l-.015-.043a1.501 1.501 0 0 0-.024-.061l-.02-.045c-.008-.015-.017-.038-.026-.057l-.023-.046a.988.988 0 0 0-.03-.053l-.025-.045-.029-.048-.028-.044-.028-.043-.029-.041-.028-.038-.027-.038-.025-.033-.026-.033-.022-.028-.023-.028-.018-.02-.019-.022-.012-.015-.014-.015-.007-.008-.008-.008v-.012-.034-.044c0-.015 0-.032-.006-.05v-.006a3.2 3.2 0 0 1-.026-.33.87.87 0 0 1 .075-.332.159.159 0 0 0-.007-.165.2.2 0 0 1 .01-.023c.072-.14-.064-.26-.236-.35 0-.256-.104-.777-.95-.87 0 0-.494-.337-.016-.94s-.281-2.147-.281-2.147-.242-.631-.112-.892-.15-2.584-.15-2.584 0-2.142-.471-3.053c-.47-.91-.792-2.545-1.334-2.788-.543-.242-.972-.827-.972-.827l-.254.082-.13-.196a.582.582 0 0 0 .333-.277.71.71 0 0 0 .045-.099 1.12 1.12 0 0 0 .06-.385c-.008-.13-.005-.262.012-.392.043-.21.188-.379.314-.554.254-.35.415-.76.47-1.189a1.81 1.81 0 0 0-.298-1.228c-.124-.174-.284-.33-.361-.526-.036-.09-.051-.187-.079-.28a1.384 1.384 0 0 0-1.179-.956c-.444-.041-.882.13-1.328.124-.516-.006-1.045-.244-1.53-.063a1.506 1.506 0 0 0-.559.421c-.117.13-.227.268-.328.412-.06.084-.116.17-.17.258v.007c-.054.09-.104.181-.152.275a.094.094 0 0 0-.007.07.126.126 0 0 0 .062.06c.086.03.164.075.233.134.026.03.054.059.084.084l-.045.054a2.68 2.68 0 0 0-.487 2.284 2.661 2.661 0 0 0 1.486 1.794l.053.117c.1.224.185.455.252.691l-.228.021a.288.288 0 0 1-.27.277c-.266.028-1.114.344-1.114.344s-1.275.654-2.043.861c-.768.208-1.11.031-1.11.031s-.086.562-.956.253c-.87-.31-.985.017-.985.017s-2.45-.068-4.235.172c-1.785.24-2.563.072-2.563.072s-.008.095-.017.248l-.181-.105c-1.186-.638-3.372-1.628-3.684-.421-.435 1.677 3.385 2.39 3.385 2.39l.282-.03.185-.02c.036.464.117.841.288.882.061.016 1.889.012 2.37.238.48.227 1.517-.105 1.517-.105s.266-.059.669.181c.402.24 2.59.241 2.59.241s.155.034.715.2c.559.164 1.546.021 1.546.021l2.307.3s.165 1.629-.016 2.22c-.181.592-.036 3.503-.036 3.503s.523 3.543.38 3.963c-.113.325.888-.037 1.346-.217.024.096.055.21.09.34 0 .012.015.019.033.023l.037.026.05.2-.125.033.164.11c.018.068.04.133.066.198.136.315-.856.893-.856.893s-2.74 1.51-3.563 2.211c0 0-.643.21-.694.412-.05.201-.627.131-.627.131s-.081.218-.147.437c-.066.22-.418.557-.418.557s-.815.129-.93.565a9.015 9.015 0 0 0-.187 1.023l-.915 1.676s-2.494 1.872-2.756 2.588l-1.766 1.191s-.29.653-.806.676c-.515.023-1.405.948-1.405.948s.261.105.645.284a2.039 2.039 0 0 0-.064.105c-.07.135-.123.28-.155.429 0 0-1.15.703-2.006.408-.483-.166-1.435-.453-2.124-.488-.53-.027-.907.097-.797.54.187.765 2.074 2.692 3.005 3.606a5.057 5.057 0 0 0 1.156.85c.142.074.287.142.435.201.16.065.324.118.49.16.329.076.628.073.796-.106.54-.556.314-.947.314-.947l.06-.046 1.487-1.12.337-.29.093-.08c-.05.412-.226.797-.503 1.104.37-.217.76-.4 1.164-.545.522-.165.844-1.158.844-1.158s.286-.293.793-.817c.507-.525.601-1.867.601-1.867s2.602-1.668 3.66-3.591c0 0 .19-.263.522-.65.332-.386.343-1.027.343-1.027s.05-.186.494-.664c.444-.478.386-.777.386-.777s.21-.294.987-.235c.778.059 2.606-.87 2.606-.87s0 .086.016.233c-.158.368-.263.624-.263.624s1.593 6.404.955 7.41c-.332.527.582.127 1.54-.375.049.06.104.123.165.19.227.247.468.479.723.695l.032.028s1.94 3.015 2.247 3.369c.308.353.105 1.393.105 1.393s.542 3.636 1.282 4.273c.154.117.326.209.51.27-.013.453.394.825.394.825s-.008 1.204-.633 1.713c-.354.29-1.02.877-1.37 1.384-.269.39-.352.737.034.859.669.218 3.015-.309 4.145-.586a4.316 4.316 0 0 0 1.544-.713c.391-.29.732-.64.655-.955z"/><path id="mw6ebA" d="M1079.981 215.192l-1.178.126-.278.03s-3.764-.706-3.335-2.363c.307-1.2 2.463-.218 3.633.42.447.244.75.436.75.436z"/><path id="mw6ebB" d="M1082.75 243.205l-1.29 1.117-.333.287-.774.236-1.916-1.704 1.424-1.143.042-.035 1.152-.924z"/><path id="mw6ebC" d="M1103.245 250.013l-1.821.085.5 2.242.682.236 1.902-.16-.052-1.286a1.17 1.17 0 0 0-.375-.812 1.153 1.153 0 0 0-.836-.305z"/><path id="mw6ebD" d="M1079.849 241.933a10.21 10.21 0 0 0-1.346-.78.95.95 0 0 1 .627-.526c.412-.087.622.716.719 1.306z"/><path id="mw6ebE" d="M1081.458 244.322c.079-.936-.701-1.752-1.555-2.358l1.15-.925 1.694 2.166z"/><path id="mw6ebF" d="M1104.94 250.31c-.534 1.777-4.209 1.243-4.938.611-.73-.631-1.266-4.238-1.266-4.238s.201-1.037-.104-1.383c-.305-.347-2.216-3.338-2.216-3.338l-.032-.026a8.067 8.067 0 0 1-.714-.69c-.589-.65-.601-.963-.601-.963s-.21-1.23-.93-2.9c-.522-1.231-.739-2.905-.813-3.7a13.506 13.506 0 0 1-.036-.455s-1.8.92-2.57.863c-.769-.058-.974.233-.974.233s.058.296-.38.771c-.438.475-.488.66-.488.66s-.009.636-.338 1.018c-.33.382-.518.644-.518.644-1.045 1.91-3.611 3.563-3.611 3.563s-.095 1.333-.597 1.853l-.782.81s-.322.99-.836 1.152c-.4.144-.785.326-1.15.541 2.117-2.559-3.123-4.576-3.123-4.576s.876-.918 1.385-.941c.509-.023.796-.67.796-.67l1.741-1.185c.258-.71 2.719-2.567 2.719-2.567l.902-1.662c.042-.339.104-.675.185-1.007.113-.431.917-.56.917-.56s.344-.337.408-.552c.063-.216.145-.433.145-.433s.569.071.618-.13c.049-.203.684-.41.684-.41.812-.701 3.515-2.197 3.515-2.197s.978-.575.844-.888a1.709 1.709 0 0 1-.066-.195v-.016a3.241 3.241 0 0 1-.034-.127c-.123-.48-.26-1.219-.26-1.219s4.757-2.784 6.318-2.078c.455.205.721.723.86 1.384.223 1.058.121 2.482-.049 3.575-.066.45-.161.894-.285 1.331-.373 1.206-.445 2.988-.445 2.988s-.049 3.397-.17 4.233c-.048.39.013.784.179 1.14.054.125.122.244.201.355 0 0-.085.573.824 1.627.91 1.054 1.936 3.502 1.936 3.502s1.175 1.926 1.17 2.222c-.004.296.306 1.263.306 1.263s.854.585.754 1.128c-.1.542.9 1.579.9 1.579s-.041-.018.02.06z"/><path id="mw6ebG" d="M1092.778 228.427s1.025.496 1.108 1.087c.084.592-1.108-1.087-1.108-1.087z"/><path id="mw6ebH" d="M1088.862 231.83l.56.66-.29-1.2-.616-.04z"/><path id="mw6ebI" d="M1088.213 233.232c.06.047.747 1.594.931 1.611.184.018-.931-1.611-.931-1.611z"/><path id="mw6ebJ" d="M1099.555 228.878c-.066.45-.16.895-.285 1.332-.372 1.206-.444 2.988-.444 2.988s-.05 3.397-.17 4.233c-.05.39.013.784.178 1.14-.314.03-.896.121-1.294.38-.559.364-.235 1.362-.235 1.362s-.806.488-1.632.93c-.588-.65-.6-.963-.6-.963s-.21-1.23-.93-2.9c-.523-1.231-.74-2.905-.814-3.7.314-.737.831-1.872 1.18-2.361.369-.52-.072-2.09-.379-3.01l-.085-.057-1.01-.683-.308-.21-.161-.106.122-.034 6.92-1.912c.22 1.058.118 2.482-.053 3.571z"/><path id="mw6ebK" d="M1092.568 226.975l.468.316 1.01.683.086.058c.308.919.748 2.49.378 3.009-.535.753-1.464 3.036-1.464 3.036s1.568 6.353.94 7.352c-.626.999 3.322-1.391 3.322-1.391s-.323-.998.237-1.362c.56-.365 1.5-.397 1.5-.397s.741-.129.775-.284a.97.97 0 0 1 .253-.46c.14-.154-.403-3.079-.114-3.835.288-.756-.371-4.226-.371-4.226a.771.771 0 0 1 .328-.526.962.962 0 0 1 .27-.13l.06-.018c.035-.01.072-.02.104-.027.45-.113.94-.21 1.045-.421l-.104-.16-.551-.857a.641.641 0 0 1 .015-.25c0-.017.007-.035.009-.052.08-.547-.545-1.21-.545-1.21a3.177 3.177 0 0 1-.048-.471v-.006a1.18 1.18 0 0 1 .067-.492z"/><path id="mw6ebL" d="M1094.33 228.186c-.055-.012 3.373.111 4.432 1.474 0 .003.037-.493-4.432-1.474z"/><path id="mw6ebM" d="M1097.031 230.458s.684 4.948.532 5.81c-.151.862.797.306.797.306s.967-7.182-1.329-6.116z"/><path id="mw6ebN" d="M1101.403 228.352a.451.451 0 0 0-.025-.05c-.232-.389-.708-.47-.628-.967 0-.02.008-.042.013-.064a.699.699 0 0 0 .011-.238c-.055-.501-.548-1.023-.548-1.023a3.107 3.107 0 0 1-.044-.658v-.006a.862.862 0 0 1 .074-.33.155.155 0 0 0-.008-.162c-.127-.218-.693-.36-.693-.36l-3.832.612c-.452.156-.884.316-1.278.469-1.183.455-2.021.832-2.021.832l.028.113c.025.105.067.269.118.457.017.065.334-.012.354.058l.117.259.846.236s.068.173.164.447c0 .016.011.033.016.05l.07.01c1.598.197 3.812.512 5.781.913z"/><path id="mw6ebO" d="M1100.245 228.8l-.06.017c-2.06-.433-4.443-.771-6.118-.978-.104-.302-.18-.496-.18-.496l-1.26-.351-.035-.122c-.06-.22-.11-.421-.14-.537l-.028-.113s.836-.378 2.02-.832c.395-.152.828-.315 1.28-.47l3.831-.61c.14.037.276.085.408.145.195.091.373.222.293.377-.158.308-.029.992-.029.992s.668.708.537 1.264c-.13.555.375.626.616 1.032.24.407-.517.52-1.135.682z"/><path id="mw6ebP" d="M1096.727 212.117s-5.029.406-4.452-.05c.289-.229.09-.909-.182-1.531-.18-.406-.384-.8-.611-1.18 0 0 3.822-1.112 3.412-.48-.121.186-.011.545.21.959.51.987 1.623 2.282 1.623 2.282z"/><path id="mw6ebQ" d="M1095.1 209.838c-.104.125-.375-.024-.506.079-.457.36-.89.837-1.514.827a2.608 2.608 0 0 1-.987-.21c-.18-.406-.384-.8-.611-1.18 0 0 3.822-1.11 3.412-.478-.12.19-.011.548.206.962z"/><path id="mw6ebR" d="M1095.754 208.033a2.643 2.643 0 0 1-2.673 2.615 2.645 2.645 0 0 1-2.596-2.691 2.643 2.643 0 0 1 2.673-2.615c.7.008 1.367.297 1.854.802.487.505.754 1.185.742 1.89z"/><path id="mw6ebS" d="M1100.009 224.903a5.248 5.248 0 0 1-1.232-.13c-.645-.15-1.191.432-1.191.432s-1.255.494-1.825.393c-.57-.101-3.068 1.226-3.068 1.226l-.105.041c-.06-.22-.11-.42-.14-.536l-.028-.113s.836-.378 2.02-.832a32.28 32.28 0 0 1 1.28-.47l3.831-.61c.14.036.276.085.408.144a.883.883 0 0 1 .05.455z"/><path id="mw6ebT" d="M1079.981 215.192l-1.178.126a14.94 14.94 0 0 1 .02-1.918c.447.244.75.435.75.435z"/><path id="mw6ebU" d="M1095.796 210.49s-.744.236-1.162.402c-.418.165-2.517.35-2.517.35a.284.284 0 0 1-.265.276c-.263.026-1.099.34-1.099.34s-1.254.649-2.016.855c-.76.206-1.094.03-1.094.03s-.085.557-.941.25c-.856-.307-.971.017-.971.017s-2.419-.066-4.183.171c-1.763.238-2.527.072-2.527.072s-.23 2.792.25 2.92c.061.017 1.864.012 2.338.236.474.225 1.496-.105 1.496-.105s.264-.058.661.181 2.554.239 2.554.239.154.033.706.197c.552.164 1.524.022 1.524.022l2.276.3s.162 1.616-.015 2.202c-.178.587-.036 3.475-.036 3.475s.523 3.514.375 3.93c-.147.418 1.545-.302 1.545-.302s2.5-1.33 3.068-1.228c.568.101 1.825-.392 1.825-.392s.547-.582 1.193-.432c.403.09.816.133 1.23.126 0 0 .182-.881-.925-1.006 0 0-.488-.333-.018-.931.47-.598-.275-2.124-.275-2.124s-.237-.624-.11-.886c.126-.262-.148-2.561-.148-2.561s0-2.126-.464-3.033c-.465-.908-.781-2.527-1.317-2.765-.535-.238-.958-.827-.958-.827z"/><path id="mw6ebV" d="M1092.996 217.614s3.26 1.46 4.137 2.637c.876 1.177-4.137-2.637-4.137-2.637z"/><path id="mw6ebW" d="M1094.285 220.117s3.941 2.308 3.672 2.893c-.27.586-3.672-2.893-3.672-2.893z"/><path id="mw6ebX" d="M1094.929 222.439s1.425.58 1.682.91c.257.329-1.682-.91-1.682-.91z"/><path id="mw6ebY" d="M1088.403 213.437s3.012 1.627 2.494 2.287c-.517.66-2.494-2.287-2.494-2.287z"/><path id="mw6ebZ" d="M1087.2 214.584s.492 1.158.504 1.357c.013.199-.907-1.193-.504-1.357z"/><path id="mw6eca" d="M1085.18 214.895c0 .062 1.569 1.031.922 1.286-.648.255-.921-1.286-.921-1.286z"/><path id="mw6ecb" d="M1086.373 234.415c.046.062.21.67.711.941.502.272-.71-.941-.71-.941z"/><path id="mw6ecc" d="M1081.67 239.016c-.008.511-.093 2.14.32 2.316.415.176-.32-2.316-.32-2.316z"/><path id="mw6ecd" d="M1082.82 240.459s.947 1.612.62 1.887c-.328.274-.704-.384-.704-.384z"/><path id="mw6ece" d="M1099.687 243.966c.385.075.777.106 1.169.095.634-.023-1.17-.095-1.17-.095z"/><path id="mw6ecf" d="M1099.19 243.183s1.168.218 1.587-.008c.42-.226-1.587.008-1.587.008z"/><path id="mw6ecg" d="M1098.73 241.933s1.17.095 1.407-.306c.237-.4-1.407.306-1.407.306z"/><path id="mw6ech" d="M1098.4 241.278s1.123.187 1.31-.074c.19-.26-1.31.074-1.31.074z"/><path id="mw6eci" d="M1097.308 238.904s1.209.576 1.343.904c.134.329-1.343-.904-1.343-.904z"/><path id="mw6ecj" d="M1095.754 208.033a2.65 2.65 0 0 1-1.013 2.052.768.768 0 0 1-.02-.04c-.115-.248-.144-.527-.251-.774a.373.373 0 0 0-.186-.215c-.17-.067-.338.09-.45.23-.112.14-.278.297-.448.235a.427.427 0 0 1-.21-.222c-.174-.316-.355-.65-.366-1.01.012-.177.014-.355.006-.533-.045-.309-.276-.57-.542-.744a6.748 6.748 0 0 0-.862-.42 1.28 1.28 0 0 1-.366-.237 2.624 2.624 0 0 1 2.95-.86c1.065.38 1.77 1.401 1.755 2.538z"/><path id="mw6eck" d="M1090.722 205.962c-.064.149.179.135.284.262.115.12.253.215.407.278.297.12.585.26.862.42.267.176.497.435.542.746.008.177.006.355-.005.532.011.36.191.692.366 1.01a.44.44 0 0 0 .209.223c.171.06.335-.096.448-.236.113-.14.281-.296.45-.23a.374.374 0 0 1 .186.215c.104.25.136.526.25.774.116.247.363.47.639.433a.55.55 0 0 0 .39-.288.983.983 0 0 0 .104-.479c-.01-.13-.005-.26.012-.388.042-.211.184-.377.305-.551a2.56 2.56 0 0 0 .461-1.176c.05-.428-.054-.86-.294-1.217-.121-.174-.28-.327-.356-.526-.035-.09-.05-.186-.078-.278a1.367 1.367 0 0 0-1.163-.948c-.437-.04-.87.129-1.31.123-.509-.005-1.034-.242-1.51-.062a1.478 1.478 0 0 0-.55.421 4.264 4.264 0 0 0-.646.948"/><path id="mw6ecl" d="M1079.66 245.723l-.06.045s.226.392-.307.948c-.25.258-.778.14-1.268-.057a4.81 4.81 0 0 1-1.568-1.043c-.917-.907-2.78-2.818-2.964-3.58-.105-.44.263-.562.786-.536.68.035 1.619.316 2.091.486.843.291 1.977-.406 1.977-.406.033-.146.085-.288.154-.42a.951.951 0 0 1 .627-.527c.408-.083.618.72.715 1.304 0 .023.008.047.012.07.046.292.064.514.064.514.724-.05 1.032 1.009.994 1.551-.039.542.209.547.209.547z"/><path id="mw6ecm" d="M1079.6 245.765s.226.392-.307.947c-.25.258-.778.142-1.268-.056a4.793 4.793 0 0 1-1.568-1.044c-.918-.906-2.78-2.817-2.964-3.58-.105-.44.263-.561.786-.535.045.444.158 1.053.434 1.376.47.55 1.814 2.4 3.494 2.421a2.6 2.6 0 0 1 1.455.422z"/><path id="mw6ecn" d="M1076.56 244.014s1.62-1.248 2.982-.685c0 0-1.2-.096-2.983.685z"/><path id="mw6eco" d="M1078.396 243.715s1.55.489 1.858.493c.309.004-1.593-.613-1.858-.493z"/><path id="mw6ecp" d="M1101.023 247.458s1.86.039 1.92.464c.06.425-.695.4-.695.4z"/><path id="mw6ecq" d="M1104.632 252.957l.006.067s.4.013.565.677c.077.316-.26.66-.64.947a4.262 4.262 0 0 1-1.523.709c-1.115.274-3.43.796-4.088.581-.382-.125-.299-.465-.034-.853.346-.503 1.002-1.085 1.351-1.368.616-.506.628-1.7.628-1.7s-.547-.502-.347-1.046c.2-.544 1.793.284 1.793.284.303-.577 1.245-.316 1.635-.03.39.287.509.1.509.1z"/><path id="mw6ecr" d="M1104.638 253.024s.4.013.565.677c.077.316-.26.66-.64.947a4.262 4.262 0 0 1-1.523.709c-1.115.274-3.43.796-4.088.581-.382-.125-.299-.465-.034-.853.356.174.866.374 1.24.316.635-.105 2.661-.257 3.47-1.528a2.343 2.343 0 0 1 1.004-.911z"/><path id="mw6ecs" d="M1101.889 254.523s-.178-1.824.887-2.601c0 0-.636.872-.887 2.601z"/><path id="mw6ect" d="M1102.529 252.979s1.095-.948 1.244-1.187c.148-.239-1.211.929-1.244 1.187z"/><path id="mw6ecu" d="M1100.103 225.835s-1.413.737-2.44.445c-1.028-.291 2.44-.445 2.44-.445z"/><path id="mw6ecv" d="M1100.606 227.316s-.222.4-1.607.302c-1.385-.098 1.607-.302 1.607-.302z"/><path id="mw6ecw" d="M1096.11 208.77l.059-.082a2.8 2.8 0 0 0 .121-.191 2.567 2.567 0 0 0-.18.273z"/><path id="mw6ecx" d="M1095.525 210.139c-.275.037-.523-.187-.638-.434-.115-.246-.144-.526-.25-.774a.375.375 0 0 0-.186-.215c-.17-.066-.338.09-.45.23-.113.14-.278.297-.45.236a.434.434 0 0 1-.208-.222c-.176-.316-.356-.65-.367-1.01.01-.177.01-.355 0-.532-.044-.311-.275-.57-.542-.745-.266-.175-.573-.284-.862-.42a1.165 1.165 0 0 1-.406-.279c-.105-.126-.35-.112-.284-.262.048-.097.104-.19.157-.283-.12.17-.229.35-.324.537-.063.15.18.136.285.262.114.12.253.215.407.278.296.12.584.26.862.42.267.177.497.436.542.746.008.177.006.355-.006.532.012.361.192.693.366 1.01a.44.44 0 0 0 .21.223c.17.06.335-.096.448-.236.113-.14.281-.296.45-.23a.374.374 0 0 1 .186.215c.104.25.136.527.25.774.116.247.362.47.638.434a.55.55 0 0 0 .39-.289.83.83 0 0 0 .044-.098.512.512 0 0 1-.262.132z"/><path id="mw6ecy" d="M1092.053 211.443s1.203-.06 2.004-.032c.8.027 1.986-.624 1.986-.624"/><path id="mw6ecz" d="M1042.292 219.878c-.121-.62-1.262-.52-2.091-.36a6.87 6.87 0 0 0-.203.041l.06-.25-.39-.161a10.205 10.205 0 0 0-2.388-.667c-1.2-.18-3.103-.57-4.273-1.322-1.064-.684-1.49-.882-1.787-1.067v-.16c0-.306-.018-.586-.04-.836a3.542 3.542 0 0 0-.133-.676c-.248-.831-.809-1.097-1.37-1.618a5.137 5.137 0 0 0-1.237-.867c.046-.275.126-.543.238-.798.016-.039.033-.077.048-.116 0-.005 0-.01.008-.015.016-.039.033-.077.05-.114a2.597 2.597 0 0 0 1.345-2.27 2.574 2.574 0 0 0-.882-1.941l.121-.04c.259-.093.54-.348.465-.565h-.038a.22.22 0 0 0-.01-.045.52.52 0 0 1-.314-.119c-.12-.15-.157-.374-.378-.583a1.03 1.03 0 0 0-.164-.143 1.443 1.443 0 0 0-.532-.223c.016.011.033.02.048.031l.033.025c-.438-.105-.933-.09-1.35-.27a1.946 1.946 0 0 1-.287-.158l.055.015c-.225-.131-.427-.298-.66-.422a1.812 1.812 0 0 0-.407-.148l.105.062a2.417 2.417 0 0 0-1.81.293c-.644.38-1.1.993-1.438 1.636a7.016 7.016 0 0 0-.806 3.513c.021.59.115 1.201-.104 1.755-.182.463-.564.832-.792 1.276-.879 1.718.74 3.95-.251 5.611-.36.601-1.001 1-1.438 1.552-.437.553-.595 1.446-.013 1.861.419.3 1.013.202 1.512.354a2.427 2.427 0 0 1-.712 1.356l-.081-.016c-.02.018-.037.037-.057.054l.078.02-.03.028c.546.16 1.107.26 1.673.3.503.035 1.035.016 1.472-.224a1.99 1.99 0 0 0 .575-.495c0 .106.008.198.014.294.015.387.07.772.163 1.149.484 1.767-1.046 3.153-1.046 3.153a5.118 5.118 0 0 0-.512 2.474c.028.517.134 1.028.314 1.514l.043.113c.028.074.058.146.087.21.045.106.09.198.135.284.03.059.059.114.087.164.098.182.21.356.337.52.154-.107.31-.207.464-.3v.188c.008.651-.057 1.474-.057 1.474s-.485 1.744-.533 2.246c-.048.502-.235 3.608-.235 3.608s-.654 2.008-1.865 3.226c-1.21 1.218-.941 4.707-.941 4.707s-.848 2.938-.557 3.081a.294.294 0 0 0 .145.009v.119c-.523.365-.92.66-.92.66s-.145 2.414-.34 2.88c-.194.467.243 1.016.243 1.016s4.312-.12 4.688-.144c.172-.01.747-.2 1.342-.465.511-.115 2.055-.72 2.614-1.284a.824.824 0 0 0 .197-.267c.266-.67-2.145-.168-2.8-.168-.654 0-.726-.502-1.03-.884-.302-.382-.084-1.015-.084-1.015l-.063-1.79.288-.116s.388-1.53 1.017-2.27c.63-.74 1.745-3.56 1.77-3.704.023-.143.047-.406.507-1.053.46-.646.912-2.027.912-2.027s1.046-3.298 1.841-4.994c.488-1.037.76-2.874.897-4.148.15.042.299.092.443.15 0 0 .224-1.443.314-3.091.054-.842.047-1.686-.02-2.527-.127-1.368-.92-4.018-.874-6.484.192.124.378.242.545.348 0-.062.007-.124.011-.186.43.269.739.453.739.453s2.567 1.433 4.82 1.457c2.253.024 2.641.286 2.641.286l.143-.591.201-.038c.95-.183 2.634-.618 2.495-1.33z"/><path id="mw6ecB" d="M1030.098 206.177l-.117-.087a.253.253 0 0 1 .048.083z"/><path id="mw6ecD" d="M1029.835 206.076h.07l-.066-.05h.018l-.117-.086c.02.025.036.052.047.083h.026c.01.016.017.035.022.053z"/><path id="mw6ecF" d="M1024.751 213.327v-2.93h1.865v2.93z"/><path id="mw6ecG" d="M1021.742 249.688v2.299h-1.694v-2.3z"/><path id="mw6ecH" d="M1024.96 210.441c.454.175.967 1.1.992 1.873.01.348-.397.94-.397.94l.419-.05c.214-.028.492-.066.787-.11.247-.038.505-.08.747-.125.666-.124 1.211-.273 1.062-.41-.072-.066-.091-.193-.072-.356.045-.272.123-.538.232-.791.032-.083.068-.166.104-.243.154-.354.302-.632.302-.632s-1.423-.105-2.613-.155c-.407-.018-.788-.03-1.078-.03h-.114c-.361-.003-.535.027-.371.09z"/><path id="mw6ecI" d="M1030.938 230.164s-.21 3.816-.988 5.499c-.78 1.682-1.79 4.954-1.79 4.954s-.447 1.375-.894 2.015c-.448.64-.47.901-.495 1.043-.024.142-1.106 2.94-1.718 3.674-.613.735-.988 2.252-.988 2.252s-2.684 1.137-2.967.995c-.282-.142.542-3.053.542-3.053s-.26-3.461.918-4.67c1.177-1.209 1.813-3.2 1.813-3.2s.188-3.082.235-3.579c.047-.497.518-2.229.518-2.229s.14-1.825-.023-2.18c-.165-.355 5.837-1.521 5.837-1.521z"/><path id="mw6ecJ" d="M1023.758 249.46l.071 2.049s-.209.631.082 1.007c.29.376.365.877 1 .877.636 0 2.98-.498 2.719.167-.26.664-2.46 1.517-2.823 1.54-.363.023-4.552.142-4.552.142s-.424-.544-.235-1.006c.188-.463.329-2.858.329-2.858s3.268-2.497 3.41-1.919z"/><path id="mw6ecK" d="M1023.776 249.441l.07 2.051s-.21.632.083 1.007c.291.374.365.878 1 .878.636 0 2.978-.498 2.718.165-.259.663-2.46 1.517-2.822 1.541-.363.024-4.556.142-4.556.142s-.418-.545-.235-1.007c.183-.462.325-2.856.325-2.856s3.276-2.502 3.417-1.92z"/><path id="mw6ecL" d="M1019.906 251.04c.282.142 2.962-1 2.962-1s.377-1.518.99-2.253c.612-.735 1.694-3.532 1.717-3.674.023-.142.047-.403.495-1.043.447-.64.895-2.015.895-2.015s1.012-3.271 1.789-4.953c.54-1.17.806-3.37.92-4.6.049-.543.069-.9.069-.9s-6.004 1.158-5.838 1.517c.054.118.075.397.078.719.008.646-.055 1.461-.055 1.461s-.47 1.73-.518 2.229c-.047.498-.235 3.58-.235 3.58s-.636 1.99-1.813 3.199c-1.177 1.208-.918 4.67-.918 4.67s-.817 2.92-.538 3.062z"/><path id="mw6ecM" d="M1026.214 234.66s-1.224-.332-1.648.047c-.423.379 1.648-.048 1.648-.048z"/><path id="mw6ecN" d="M1026.191 236.224s-1.93-.421-1.954.19c-.023.61 1.954-.19 1.954-.19z"/><path id="mw6ecO" d="M1025.414 237.932s-.664.568-1.082.378c-.418-.19 1.082-.378 1.082-.378z"/><path id="mw6ecP" d="M1023.625 241.012s1.342.498 1.035 1.02c-.306.522-.541.592-.658.45-.117-.144-.377-1.47-.377-1.47z"/><path id="mw6ecQ" d="M1022.565 249.901l.071 2.051s-.209.632.083 1.007c.292.374.365.878 1 .878.636 0 2.978-.498 2.719.165-.26.663-2.46 1.517-2.823 1.541-.363.024-4.555.142-4.555.142s-.424-.545-.235-1.007c.188-.462.329-2.856.329-2.856s3.27-2.502 3.411-1.92z"/><path id="mw6ecR" d="M1021.883 252.651s-.059.403-1.319.012c-1.26-.392 1.319-.012 1.319-.012z"/><path id="mw6ecS" d="M1019.588 252.947s-.283.392.718.57c1 .178-.718-.57-.718-.57z"/><path id="mw6ecT" d="M1019.858 252.639s.99.865 1.295.865"/><path id="mw6ecU" d="M1025.322 210.35c.437.798 1.238.66 2.25 1.339.345.232.81-.1 1.157-.278.183-.46.404-.876.404-.876s-2.737-.195-3.81-.185z"/><path id="mw6ecV" d="M1025.007 208.917a2.575 2.575 0 0 0 2.565 2.583 2.575 2.575 0 0 0 2.566-2.583 2.575 2.575 0 0 0-2.565-2.584 2.545 2.545 0 0 0-1.818.753 2.581 2.581 0 0 0-.748 1.83z"/><path id="mw6ecW" d="M1023.908 232.123c.054.118.075.397.078.72 2.254-1.41 4.338-1.505 5.69-1.337.05-.543.07-.9.07-.9s-6.004 1.161-5.838 1.517z"/><path id="mw6ecX" d="M1022.562 230.168a5.22 5.22 0 0 0 .968 2.785c4.078-2.843 7.722-1.256 7.722-1.256s.217-1.432.302-3.067c.05-.834.044-1.671-.02-2.505-.132-1.443-.996-4.325-.83-6.897.073-1.132.509-2.187.493-3.06 0-.302-.017-.58-.039-.827a3.55 3.55 0 0 0-.128-.672c-.24-.825-.787-1.089-1.331-1.604a4.984 4.984 0 0 0-1.203-.862c-.884-.434-1.777-.434-2.544.111a3.009 3.009 0 0 0-.402.344c-.158.163-.3.339-.427.527-.022.03-.042.062-.062.092-.113.178-.218.5-.314.9-.354 1.5-.56 4.078-.56 4.078s-.4 3.115-.276 5.189c.015.384.068.766.158 1.14.471 1.754-1.012 3.129-1.012 3.129a5.16 5.16 0 0 0-.495 2.455z"/><path id="mw6ecY" d="M1038.926 221.514s.248-.036.6-.105c.922-.185 2.563-.617 2.427-1.323-.117-.616-1.225-.517-2.031-.358-.476.092-.846.21-.846.21z"/><path id="mw6ecZ" d="M1026.737 216.628c.494.38 1.719 1.423 2.66 2.157.53.414 1.269.903 1.814 1.252.073-1.133.124-2.21.11-3.08-.37-.3-.494-.692-1.052-1.348-.99-1.158-2.755-1.564-2.755-1.564-1.174-.261-1.269 2.2-.777 2.583z"/><path id="mw6eda" d="M1038.926 221.514s.248-.036.6-.105l.396-1.685c-.476.093-.846.211-.846.211z"/><path id="mw6edb" d="M1027.517 213.855s1.766.402 2.755 1.565c.989 1.162.627.631 2.66 1.967 1.136.747 2.984 1.132 4.151 1.311a9.806 9.806 0 0 1 2.32.662l.379.16-.589 2.515s-.376-.26-2.566-.284c-2.189-.023-4.685-1.446-4.685-1.446s-1.6-.972-2.542-1.707c-.942-.735-2.165-1.78-2.663-2.16-.498-.378-.397-2.844.78-2.583z"/><path id="mw6edc" d="M1024.75 214.367c.343.21.758.124 1.255-.496 1.336-1.678 3.555-.006 5.027.988-.24-.825-.786-1.089-1.331-1.605-1.579-1.494-3.346-1.678-4.576.121-.022.03-.042.062-.062.093-.115.178-.22.5-.313.899z"/><path id="mw6edd" d="M1024.75 214.177c.343.211.758.125 1.255-.495a1.827 1.827 0 0 1 .757-.587c.237-.096.492-.139.747-.126 1.179.038 2.524 1.025 3.523 1.7-.24-.825-.786-1.089-1.331-1.604a4.984 4.984 0 0 0-1.202-.862c-.885-.434-1.778-.434-2.545.111a3.011 3.011 0 0 0-.402.344 3.82 3.82 0 0 0-.427.527c-.022.03-.042.062-.062.092-.115.18-.22.501-.313.9z"/><path id="mw6ede" d="M1022.562 229.979a5.22 5.22 0 0 0 .968 2.784c4.078-2.842 7.722-1.256 7.722-1.256s.217-1.432.301-3.067c-1.552-.013-5.974.024-7.457.843a9.811 9.811 0 0 1-1.534.696z"/><path id="mw6edf" d="M1022.562 230.168a5.22 5.22 0 0 0 .968 2.785c4.078-2.843 7.722-1.256 7.722-1.256s.217-1.432.301-3.067c-1.552-.014-5.974.023-7.457.842a9.811 9.811 0 0 1-1.534.696z"/><path id="mw6edg" d="M1030.107 206.491l-.114-.086c.02.024.036.052.047.082z"/><path id="mw6edh" d="M1023.914 223.445a3.1 3.1 0 0 0 .375-.468c.985-1.466 1.187-3.342.805-5.054-.084-.38-.195-.782-.06-1.148.187-.504.772-.766 1.039-1.233.325-.572.1-1.264-.031-1.91 0-.026-.01-.05-.015-.076a4.941 4.941 0 0 1 .163-2.465l.036-.105c.074-.212.17-.417.288-.61.24-.39.577-.714 1.023-.829a.804.804 0 0 0 .352-.132c.265-.233-.037-.632-.096-.975-.073-.402.238-.786.606-.986.314-.17.664-.245 1.004-.351a2.554 2.554 0 0 0-3.454-.199 2.597 2.597 0 0 0-.513 3.446h-.114c-.352 0-.522.028-.362.09.454.175.565 1.444.59 2.217-.158.163-.3.339-.427.527-.022.03-.042.062-.062.092-.113.178-.218.5-.314.9-.354 1.5-.56 4.078-.56 4.078s-.397 3.117-.273 5.191z"/><path id="mw6edi" d="M1029.804 206.31c.192.228-.12.537-.405.64-.394.144-.82.21-1.188.414-.368.203-.679.583-.607.985.061.342.361.737.097.975a.819.819 0 0 1-.353.134c-.664.17-1.086.807-1.31 1.438a4.913 4.913 0 0 0-.2 2.568c.127.666.384 1.391.047 1.985-.267.469-.852.73-1.038 1.233-.136.366-.026.768.06 1.149.38 1.71.179 3.585-.806 5.053-.19.311-.45.573-.759.764-.424.237-.94.256-1.43.221a7.625 7.625 0 0 1-1.627-.298c.417-.371.692-.877.78-1.43-.485-.152-1.061-.055-1.469-.352-.566-.41-.413-1.298.012-1.847.424-.548 1.045-.947 1.397-1.539.963-1.648-.61-3.863.244-5.567.222-.442.593-.807.77-1.263.209-.55.12-1.158.099-1.742-.04-1.21.229-2.41.783-3.485.328-.638.771-1.245 1.396-1.623.624-.377 1.454-.492 2.101-.153.287.15.523.377.82.507.572.252 1.295.116 1.797.48.502.362.273.829.903.841"/><path id="mw6edj" d="M1027.23 224.246c-.244.123-.732 1.234-1.838 2.036s1.838-2.036 1.838-2.036z"/><path id="mw6edk" d="M1027.72 222.025s-1.409 2.961-3.063 3.393c-1.654.432 3.064-3.393 3.064-3.393z"/><path id="mw6edl" d="M1030.326 229.215s-.47 1.486-.376 1.612c.094.126.376-1.612.376-1.612z"/><path id="mw6edm" d="M1029.415 229.278s-.47 1.486-.376 1.612c.094.127.376-1.612.376-1.612z"/><path id="mw6edn" d="M1028.38 229.247s-.471 1.485-.377 1.612c.094.126.377-1.612.377-1.612z"/><path id="mw6edo" d="M1023.353 230.423s.302 1.528.445 1.594c.143.065-.445-1.594-.445-1.594z"/><path id="mw6edp" d="M1025.11 229.759s.302 1.53.445 1.593c.144.065-.445-1.593-.445-1.593z"/><path id="mw6edq" d="M1024.106 230.202s.303 1.528.446 1.594c.143.065-.446-1.594-.446-1.594z"/><path id="mw6edr" d="M1032.994 218.201c-.078.016.235.774-.66.821-.894.048.66-.82.66-.82z"/><path id="mw6eds" d="M1039.005 220.113s-.345.726-.91.869c-.566.142.91-.869.91-.869z"/><path id="mw6edt" d="M1036.29 219.655s.753.79-.298.963c-1.052.174.298-.963.298-.963z"/><path id="mw6edu" d="M1030.31 216.62s-1.538-.474-1.777-.126c-.24.347 1.777.127 1.777.127z"/><path id="mw6edv" d="M1027.618 218.561c-.245.123-.732 1.234-1.839 2.036s1.84-2.036 1.84-2.036z"/><path id="mw6edw" d="M1026.701 204.836c-.27-.119-.492-.316-.745-.465.137.032.27.082.395.147.226.118.423.284.641.414a1.742 1.742 0 0 1-.29-.096z"/><path id="mw6edx" d="M1029.873 206.349l-.068-.005a.255.255 0 0 0-.046-.081z"/><path id="mw6edy" d="M1020.547 221.903c-.005.032-.013.065-.02.099-.348-.04-.698-.06-.973-.257.322.065.677.059.993.158z"/><path id="mw6edz" d="M1021.394 223.63c.489.035 1.006.016 1.43-.222.31-.19.57-.452.76-.763.984-1.467 1.186-3.343.805-5.053-.085-.38-.196-.784-.061-1.149.187-.503.773-.765 1.04-1.233.337-.594.08-1.319-.048-1.985a4.922 4.922 0 0 1 .199-2.568c.225-.632.646-1.263 1.312-1.44a.823.823 0 0 0 .352-.132c.264-.234-.036-.632-.097-.975-.072-.402.24-.786.606-.985.367-.2.794-.27 1.188-.414.252-.092.523-.344.453-.559l.067.005-.113-.086c.02.024.036.051.046.081-.544-.047-.35-.487-.837-.842l-.047-.03c.188.037.365.111.523.22.485.351.292.792.837.842.073.21-.201.467-.452.559-.394.144-.82.21-1.188.413-.368.203-.678.584-.607.986.061.342.361.737.097.975a.818.818 0 0 1-.352.133c-.665.17-1.087.808-1.311 1.438a4.923 4.923 0 0 0-.2 2.57c.127.667.385 1.392.047 1.986-.267.468-.852.73-1.038 1.233-.136.366-.025.768.06 1.148.381 1.71.18 3.586-.806 5.053-.19.312-.45.573-.759.765-.424.237-.94.256-1.43.22a7.626 7.626 0 0 1-1.627-.297c.02-.017.037-.036.056-.054.36.08.727.134 1.095.16z"/><path id="mw6edA" d="M1094.248 183.796s-8.802-.533-7.765 5.678c0 0-.209 1.098.782 1.596 0 0 .016-.46.904-.304.315.053.636.069.955.046.432-.03.843-.2 1.17-.486 0 0 2.475-1.029 3.437-5.102 0 0 .712-.888.683-1.116l-1.485.638s.508 1.08.104 1.976c0 0-.048-1.936-.333-1.895-.059.01-.773.374-.773.374s.874 1.88.21 3.247c0 0 .25-2.317-.487-3.111l-1.045.614s1.021 1.943.329 3.526c0 0 .178-2.43-.549-3.375l-.947.744s.97 1.922.382 3.231c0 0-.076-2.829-.58-3.042 0 0-.828.737-.954 1.039 0 0 .656 1.388.249 2.122 0 0-.25-1.885-.455-1.895 0 0-.826 1.249-.912 2.106 0 0 .036-1.273.712-2.225 0 0-.799.138-1.265.66 0 0 .129-.883 1.464-.96 0 0 .681-.947.864-1.004 0 0-1.333-.113-2.14.248 0 0 .711-.832 2.385-.455l.94-.768s-1.754-.242-2.498.025c0 0 .856-.737 2.75-.2l1.02-.614s-1.497-.324-2.388-.21c0 0 .941-.51 2.685.043l.732-.33s-1.096-.216-1.417-.25c-.32-.034-.338-.123-.338-.123a3.768 3.768 0 0 1 2.06.23s1.542-.579 1.514-.678z"/><path id="mw6edB" d="M1085.22 181.035s-3.974-.242-3.51 2.564c0 0-.093.496.354.722 0 0 .007-.211.408-.137.143.024.288.031.432.02a.9.9 0 0 0 .523-.22s1.118-.465 1.553-2.305c0 0 .322-.4.313-.504l-.67.288s.228.489.048.893c0 0-.022-.875-.15-.854-.027 0-.35.169-.35.169s.395.85.098 1.466c0 0 .113-1.046-.22-1.404l-.473.277s.46.878.148 1.594c0 0 .08-1.098-.248-1.526l-.427.336s.433.864.168 1.458c0 0-.034-1.278-.261-1.369 0 0-.375.332-.432.469 0 0 .297.632.113.96 0 0-.113-.853-.21-.856 0 0-.373.564-.411.948.018-.358.129-.705.322-1.006-.216.041-.415.145-.572.298 0 0 .058-.399.664-.434 0 0 .308-.427.39-.453 0 0-.601-.05-.967.112 0 0 .322-.377 1.078-.21l.423-.348s-.793-.105-1.13.012c0 0 .388-.334 1.243-.09l.461-.278s-.676-.147-1.079-.094c0 0 .425-.23 1.214.02l.328-.15s-.494-.098-.64-.112c-.145-.015-.152-.056-.152-.056.314-.053.636-.016.93.105 0 0 .703-.258.69-.305z"/><path id="mw6edC" d="M1117.124 252.884c0-.265 1.26-.48 2.815-.48s2.816.215 2.816.48c0 .264-1.26.479-2.816.479-1.555 0-2.815-.215-2.815-.48z"/><path id="mw6edD" d="M1009.822 260.852c0-.264 1.26-.479 2.815-.479s2.816.215 2.816.48c0 .264-1.26.478-2.816.478-1.555 0-2.815-.214-2.815-.479z"/><path id="mw6edE" d="M1026.166 261.452c0-.264 1.26-.479 2.816-.479 1.555 0 2.815.215 2.815.48 0 .264-1.26.478-2.815.478s-2.816-.214-2.816-.479z"/><path id="mw6edF" d="M1109.573 258.017c0-.395 1.882-.716 4.204-.716s4.204.32 4.204.716c0 .396-1.882.716-4.204.716s-4.204-.32-4.204-.716z"/><path id="mw6edG" d="M1115.515 256.846c.191-.157.33-.37.4-.608.053-.242-.05-.533-.28-.621-.257-.1-.532.08-.74.262-.208.181-.448.388-.72.35.285-.26.414-.653.34-1.033a.435.435 0 0 0-.096-.21c-.142-.155-.401-.088-.572.033-.543.384-.695 1.128-.698 1.797-.055-.241-.008-.493-.01-.737-.003-.244-.069-.526-.277-.655a.832.832 0 0 0-.418-.105c-.244-.01-.516.016-.683.196-.209.223-.153.598.027.842s.454.401.707.57c.203.122.375.288.505.486a.44.44 0 0 1 .038.087h1.533c.342-.174.66-.394.944-.654z"/><path id="mw6edH" d="M1013.95 248.019s.574.756-.264 1.895c-.839 1.14-1.532 2.105-1.255 2.817 0 0 1.267-2.12 2.3-2.15 1.033-.03.354-1.287-.78-2.562z"/><path id="mw6edI" d="M1013.95 248.019a.91.91 0 0 1 .117.237c1.006 1.19 1.543 2.3.575 2.329-.9.025-1.98 1.647-2.239 2.057.008.03.019.062.03.092 0 0 1.267-2.12 2.3-2.15 1.033-.029.352-1.29-.783-2.565z"/><path id="mw6edJ" d="M1015.018 248.986c0 .267-.03.483-.066.483-.037 0-.066-.21-.066-.483 0-.271.037-.14.073-.14.037 0 .059-.13.059.14z"/><path id="mw6edK" d="M1015.385 249.302c-.232.128-.435.205-.453.173-.018-.032.157-.162.389-.29.232-.127.141-.034.158 0 .017.035.138-.012-.094.117z"/><path id="mw6edL" d="M1010.916 248.019s-.574.756.266 1.895c.84 1.14 1.532 2.105 1.254 2.817 0 0-1.266-2.12-2.3-2.15-1.034-.03-.353-1.287.78-2.562z"/><path id="mw6edM" d="M1010.916 248.019a.95.95 0 0 0-.117.237c-1.006 1.19-1.54 2.3-.575 2.329.901.025 1.987 1.647 2.24 2.057-.009.03-.018.062-.03.092 0 0-1.267-2.12-2.3-2.15-1.035-.029-.351-1.29.782-2.565z"/><path id="mw6edN" d="M1009.849 248.986c0 .267.03.483.067.483.037 0 .066-.21.066-.483 0-.271-.038-.14-.075-.14-.036 0-.058-.13-.058.14z"/><path id="mw6edO" d="M1009.486 249.302c.232.128.434.205.452.173.017-.032-.157-.162-.39-.29-.231-.127-.14-.034-.157 0-.018.035-.14-.012.095.117z"/><path id="mw6edP" d="M1010.032 252.635s1.606-.05 2.09-.397c.486-.347 2.47-.76 2.592-.199.12.563 2.414 2.768.6 2.783-1.814.015-4.213-.284-4.696-.581-.483-.297-.586-1.606-.586-1.606z"/><path id="mw6edQ" d="M1015.34 254.623c-1.812.015-4.211-.284-4.695-.581-.368-.225-.514-1.035-.563-1.409h-.053s.104 1.305.584 1.6c.48.296 2.883.596 4.695.582.523 0 .705-.192.695-.47-.07.17-.269.275-.662.278z"/><path id="mw6edS" d="M933.225 419.213c3.848-8.149 14.676-11.518 24.186-7.526 9.51 3.993 14.099 13.836 10.25 21.985-3.847 8.149-14.676 11.518-24.186 7.526-9.51-3.993-14.099-13.835-10.25-21.985z"/><path id="mw6edU" d="M1017.58 355.012c10.22-.148 19.229 7.088 20.123 16.161.895 9.074-6.664 16.549-16.884 16.696-10.22.148-19.23-7.088-20.124-16.161-.894-9.074 6.665-16.549 16.885-16.696z"/><path id="mw6edV" d="M770.464 400.39l7.246-27.044 27.044 7.246-7.246 27.044z"/><path id="mw6edW" d="M931.188 434.862l7.247-27.043 27.043 7.246-7.246 27.044z"/><path id="mw6edX" d="M999.322 379.366l7.246-27.044 27.044 7.246-7.247 27.044z"/><path id="mw6edY" d="M1075.188 306.377l56.676-16.555-30.056 48.733-4.962-22.716z"/><path id="mw6edZ" d="M781.301 389.55c1.154-4.307 6.114-6.72 11.077-5.39 4.964 1.33 8.052 5.9 6.898 10.207s-6.113 6.72-11.077 5.39c-4.964-1.33-8.052-5.9-6.898-10.207z"/><path id="mw6eea" d="M942.025 424.023c1.154-4.307 6.114-6.72 11.077-5.39 4.964 1.33 8.052 5.9 6.898 10.206-1.154 4.308-6.113 6.721-11.077 5.391-4.963-1.33-8.052-5.9-6.898-10.207z"/><path id="mw6eeb" d="M1010.159 368.526c1.154-4.307 6.113-6.72 11.077-5.39 4.963 1.33 8.052 5.9 6.897 10.207-1.154 4.307-6.113 6.72-11.077 5.39-4.963-1.33-8.051-5.9-6.897-10.207z"/><path id="mw6eec" d="M804.963 392.675l130.46 29.169"/><path id="mw6eed" d="M963.216 416.706l43.906-33.878"/><path id="mw6eee" d="M1032.909 357.979l66.468-42.14"/><clipPath id="mw6ec"><use fill="#fff" xlink:href="#mw6ea"/></clipPath><clipPath id="mw6ee"><use fill="#fff" xlink:href="#mw6eb"/></clipPath><linearGradient id="mw6en" x1="851.84" x2="851.84" y1="255.71" y2="203.02" gradientUnits="userSpaceOnUse"><stop offset="0" stop-color="gray" stop-opacity=".25"/><stop offset=".54" stop-color="gray" stop-opacity=".12"/><stop offset="1" stop-color="gray" stop-opacity=".1"/></linearGradient><linearGradient id="mw6ebz" x1="1089.34" x2="1089.34" y1="256.03" y2="204.17" gradientUnits="userSpaceOnUse"><stop offset="0" stop-color="gray" stop-opacity=".25"/><stop offset=".54" stop-color="gray" stop-opacity=".12"/><stop offset="1" stop-color="gray" stop-opacity=".1"/></linearGradient><linearGradient id="mw6ecA" x1="1030.37" x2="1030.37" y1="255.76" y2="204.03" gradientUnits="userSpaceOnUse"><stop offset="0" stop-color="gray" stop-opacity=".25"/><stop offset=".54" stop-color="gray" stop-opacity=".12"/><stop offset="1" stop-color="gray" stop-opacity=".1"/></linearGradient><linearGradient id="mw6ecC" x1="1030.04" x2="1030.04" y1="206.17" y2="206.09" gradientUnits="userSpaceOnUse"><stop offset="0" stop-color="gray" stop-opacity=".25"/><stop offset=".54" stop-color="gray" stop-opacity=".12"/><stop offset="1" stop-color="gray" stop-opacity=".1"/></linearGradient><linearGradient id="mw6ecE" x1="1029.82" x2="1029.82" y1="206.08" y2="205.95" gradientUnits="userSpaceOnUse"><stop offset="0" stop-color="gray" stop-opacity=".25"/><stop offset=".54" stop-color="gray" stop-opacity=".12"/><stop offset="1" stop-color="gray" stop-opacity=".1"/></linearGradient><filter id="mw6edR" width="184%" height="192%" x="-32%" y="-36%" filterUnits="objectBoundingBox"><feGaussianBlur in="SourceGraphic" result="FeGaussianBlur2296Out" stdDeviation="4.28 4.28"/></filter><filter id="mw6edT" width="184%" height="192%" x="-32%" y="-36%" filterUnits="objectBoundingBox"><feGaussianBlur in="SourceGraphic" result="FeGaussianBlur2303Out" stdDeviation="4.28 4.28"/></filter></defs><g><g transform="translate(-701 -91)"><g><use fill="#fff" fill-opacity="0" stroke="#52267d" stroke-miterlimit="50" stroke-width="24" clip-path="url(&quot;#mw6ec&quot;)" xlink:href="#mw6ea"/></g><g><use fill="#fff" fill-opacity="0" stroke="#52267d" stroke-miterlimit="50" stroke-width="12" xlink:href="#mw6ed"/></g><g/><g><use fill="#fff" fill-opacity="0" stroke="#52267d" stroke-miterlimit="50" stroke-width="24" clip-path="url(&quot;#mw6ee&quot;)" xlink:href="#mw6eb"/></g><g><use fill="#fff" fill-opacity="0" stroke="#52267d" stroke-linecap="round" stroke-miterlimit="50" stroke-width="12" xlink:href="#mw6ef"/></g><g><use fill="#fff" fill-opacity="0" stroke="#52267d" stroke-linecap="round" stroke-miterlimit="50" stroke-width="12" xlink:href="#mw6eg"/></g><g><g opacity=".1"><use fill="#6c63ff" xlink:href="#mw6eh"/></g><g opacity=".1"><use fill="#6c63ff" xlink:href="#mw6ei"/></g><g opacity=".1"><use fill="#6c63ff" xlink:href="#mw6ej"/></g><g opacity=".1"><use fill="#6c63ff" xlink:href="#mw6ek"/></g><g opacity=".1"><use fill="#6c63ff" xlink:href="#mw6el"/></g><g><use fill="url(#mw6en)" xlink:href="#mw6em"/></g><g><use fill="#3f3d56" xlink:href="#mw6eo"/></g><g opacity=".1"><g opacity=".1"><use xlink:href="#mw6ep"/></g><g opacity=".1"><use xlink:href="#mw6eq"/></g><g opacity=".1"><use xlink:href="#mw6er"/></g><g opacity=".1"><use xlink:href="#mw6es"/></g></g><g><use fill="#fbbebe" xlink:href="#mw6et"/></g><g><use fill="#575a89" xlink:href="#mw6eu"/></g><g opacity=".1"><use xlink:href="#mw6ev"/></g><g><use fill="#fbbebe" xlink:href="#mw6ew"/></g><g><use fill="#575a89" xlink:href="#mw6ex"/></g><g opacity=".1"><use xlink:href="#mw6ey"/></g><g><use fill="#fbbebe" xlink:href="#mw6ez"/></g><g opacity=".1"><use xlink:href="#mw6eA"/></g><g><use fill="#3f3d56" xlink:href="#mw6eB"/></g><g><use fill="#fbbebe" xlink:href="#mw6eC"/></g><g opacity=".1"><use xlink:href="#mw6eD"/></g><g><use fill="#3f3d56" xlink:href="#mw6eE"/></g><g opacity=".1"><use xlink:href="#mw6eF"/></g><g><use fill="#fbbebe" xlink:href="#mw6eG"/></g><g opacity=".1"><use xlink:href="#mw6eH"/></g><g opacity=".1"><use xlink:href="#mw6eI"/></g><g><use fill="#575a89" xlink:href="#mw6eJ"/></g><g><use fill="#575a89" xlink:href="#mw6eK"/></g><g><use fill="#575a89" xlink:href="#mw6eL"/></g><g><use fill="#575a89" xlink:href="#mw6eM"/></g><g opacity=".1"><use xlink:href="#mw6eN"/></g><g opacity=".1"><use xlink:href="#mw6eO"/></g><g opacity=".1"><use xlink:href="#mw6eP"/></g><g opacity=".1"><use xlink:href="#mw6eQ"/></g><g opacity=".1"><use xlink:href="#mw6eR"/></g><g opacity=".1"><use xlink:href="#mw6eS"/></g><g opacity=".1"><use xlink:href="#mw6eT"/></g><g><use fill="#3f3d56" xlink:href="#mw6eU"/></g><g opacity=".1"><use xlink:href="#mw6eV"/></g><g opacity=".1"><use xlink:href="#mw6eW"/></g><g opacity=".1"><use xlink:href="#mw6eX"/></g><g opacity=".1"><use xlink:href="#mw6eY"/></g><g opacity=".1"><use xlink:href="#mw6eZ"/></g><g><use fill="#3f3d56" xlink:href="#mw6eaa"/></g><g opacity=".1"><use xlink:href="#mw6eab"/></g><g opacity=".1"><use xlink:href="#mw6eac"/></g><g opacity=".1"><use xlink:href="#mw6ead"/></g><g opacity=".1"><use xlink:href="#mw6eae"/></g><g opacity=".1"><use xlink:href="#mw6eaf"/></g><g><use fill="#fbbebe" xlink:href="#mw6eag"/></g><g opacity=".1"><use xlink:href="#mw6eah"/></g><g><use fill="#575a89" xlink:href="#mw6eai"/></g><g><use fill="#6c63ff" xlink:href="#mw6eaj"/></g><g><use fill="#444053" xlink:href="#mw6eak"/></g><g><use fill="#f6f8fb" xlink:href="#mw6eal"/></g><g opacity=".05"><use xlink:href="#mw6eam"/></g><g><use fill="#6c63ff" xlink:href="#mw6ean"/></g><g><use fill="#6c63ff" xlink:href="#mw6eao"/></g><g opacity=".1"><use fill="#6c63ff" xlink:href="#mw6eap"/></g><g opacity=".1"><use fill="#6c63ff" xlink:href="#mw6eaq"/></g><g opacity=".1"><use fill="#6c63ff" xlink:href="#mw6ear"/></g><g><use fill="#6c63ff" xlink:href="#mw6eas"/></g><g><use fill="#6c63ff" xlink:href="#mw6eat"/></g><g><use fill="#6c63ff" xlink:href="#mw6eau"/></g><g opacity=".1"><use xlink:href="#mw6eav"/></g><g><use fill="#ffd037" xlink:href="#mw6eaw"/></g><g><use fill="#ffd037" xlink:href="#mw6eax"/></g><g><use fill="#6c63ff" xlink:href="#mw6eay"/></g><g opacity=".1"><use xlink:href="#mw6eaz"/></g><g><use fill="#ffd037" xlink:href="#mw6eaA"/></g><g><use fill="#ffd037" xlink:href="#mw6eaB"/></g><g><use fill="#a8a8a8" xlink:href="#mw6eaC"/></g><g opacity=".2"><use xlink:href="#mw6eaD"/></g><g><use fill="#444053" xlink:href="#mw6eaE"/></g><g><use fill="#444053" xlink:href="#mw6eaF"/></g></g><g><g opacity=".1"><use fill="#6c63ff" xlink:href="#mw6eaG"/></g><g><use fill="#6c63ff" xlink:href="#mw6eaH"/></g><g><use fill="#6c63ff" xlink:href="#mw6eaI"/></g><g><use fill="#6c63ff" xlink:href="#mw6eaJ"/></g><g><use fill="#6c63ff" xlink:href="#mw6eaK"/></g><g><use fill="#6c63ff" xlink:href="#mw6eaL"/></g><g><use fill="#6c63ff" xlink:href="#mw6eaM"/></g><g><use fill="#6c63ff" xlink:href="#mw6eaN"/></g><g><use fill="#6c63ff" xlink:href="#mw6eaO"/></g><g><use fill="#6c63ff" xlink:href="#mw6eaP"/></g><g><use fill="#6c63ff" xlink:href="#mw6eaQ"/></g><g><use fill="#6c63ff" xlink:href="#mw6eaR"/></g><g><use fill="#6c63ff" xlink:href="#mw6eaS"/></g><g><use fill="#6c63ff" xlink:href="#mw6eaT"/></g><g><use fill="#6c63ff" xlink:href="#mw6eaU"/></g><g><use fill="#6c63ff" xlink:href="#mw6eaV"/></g><g><use fill="#6c63ff" xlink:href="#mw6eaW"/></g><g><use fill="#6c63ff" xlink:href="#mw6eaX"/></g><g><use fill="#6c63ff" xlink:href="#mw6eaY"/></g><g><use fill="#6c63ff" xlink:href="#mw6eaZ"/></g><g><use fill="#6c63ff" xlink:href="#mw6eba"/></g><g><use fill="#6c63ff" xlink:href="#mw6ebb"/></g><g><use fill="#6c63ff" xlink:href="#mw6ebc"/></g><g><use fill="#6c63ff" xlink:href="#mw6ebd"/></g><g><use fill="#6c63ff" xlink:href="#mw6ebe"/></g><g><use fill="#6c63ff" xlink:href="#mw6ebf"/></g><g><use fill="#6c63ff" xlink:href="#mw6ebg"/></g><g><use fill="#6c63ff" xlink:href="#mw6ebh"/></g><g><use fill="#6c63ff" xlink:href="#mw6ebi"/></g><g><use fill="#6c63ff" xlink:href="#mw6ebj"/></g><g><use fill="#6c63ff" xlink:href="#mw6ebk"/></g><g><use fill="#6c63ff" xlink:href="#mw6ebl"/></g><g><use fill="#6c63ff" xlink:href="#mw6ebm"/></g><g><use fill="#6c63ff" xlink:href="#mw6ebn"/></g><g><use fill="#444053" xlink:href="#mw6ebo"/></g><g><use fill="#444053" xlink:href="#mw6ebp"/></g><g><use fill="#444053" xlink:href="#mw6ebq"/></g><g opacity=".1"><use fill="#6c63ff" xlink:href="#mw6ebr"/></g><g><use fill="#6c63ff" xlink:href="#mw6ebs"/></g><g><use fill="#444053" xlink:href="#mw6ebt"/></g><g><use fill="#444053" xlink:href="#mw6ebu"/></g><g><use fill="#444053" xlink:href="#mw6ebv"/></g><g><use fill="#f6f8fb" xlink:href="#mw6ebw"/></g><g opacity=".05"><use xlink:href="#mw6ebx"/></g><g><use fill="url(#mw6ebz)" xlink:href="#mw6eby"/></g><g><use fill="#d17483" xlink:href="#mw6ebA"/></g><g><use fill="#dce6f2" xlink:href="#mw6ebB"/></g><g><use fill="#dce6f2" xlink:href="#mw6ebC"/></g><g opacity=".1"><use xlink:href="#mw6ebD"/></g><g opacity=".1"><use xlink:href="#mw6ebE"/></g><g><use fill="#bdd2e8" xlink:href="#mw6ebF"/></g><g opacity=".1"><use xlink:href="#mw6ebG"/></g><g opacity=".1"><use xlink:href="#mw6ebH"/></g><g opacity=".1"><use xlink:href="#mw6ebI"/></g><g opacity=".1"><use xlink:href="#mw6ebJ"/></g><g><use fill="#653c5b" xlink:href="#mw6ebK"/></g><g opacity=".1"><use xlink:href="#mw6ebL"/></g><g opacity=".1"><use xlink:href="#mw6ebM"/></g><g opacity=".1"><use xlink:href="#mw6ebN"/></g><g><use fill="#653c5b" xlink:href="#mw6ebO"/></g><g><use fill="#d17483" xlink:href="#mw6ebP"/></g><g opacity=".1"><use xlink:href="#mw6ebQ"/></g><g><use fill="#d17483" xlink:href="#mw6ebR"/></g><g opacity=".1"><use xlink:href="#mw6ebS"/></g><g opacity=".1"><use xlink:href="#mw6ebT"/></g><g><use fill="#dce6f2" xlink:href="#mw6ebU"/></g><g opacity=".1"><use xlink:href="#mw6ebV"/></g><g opacity=".1"><use xlink:href="#mw6ebW"/></g><g opacity=".1"><use xlink:href="#mw6ebX"/></g><g opacity=".1"><use xlink:href="#mw6ebY"/></g><g opacity=".1"><use xlink:href="#mw6ebZ"/></g><g opacity=".1"><use xlink:href="#mw6eca"/></g><g opacity=".1"><use xlink:href="#mw6ecb"/></g><g opacity=".1"><use xlink:href="#mw6ecc"/></g><g opacity=".1"><use xlink:href="#mw6ecd"/></g><g opacity=".1"><use xlink:href="#mw6ece"/></g><g opacity=".1"><use xlink:href="#mw6ecf"/></g><g opacity=".1"><use xlink:href="#mw6ecg"/></g><g opacity=".1"><use xlink:href="#mw6ech"/></g><g opacity=".1"><use xlink:href="#mw6eci"/></g><g opacity=".1"><use xlink:href="#mw6ecj"/></g><g><use fill="#653c5b" xlink:href="#mw6eck"/></g><g><use fill="#ffd6db" xlink:href="#mw6ecl"/></g><g><use fill="#c8a9b4" xlink:href="#mw6ecm"/></g><g opacity=".1"><use xlink:href="#mw6ecn"/></g><g opacity=".1"><use xlink:href="#mw6eco"/></g><g opacity=".1"><use xlink:href="#mw6ecp"/></g><g><use fill="#ffd6db" xlink:href="#mw6ecq"/></g><g><use fill="#c8a9b4" xlink:href="#mw6ecr"/></g><g opacity=".1"><use xlink:href="#mw6ecs"/></g><g opacity=".1"><use xlink:href="#mw6ect"/></g><g opacity=".1"><use xlink:href="#mw6ecu"/></g><g opacity=".1"><use xlink:href="#mw6ecv"/></g><g opacity=".1"><g opacity=".1"><use xlink:href="#mw6ecw"/></g><g opacity=".1"><use xlink:href="#mw6ecx"/></g></g><g opacity=".1"><use xlink:href="#mw6ecy"/></g><g><use fill="url(#mw6ecA)" xlink:href="#mw6ecz"/></g><g><use fill="url(#mw6ecC)" xlink:href="#mw6ecB"/></g><g><use fill="url(#mw6ecE)" xlink:href="#mw6ecD"/></g><g><use fill="#965d7b" xlink:href="#mw6ecF"/></g><g opacity=".1"><use xlink:href="#mw6ecF"/></g><g><use fill="#e8f4ff" xlink:href="#mw6ecG"/></g><g><use fill="#ffc1c7" xlink:href="#mw6ecH"/></g><g><use fill="#575a89" xlink:href="#mw6ecI"/></g><g opacity=".05"><use xlink:href="#mw6ecI"/></g><g><use fill="#444053" xlink:href="#mw6ecJ"/></g><g opacity=".05"><use xlink:href="#mw6ecK"/></g><g><use fill="#575a89" xlink:href="#mw6ecL"/></g><g opacity=".1"><use xlink:href="#mw6ecM"/></g><g opacity=".1"><use xlink:href="#mw6ecN"/></g><g opacity=".1"><use xlink:href="#mw6ecO"/></g><g opacity=".1"><use xlink:href="#mw6ecP"/></g><g><use fill="#444053" xlink:href="#mw6ecQ"/></g><g opacity=".1"><use xlink:href="#mw6ecR"/></g><g opacity=".1"><use xlink:href="#mw6ecS"/></g><g opacity=".1"><use xlink:href="#mw6ecT"/></g><g opacity=".1"><use xlink:href="#mw6ecU"/></g><g><use fill="#ffc1c7" xlink:href="#mw6ecV"/></g><g opacity=".1"><use xlink:href="#mw6ecW"/></g><g><use fill="#ff6584" xlink:href="#mw6ecX"/></g><g><use fill="#ffc1c7" xlink:href="#mw6ecY"/></g><g opacity=".1"><use xlink:href="#mw6ecZ"/></g><g opacity=".1"><use xlink:href="#mw6eda"/></g><g><use fill="#e8f4ff" xlink:href="#mw6edb"/></g><g opacity=".1"><use xlink:href="#mw6edc"/></g><g><use fill="#ff6584" xlink:href="#mw6edd"/></g><g opacity=".1"><use xlink:href="#mw6ede"/></g><g><use fill="#e8f4ff" xlink:href="#mw6edf"/></g><g opacity=".1"><use xlink:href="#mw6edg"/></g><g opacity=".1"><use xlink:href="#mw6edh"/></g><g><use fill="#965d7b" xlink:href="#mw6edi"/></g><g opacity=".1"><use xlink:href="#mw6edj"/></g><g opacity=".1"><use xlink:href="#mw6edk"/></g><g opacity=".1"><use xlink:href="#mw6edl"/></g><g opacity=".1"><use xlink:href="#mw6edm"/></g><g opacity=".1"><use xlink:href="#mw6edn"/></g><g opacity=".1"><use xlink:href="#mw6edo"/></g><g opacity=".1"><use xlink:href="#mw6edp"/></g><g opacity=".1"><use xlink:href="#mw6edq"/></g><g opacity=".1"><use xlink:href="#mw6edr"/></g><g opacity=".1"><use xlink:href="#mw6eds"/></g><g opacity=".1"><use xlink:href="#mw6edt"/></g><g opacity=".1"><use xlink:href="#mw6edu"/></g><g opacity=".1"><use xlink:href="#mw6edv"/></g><g opacity=".1"><g opacity=".1"><use xlink:href="#mw6edw"/></g><g opacity=".1"><use xlink:href="#mw6edx"/></g><g opacity=".1"><use xlink:href="#mw6edy"/></g><g opacity=".1"><use xlink:href="#mw6edz"/></g></g><g><use fill="#6c63ff" xlink:href="#mw6edA"/></g><g><use fill="#6c63ff" xlink:href="#mw6edB"/></g><g opacity=".1"><use fill="#6c63ff" xlink:href="#mw6edC"/></g><g opacity=".1"><use fill="#6c63ff" xlink:href="#mw6edD"/></g><g opacity=".1"><use fill="#6c63ff" xlink:href="#mw6edE"/></g><g><use fill="#6c63ff" xlink:href="#mw6edF"/></g><g><use fill="#6c63ff" xlink:href="#mw6edG"/></g><g><use fill="#6c63ff" xlink:href="#mw6edH"/></g><g opacity=".1"><use xlink:href="#mw6edI"/></g><g><use fill="#ffd037" xlink:href="#mw6edJ"/></g><g><use fill="#ffd037" xlink:href="#mw6edK"/></g><g><use fill="#6c63ff" xlink:href="#mw6edL"/></g><g opacity=".1"><use xlink:href="#mw6edM"/></g><g><use fill="#ffd037" xlink:href="#mw6edN"/></g><g><use fill="#ffd037" xlink:href="#mw6edO"/></g><g><use fill="#a8a8a8" xlink:href="#mw6edP"/></g><g opacity=".2"><use xlink:href="#mw6edQ"/></g></g><g><g><g><g><g><g><g filter="url(#mw6edR)"><use fill="#fff" xlink:href="#mw6edS"/></g><g filter="url(#mw6edT)"><use fill="#fff" xlink:href="#mw6edU"/></g><g><use fill="#fa595f" xlink:href="#mw6edV"/></g><g><use fill="#fa595f" xlink:href="#mw6edW"/></g><g><use fill="#fa595f" xlink:href="#mw6edX"/></g><g><use fill="#52267d" xlink:href="#mw6edY"/></g><g><use fill="#fff" xlink:href="#mw6edZ"/></g><g><use fill="#fff" xlink:href="#mw6eea"/></g><g><use fill="#fff" xlink:href="#mw6eeb"/></g></g><g><use fill="#fff" fill-opacity="0" stroke="#52267d" stroke-linecap="round" stroke-miterlimit="50" stroke-width="14" xlink:href="#mw6eec"/></g><g><use fill="#fff" fill-opacity="0" stroke="#52267d" stroke-linecap="round" stroke-miterlimit="50" stroke-width="14" xlink:href="#mw6eed"/></g><g><use fill="#fff" fill-opacity="0" stroke="#52267d" stroke-linecap="round" stroke-miterlimit="50" stroke-width="14" xlink:href="#mw6eee"/></g></g></g></g></g></g></g></g></svg>