<svg xmlns="http://www.w3.org/2000/svg" xmlns:xlink="http://www.w3.org/1999/xlink" width="174" height="126" viewBox="0 0 174 126"><defs><path id="a0vra" d="M489.793 1145.274c.419-1.806-.243-3.702-1.665-4.77-.367-.265-.777-.467-1.115-.773-.565-.509-.89-1.259-1.118-2.009-.56-1.797-.736-3.816-1.715-5.44-.89-1.478-2.629-1.907-4.17-2.058-.56-.054-1.15-.082-1.663.168-.858.416-1.268 1.501-1.307 2.51-.04 1.01.207 2.004.267 3.011.06 1.008-.107 2.116-.8 2.8-.692.683-1.686.763-2.607.9-1.205.18-2.39.495-3.533.94-.96.382-2.03 1.052-2.074 2.143-.038.893.635 1.607 1.141 2.319.946 1.335 1.425 3.083 1.097 4.718-.328 1.635-1.425 3.093-1.615 4.78a2.21 2.21 0 0 0 .158 1.263c.154.267.356.497.595.677.593.49 1.247.885 1.817 1.418 1.17 1.11 1.804 2.723 2.292 4.314.046.152.089.309.133.462h-1.15c-2.34.013-4.236 2.04-4.251 4.548.01 2.513 1.909 4.547 4.254 4.558h11.487c2.345-.011 4.244-2.045 4.254-4.558-.01-2.512-1.909-4.547-4.254-4.558h-3.149c.745-1.068 1.523-2.072 2.672-2.48 1.148-.409 2.54-.17 3.44-1.029a2.97 2.97 0 0 0 .782-1.658 5.243 5.243 0 0 0-.504-3.278c-.356-.692-.89-1.32-1.006-2.099-.098-.67.128-1.349.434-1.944.87-1.692 2.406-3.007 2.873-4.875z"/><path id="a0vrc" d="M479.97 1131.214c-.535-.051-1.096-.078-1.584.16-.817.397-1.207 1.431-1.246 2.391-.04.96.197 1.908.254 2.862.057.954-.101 2.015-.762 2.671-.66.657-1.603.727-2.482.857a15.551 15.551 0 0 0-3.364.9c-.914.357-1.933 1-1.975 2.042-.036.851.605 1.526 1.088 2.208.9 1.267 1.35 2.936 1.043 4.493-.306 1.557-1.35 2.946-1.538 4.552-.069.408-.016.829.151 1.202.147.255.34.474.568.645.565.468 1.195.844 1.73 1.351 1.114 1.057 1.716 2.593 2.183 4.108.456 1.49.813 3.011 1.068 4.555.96-.662 2.201-.653 3.225-1.191 2.182-1.145 2.916-4.465 5.218-5.29 1.09-.382 2.419-.163 3.277-.98.404-.424.665-.978.745-1.578a4.993 4.993 0 0 0-.481-3.121c-.344-.66-.85-1.257-.958-2.005-.095-.64.122-1.285.413-1.851.828-1.612 2.292-2.862 2.739-4.642.399-1.72-.231-3.526-1.585-4.543-.369-.225-.725-.471-1.069-.737-.534-.484-.842-1.2-1.068-1.908-.535-1.717-.7-3.625-1.633-5.18-.837-1.42-2.49-1.83-3.957-1.97z"/><path id="a0vrd" d="M479.954 1131.273s2.024 29.08-3.242 34.071"/><path id="a0vre" d="M469.016 1166.43c0-2.17 2.17-4.34 4.34-4.34h10.36c2.17 0 4.34 2.17 4.34 4.34s-2.17 4.34-4.34 4.34h-10.36c-2.17 0-4.34-2.17-4.34-4.34z"/><path id="a0vrf" d="M468.814 1142.557s5.18-.647 11.503 3.475"/><path id="a0vrg" d="M480.215 1149.502s2.878-5.1 9.058-6.075"/><path id="a0vrh" d="M469.313 1154.385s7.179-1.303 10.477.868"/><path id="a0vri" d="M479.387 1158.228s3.758-1.826 7.986-.344"/><path id="a0vrj" d="M616.371 1163.114v-5.005c.85-.025 1.645.446 2.077 1.231a2.658 2.658 0 0 1 0 2.543c-.431.785-1.227 1.256-2.077 1.231zm0-6.57v-3.128h-14.603v14.466c0 1.686 1.276 3.053 2.85 3.053h8.904c1.573 0 2.85-1.367 2.85-3.053v-3.205c2.095 0 3.794-1.82 3.794-4.066 0-2.246-1.699-4.066-3.795-4.066z"/><path id="a0vrl" d="M615.903 1163.03c-1.18 0-2.137-1.025-2.137-2.29 0-1.264.956-2.29 2.137-2.29 1.18 0 2.137 1.026 2.137 2.29 0 1.266-.956 2.292-2.137 2.292zm0-5.997c-1.914 0-3.466 1.662-3.466 3.713 0 2.05 1.552 3.713 3.466 3.713 1.914 0 3.465-1.662 3.465-3.713 0-2.05-1.551-3.713-3.465-3.713z"/><path id="a0vrm" d="M602.571 1154.179H615.9v14.132c0 1.028-.777 1.86-1.736 1.86h-9.852c-.959 0-1.736-.832-1.736-1.86v-14.132z"/><path id="a0vrn" d="M456.897 1176.455v-6.283h173v6.283z"/><path id="a0vro" d="M570.688 1128.13c-1.853-7.21-12.366-12.476-20.275-13.643v-6.331h.025v-.243c5.687-2.266 10.086-7.207 11.932-13.4a23.66 23.66 0 0 0 1.273-2.942c.845-.33 1.482-1.82 1.482-3.613a6.729 6.729 0 0 0-.239-1.813c.104-.913.157-1.832.159-2.751.006-6.502-2.563-12.7-7.07-17.054.066-.37.09-.746.068-1.122-.178-2.963-3.133-4.976-5.9-5.11 1.492-1.814 1.876-4.387.984-6.609-1.764 2.755-5.388 3.053-8.507 3.07 1.347-.56 1.96-2.557 1.169-3.856-3.26 4.68-9.617 5.548-13.492 9.653a12.178 12.178 0 0 0-2.098 3.066c-5.104 4.356-8.076 10.968-8.071 17.96.002.911.053 1.822.155 2.726a6.716 6.716 0 0 0-.246 1.838c0 1.8.643 3.297 1.494 3.625.36 1.015.788 2.002 1.279 2.952 1.839 6.157 6.203 11.076 11.85 13.356v6.598c-7.94 1.144-18.535 6.454-20.373 13.722-1.587 6.277-3.28 13.165-4.125 17.218 7.225 5.44 22.384 8.632 31.878 8.632 9.027 0 23.78-2.883 30.793-7.835-.741-4.457-2.488-11.656-4.145-18.093z"/><path id="a0vrq" d="M544.04 1152.26c8.708 0 22.939-2.78 29.704-7.558-.731-4.29-2.418-11.233-4.015-17.445-2.034-7.913-14.876-13.398-22.535-13.398h-7.382c-7.685 0-20.542 5.516-22.551 13.463-1.532 6.056-3.165 12.705-3.979 16.609 6.964 5.249 21.593 8.328 30.758 8.328z"/><path id="a0vrr" d="M522.89 1084.102c0-12.25 9.268-22.18 20.7-22.18 11.434 0 20.702 9.93 20.702 22.18 0 12.248-9.268 22.178-20.701 22.178s-20.7-9.93-20.7-22.178z"/><path id="a0vrs" d="M536.91 1102.573h13.263v11.368c0 3.924-2.97 7.105-6.632 7.105-3.663 0-6.632-3.18-6.632-7.105z"/><path id="a0vrt" d="M538.816 1102.046h9.459c1.05 0 1.902.913 1.902 2.038v9.33c0 3.924-2.97 7.106-6.632 7.106-3.663 0-6.632-3.182-6.632-7.106v-9.33c0-1.126.852-2.039 1.903-2.038z"/><path id="a0vru" d="M536.934 1107.938a17.899 17.899 0 0 0 13.264.04v-1.745h-13.264z"/><path id="a0vrv" d="M524.58 1088.522c0-11.249 8.512-20.368 19.01-20.368 10.5 0 19.012 9.12 19.012 20.368 0 11.25-8.512 20.368-19.011 20.368-10.5 0-19.01-9.119-19.01-20.368z"/><path id="a0vrw" d="M530.04 1069.994s8.014 17.424 30.613 7.302l-5.253-8.838-9.332-3.587z"/><path id="a0vrx" d="M530.04 1069.738s8.014 17.424 30.613 7.302l-5.253-8.84-9.332-3.587z"/><path id="a0vry" d="M529.978 1068.56a11.932 11.932 0 0 1 2.723-4.743c3.74-3.96 9.87-4.796 13.015-9.312.755 1.253.178 3.18-1.128 3.718 3.008-.02 6.504-.303 8.206-2.961.86 2.143.49 4.625-.95 6.375 2.67.13 5.52 2.072 5.698 4.928.116 1.908-.999 3.707-2.46 4.799-1.46 1.091-3.226 1.593-4.966 2.003-5.083 1.202-23.46 6.228-20.138-4.806z"/><path id="a0vrz" d="M543.56 1101.64c-3.698 0-6.695-.803-6.695-1.794 0-.99 2.999-1.793 6.696-1.793 3.697 0 6.696.803 6.696 1.793 0 .99-2.998 1.794-6.696 1.794zm19.042-12.94h-.506l-9.806 9.35c-9.438-4.742-16.384 0-16.384 0l-10.284-8.969-1.036.14c.133 11.248 8.753 20.249 19.252 20.104 10.498-.145 18.899-9.381 18.764-20.629z"/><path id="a0vrA" d="M522.803 1088.503c0-1.962.792-3.552 1.768-3.552.977 0 1.769 1.59 1.769 3.552s-.792 3.553-1.769 3.553c-.976 0-1.768-1.59-1.768-3.553z"/><path id="a0vrB" d="M560.831 1088.503c0-1.962.792-3.552 1.769-3.552.976 0 1.768 1.59 1.768 3.552s-.792 3.553-1.768 3.553c-.977 0-1.769-1.59-1.769-3.553z"/><path id="a0vrC" d="M506.611 1139.28c0-7.25 7.25-14.5 14.5-14.5h44.571c7.25 0 14.5 7.25 14.5 14.5v16.39c0 7.25-7.25 14.5-14.5 14.5h-44.57c-7.25 0-14.5-7.25-14.5-14.5z"/><path id="a0vrE" d="M507.943 1147.894c0-11.138 11.138-22.276 22.276-22.276h26.355c11.138 0 22.276 11.138 22.276 22.276s-11.138 22.276-22.276 22.276H530.22c-11.138 0-22.276-11.138-22.276-22.276z"/><path id="a0vrF" d="M540.998 1147.896c0-1.42 1.074-2.57 2.399-2.57s2.399 1.15 2.399 2.57-1.074 2.57-2.4 2.57c-1.324 0-2.398-1.15-2.398-2.57z"/><path id="a0vrG" d="M464.227 1179.025v-2.57h158.338v2.57z"/><path id="a0vrH" d="M464.227 1177.312v-.857h158.338v.857z"/><path id="a0vrI" d="M613.504 1154.179v13.207c0 1.537-1.163 2.784-2.598 2.784h1.332c1.435 0 2.598-1.247 2.598-2.784v-13.207z"/><path id="a0vrJ" d="M605.203 1143.536c-.224.042-.479.107-.59.32-.177.34.143.724.432.954.534.432 1.097.855 1.46 1.456s.477 1.44.08 2.019c-.518.754-1.754.914-1.873 1.841-.077.595.402 1.103.89 1.4 1.2.737 2.748.934 3.619 2.086.356-.792 1.165-1.25 1.959-1.446.794-.197 1.635-.181 2.449-.313.261-.042.557-.128.675-.382.227-.494-.42-1.087-.198-1.583.178-.382.67-.35 1.035-.5.594-.246.838-1.067.671-1.718-.167-.65-.645-1.173-1.147-1.594-1.35-1.145-2.974-1.805-4.618-2.29-.764-.223-1.661-.573-2.454-.609-.757-.04-1.631.216-2.39.359z"/><linearGradient id="a0vrb" x1="468.29" x2="489.93" y1="1150.98" y2="1150.98" gradientUnits="userSpaceOnUse"><stop offset="0" stop-color="gray" stop-opacity=".25"/><stop offset=".54" stop-color="gray" stop-opacity=".12"/><stop offset="1" stop-color="gray" stop-opacity=".1"/></linearGradient><linearGradient id="a0vrk" x1="610.97" x2="610.97" y1="1170.94" y2="1153.42" gradientUnits="userSpaceOnUse"><stop offset="0" stop-color="gray" stop-opacity=".25"/><stop offset=".54" stop-color="gray" stop-opacity=".12"/><stop offset="1" stop-color="gray" stop-opacity=".1"/></linearGradient><linearGradient id="a0vrp" x1="543.51" x2="543.51" y1="1154.05" y2="1052.71" gradientUnits="userSpaceOnUse"><stop offset="0" stop-color="gray" stop-opacity=".25"/><stop offset=".54" stop-color="gray" stop-opacity=".12"/><stop offset="1" stop-color="gray" stop-opacity=".1"/></linearGradient><linearGradient id="a0vrD" x1="543.39" x2="543.39" y1="1170.17" y2="1124.78" gradientUnits="userSpaceOnUse"><stop offset="0" stop-color="gray" stop-opacity=".25"/><stop offset=".54" stop-color="gray" stop-opacity=".12"/><stop offset="1" stop-color="gray" stop-opacity=".1"/></linearGradient></defs><g><g transform="translate(-456 -1053)"><g opacity=".7"><g opacity=".7"><use fill="url(#a0vrb)" xlink:href="#a0vra"/></g></g><g><use fill="#4db6ac" xlink:href="#a0vrc"/></g><g opacity=".6"><use fill="#fff" fill-opacity="0" stroke="#535461" stroke-miterlimit="50" xlink:href="#a0vrd"/></g><g><use fill="#6c63ff" xlink:href="#a0vre"/></g><g opacity=".6"><use fill="#fff" fill-opacity="0" stroke="#535461" stroke-miterlimit="50" xlink:href="#a0vrf"/></g><g opacity=".6"><use fill="#fff" fill-opacity="0" stroke="#535461" stroke-miterlimit="50" xlink:href="#a0vrg"/></g><g opacity=".6"><use fill="#fff" fill-opacity="0" stroke="#535461" stroke-miterlimit="50" xlink:href="#a0vrh"/></g><g opacity=".6"><use fill="#fff" fill-opacity="0" stroke="#535461" stroke-miterlimit="50" xlink:href="#a0vri"/></g><g opacity=".7"><g opacity=".7"><use fill="url(#a0vrk)" xlink:href="#a0vrj"/></g></g><g><use fill="#6c63ff" xlink:href="#a0vrl"/></g><g opacity=".1"><use xlink:href="#a0vrl"/></g><g><use fill="#6c63ff" xlink:href="#a0vrm"/></g><g><use fill="#e0e0e0" xlink:href="#a0vrn"/></g><g opacity=".7"><g opacity=".7"><use fill="url(#a0vrp)" xlink:href="#a0vro"/></g></g><g><use fill="#6c63ff" xlink:href="#a0vrq"/></g><g><use fill="#72351c" xlink:href="#a0vrr"/></g><g opacity=".1"><use xlink:href="#a0vrs"/></g><g><use fill="#fda57d" xlink:href="#a0vrt"/></g><g opacity=".1"><use xlink:href="#a0vru"/></g><g><use fill="#fda57d" xlink:href="#a0vrv"/></g><g opacity=".1"><use xlink:href="#a0vrw"/></g><g><use fill="#72351c" xlink:href="#a0vrx"/></g><g><use fill="#72351c" xlink:href="#a0vry"/></g><g><use fill="#72351c" xlink:href="#a0vrz"/></g><g><use fill="#fda57d" xlink:href="#a0vrA"/></g><g><use fill="#fda57d" xlink:href="#a0vrB"/></g><g opacity=".7"><g opacity=".7"><use fill="url(#a0vrD)" xlink:href="#a0vrC"/></g></g><g><use fill="#535461" xlink:href="#a0vrE"/></g><g><use fill="#fff" xlink:href="#a0vrF"/></g><g><use fill="#e0e0e0" xlink:href="#a0vrG"/></g><g opacity=".1"><use xlink:href="#a0vrH"/></g><g opacity=".1"><use xlink:href="#a0vrI"/></g><g><use fill="#eee" xlink:href="#a0vrJ"/></g></g></g></svg>